<?xml version="1.0" encoding="utf-8"?>
<!-- Generator: Adobe Illustrator 24.0.1, SVG Export Plug-In . SVG Version: 6.00 Build 0)  -->
<svg version="1.1" id="Capa_1" xmlns="http://www.w3.org/2000/svg" xmlns:xlink="http://www.w3.org/1999/xlink" x="0px" y="0px"
	 viewBox="0 0 514 514" style="enable-background:new 0 0 514 514;" xml:space="preserve">
<title>iconos Tribunal</title>
<path d="M350.7,100H163.9c-5.2,0-9.3,4.2-9.3,9.3v67.2c0,5.2,4.2,9.3,9.3,9.3h186.7c5.2,0,9.3-4.2,9.3-9.3v-67.2
	C360,104.2,355.8,100,350.7,100z M341.3,167.2H173.3v-48.6h168.1V167.2z"/>
<path d="M163.9,238.2h186.7c5.2,0,9.3-4.2,9.3-9.3s-4.2-9.3-9.3-9.3H163.9c-5.2,0-9.3,4.2-9.3,9.3S158.7,238.2,163.9,238.2
	L163.9,238.2z"/>
<path d="M350.7,271.8h-0.1c-5.2,0-9.3,4.2-9.3,9.3s4.2,9.3,9.3,9.3h0.1c5.2,0,9.3-4.2,9.3-9.3S355.8,271.8,350.7,271.8z"/>
<path d="M313.3,271.8H163.9c-5.2,0-9.3,4.2-9.3,9.3s4.2,9.3,9.3,9.3h149.4c5.2,0,9.3-4.2,9.3-9.3S318.5,271.8,313.3,271.8
	L313.3,271.8z"/>
<path d="M495,345.7L495,345.7l-60.6-107.3c-1.7-2.9-4.8-4.7-8.1-4.7h-14.1V83.2c0-15.5-12.6-28-28-28h-1.9v-9.3
	c0-15.5-12.6-28-28-28H160c-15.5,0-28,12.6-28,28v9.3h-1.9c-15.5,0-28,12.6-28,28v150.5H88.3c-3.4,0-6.5,1.8-8.1,4.7L19.3,345.7l0,0
	c-0.8,1.4-1.2,3-1.2,4.6v136.4c0,5.2,4.2,9.3,9.3,9.3h42.8c5.2,0,9.3-4.2,9.3-9.3s-4.2-9.3-9.3-9.3H36.7V359.6H220
	c5.2,20.5,26,33,46.5,27.8c13.7-3.4,24.4-14.1,27.8-27.8h183.3v117.7H144.9c-5.2,0-9.3,4.2-9.3,9.3s4.2,9.3,9.3,9.3h342
	c5.2,0,9.3-4.2,9.3-9.3V350.3C496.2,348.7,495.8,347.1,495,345.7z M150.7,45.8c0-5.2,4.2-9.3,9.3-9.3h194.3c5.2,0,9.3,4.2,9.3,9.3
	v9.3H150.7V45.8z M93.7,252.4h8.4V341H43.4L93.7,252.4z M286.1,341c-5.2,0-9.3,4.2-9.3,9.3c0,10.8-8.8,19.6-19.6,19.6
	c-10.8,0-19.6-8.8-19.6-19.6l0,0c0-5.2-4.2-9.3-9.3-9.3H120.8V83.2c0-5.2,4.2-9.3,9.3-9.3h254c5.2,0,9.3,4.2,9.3,9.3V341L286.1,341
	L286.1,341z M412.2,341v-88.6h8.6l50.1,88.6H412.2z"/>
<path d="M179.6,395.3c-5.2,0-9.3,4.2-9.3,9.3v27.7c0,5.2,4.2,9.3,9.3,9.3h155.1c5.2,0,9.3-4.2,9.3-9.3v-27.7c0-5.2-4.2-9.3-9.3-9.3
	s-9.3,4.2-9.3,9.3V423H188.9v-18.4C188.9,399.5,184.8,395.3,179.6,395.3z"/>
<path d="M107.6,477.3c-5.2,0-9.3,4.2-9.3,9.3c0,5.2,4.2,9.3,9.3,9.3c5.2,0,9.3-4.2,9.3-9.3c0-2.5-1-4.9-2.7-6.6
	C112.4,478.3,110,477.3,107.6,477.3z"/>
</svg>
