<?xml version="1.0" encoding="utf-8"?>
<!-- Generator: Adobe Illustrator 24.0.1, SVG Export Plug-In . SVG Version: 6.00 Build 0)  -->
<svg version="1.1" id="Capa_1" xmlns="http://www.w3.org/2000/svg" xmlns:xlink="http://www.w3.org/1999/xlink" x="0px" y="0px"
	 viewBox="0 0 514 514" style="enable-background:new 0 0 514 514;" xml:space="preserve">
<title>iconos Tribunal</title>
<path d="M469,117c0-53.9-43.6-97.5-97.4-97.6c-21.5,0-42.3,7.1-59.4,20.1H78.1c-18.7,0-33.8,15.1-33.8,33.8v337.9
	c0,18.7,15.1,33.8,33.8,33.8h29.5v16.2c0,18.7,15.1,33.8,33.8,33.8h242.8c18.7,0,33.8-15.1,33.8-33.8V332.4c0-5.1-4.2-9.3-9.3-9.3
	c-5.1,0-9.3,4.2-9.3,9.3v128.8c0,8.4-6.8,15.2-15.2,15.2H141.4c-8.4,0-15.2-6.8-15.2-15.2V445h194.8c18.7,0,33.8-15.1,33.8-33.8
	V213.2c14.9,2.6,30.2,1.7,44.7-2.6v37.9c0,5.1,4.1,9.3,9.3,9.3c5.1,0,9.3-4.1,9.3-9.3c0,0,0,0,0,0v-45.6
	C449.4,185.7,469,152.8,469,117L469,117z M336.2,411.2c0,8.4-6.8,15.2-15.2,15.2H78.1c-8.4,0-15.2-6.8-15.2-15.2V73.4
	c0-8.4,6.8-15.2,15.2-15.2h215.6c-12,15.8-18.9,34.9-19.7,54.8H115.8c-5.1,0-9.3,4.2-9.3,9.3v39.2c0,5.1,4.2,9.3,9.3,9.3h167.4
	c2,0,4-0.7,5.6-1.9c11.2,17.8,27.8,31.5,47.3,39.2V411.2z M273.9,131.5v20.7H125.1v-20.7H273.9z M371.5,196c-43.6,0-79-35.4-79-79
	c0-43.6,35.4-79,79-79c43.6,0,79,35.4,79,79c0,0,0,0,0,0C450.4,160.6,415.1,196,371.5,196L371.5,196z"/>
<path d="M408.7,299.5c-5.1,0-9.3-4.2-9.3-9.3c0-5.1,4.2-9.3,9.3-9.3c5.1,0,9.3,4.2,9.3,9.3c0,0.7-0.1,1.4-0.2,2.1
	C416.8,296.5,413,299.5,408.7,299.5z"/>
<path d="M283.2,221.6H115.8c-5.1,0-9.3-4.1-9.3-9.3c0-5.1,4.1-9.3,9.3-9.3c0,0,0,0,0,0h167.4c5.1,0,9.3,4.2,9.3,9.3
	C292.5,217.4,288.3,221.6,283.2,221.6z"/>
<path d="M283.2,265.7H115.8c-5.1,0-9.3-4.1-9.3-9.3c0-5.1,4.1-9.3,9.3-9.3c0,0,0,0,0,0h167.4c5.1,0,9.3,4.2,9.3,9.3
	C292.5,261.5,288.3,265.6,283.2,265.7z"/>
<path d="M283.2,309.7H115.8c-5.1,0-9.3-4.1-9.3-9.3c0-5.1,4.1-9.3,9.3-9.3c0,0,0,0,0,0h167.4c5.1,0,9.3,4.2,9.3,9.3
	C292.5,305.5,288.3,309.7,283.2,309.7z"/>
<path d="M283.2,353.8H115.8c-5.1,0-9.3-4.1-9.3-9.3c0-5.1,4.1-9.3,9.3-9.3c0,0,0,0,0,0h167.4c5.1,0,9.3,4.2,9.3,9.3
	C292.5,349.6,288.3,353.7,283.2,353.8z"/>
<path d="M321.8,116.2c0-5.1,4.6-9.3,10.3-9.3l70.2,0.1c5.7,0,10.3,4.2,10.3,9.3s-4.6,9.3-10.3,9.3l-70.2-0.1
	C326.3,125.5,321.8,121.4,321.8,116.2z"/>
<path d="M368.8,155c-3.8-3.4-4.9-8.5-2.3-11.3l31.3-34.9c2.5-2.8,7.7-2.3,11.5,1.1s4.9,8.5,2.3,11.3l-31.3,34.9
	C377.7,158.9,372.6,158.5,368.8,155z"/>
<path d="M367.6,79.1c3.7-3.5,8.8-4.2,11.5-1.4l32.3,34c2.6,2.7,1.7,7.8-2,11.4s-8.8,4.2-11.5,1.4l-32.3-34
	C363,87.7,363.9,82.6,367.6,79.1z"/>
</svg>
