<?xml version="1.0" encoding="utf-8"?>
<!-- Generator: Adobe Illustrator 24.0.1, SVG Export Plug-In . SVG Version: 6.00 Build 0)  -->
<svg version="1.1" id="Capa_1" xmlns="http://www.w3.org/2000/svg" xmlns:xlink="http://www.w3.org/1999/xlink" x="0px" y="0px"
	 viewBox="0 0 514 514" style="enable-background:new 0 0 514 514;" xml:space="preserve">
<title>iconos Tribunal</title>
<path d="M30.7,114.3h46.2v343.7c0,20.4,16.6,36.9,37,37h148.7c5.1,0,9.2-4.1,9.2-9.2s-4.1-9.2-9.2-9.2H145.9c3.3-5.6,5-12,5-18.5
	v-18.5H452v18.5c0,10.2-8.3,18.5-18.5,18.5h-87.8c-5.1,0-9.2,4.1-9.2,9.2s4.1,9.2,9.2,9.2h87.8c20.4,0,36.9-16.6,37-37v-27.7
	c0-5.1-4.1-9.2-9.2-9.2h-46.2V196.4c48.8-63.2,77.3-121.8,78.5-124.3c2.2-4.6,0.3-10.1-4.4-12.4c-0.5-0.3-1.1-0.5-1.6-0.6
	c0,0-0.1,0-0.1,0c-3.4-0.9-35.1-9.2-75.6-7.7c-6.9-17.8-24-29.5-43.1-29.5H58.5c-20.4,0-36.9,16.6-37,37V105
	C21.5,110.1,25.6,114.3,30.7,114.3C30.7,114.3,30.7,114.3,30.7,114.3L30.7,114.3z M380.3,209.9c-4.3,5.1-9,10.2-13.8,15.2h-53.1
	c-5.1,0-9.2,4.1-9.2,9.2c0,1.4,0.3,2.8,1,4.1l14.5,29.1c-21.1,16.6-43.4,31.7-66.7,45.1c6.4-45.2,24.1-88.1,51.6-124.5h65.3
	c5.1,0,9.2-4.1,9.2-9.2c0-5.1-4.1-9.2-9.2-9.2c0,0,0,0,0,0h-50.2c12-13.5,25.3-25.9,39.7-37h49.3c5.1,0,9.2-4.1,9.2-9.2
	c0-5.1-4.1-9.2-9.2-9.2c0,0,0,0,0,0h-22.2c25.3-15.2,52.8-26.5,81.6-33.3C445.4,122.8,414.8,169.4,380.3,209.9L380.3,209.9z
	 M249.1,252.1c2.8-45,13.7-100,46.9-135.1l-7.3,60.8c0,0.3,0,0.5-0.1,0.8C272.1,201.1,258.7,225.8,249.1,252.1L249.1,252.1z
	 M310.4,152.5l6.4-53.2c14.4-9.9,30.4-17.4,47.3-22l-20,42.3c-0.3,0.7-0.6,1.5-0.7,2.3C331.6,131.3,320.6,141.5,310.4,152.5
	L310.4,152.5z M421.8,69.7c5.8,0,11.4,0.2,16.6,0.5c-22.7,7.6-44.5,17.8-64.9,30.4l13.4-28.3C398.4,70.6,410.1,69.7,421.8,69.7z
	 M368.9,40.4c9.4,0,18.1,4.7,23.2,12.6c-39,4.6-74.9,18.8-103.4,45.3c-38.2,35.6-53.1,91.9-57.4,144.2c-2.4,29-1.9,58.2,1.5,87.1
	l-1.8,24.9H123.1c-5.1,0-9.2,4.1-9.2,9.2s4.1,9.2,9.2,9.2h153.4c5.1,0,9.2-4.1,9.2-9.2s-4.1-9.2-9.2-9.2h-27l1.4-19.4
	c30.5-16.5,59.4-35.9,86.3-57.8c3.4-2.7,4.4-7.4,2.4-11.3l-11.2-22.4h42.1c2.5,0,4.9-1,6.6-2.8c6-6.2,11.9-12.6,17.3-18.9
	c0.7-0.9,1.5-1.7,2.2-2.6V421h-255c-5.1,0-9.2,4.1-9.2,9.2c0,0,0,0,0,0v27.7c0,10.2-8.3,18.5-18.5,18.5s-18.5-8.3-18.5-18.5V58.9
	c0-6.5-1.7-12.9-5-18.5H368.9z M40,58.9c0-10.2,8.3-18.5,18.5-18.5c10.2,0,18.5,8.3,18.5,18.5v37H40V58.9z"/>
<path d="M123.1,336h79.4c5.1,0,9.2-4.1,9.2-9.2s-4.1-9.2-9.2-9.2l0,0h-79.4c-5.1,0-9.2,4.1-9.2,9.2S118,336,123.1,336z"/>
<path d="M172.1,188.2c30.6,0,55.4-24.8,55.4-55.4c0-30.6-24.8-55.4-55.4-55.4s-55.4,24.8-55.4,55.4
	C116.7,163.4,141.5,188.2,172.1,188.2z M172.1,95.8c20.4,0,37,16.5,37,37s-16.5,37-37,37s-37-16.5-37-37l0,0
	C135.2,112.4,151.7,95.8,172.1,95.8L172.1,95.8z"/>
<circle cx="304.2" cy="485.7" r="9.2"/>
</svg>
