<?xml version="1.0" encoding="utf-8"?>
<!-- Generator: Adobe Illustrator 24.0.1, SVG Export Plug-In . SVG Version: 6.00 Build 0)  -->
<svg version="1.1" id="Capa_1" xmlns="http://www.w3.org/2000/svg" xmlns:xlink="http://www.w3.org/1999/xlink" x="0px" y="0px"
	 viewBox="0 0 514 514" style="enable-background:new 0 0 514 514;" xml:space="preserve">
<title>iconos Tribunal</title>
<path d="M465.2,91.6c0-2.5-1-4.9-2.8-6.7l-62.2-62.2c-1.8-1.8-4.2-2.8-6.7-2.8H158.1c-5.2,0-9.4,4.2-9.4,9.4c0,0,0,0,0,0v39.8H56.9
	c-5.2,0-9.4,4.2-9.4,9.4v410.9c0,5.2,4.2,9.4,9.4,9.4h297.7c5.2,0,9.4-4.2,9.4-9.4v-39.8h91.8c5.2,0,9.4-4.2,9.4-9.4v-51.3
	c0-12.1-18.8-12.1-18.8,0v41.9H364V307.1h37.2c12.1,0,12.1-18.8,0-18.8H364v-45.7h37.2c12.1,0,12.1-18.8,0-18.8H364v-45.7h37.2
	c12.1,0,12.1-18.8,0-18.8H364v-18.5c0-2.5-1-4.9-2.8-6.7L299,72c-1.8-1.8-4.2-2.8-6.7-2.8H167.5V38.8h222.2l56.7,56.7v217.3
	c0,12.1,18.8,12.1,18.8,0V91.6z M345.2,144.8v335.4H66.3V88.1h222.2L345.2,144.8z"/>
<path d="M117.8,347.2H285c12.1,0,12.1-18.8,0-18.8H117.8C105.7,328.3,105.7,347.2,117.8,347.2z"/>
<path d="M117.8,176.3h49.1c12.1,0,12.1-18.8,0-18.8h-49.1C105.7,157.5,105.7,176.3,117.8,176.3z"/>
<path d="M117.8,399.4H285c12.1,0,12.1-18.8,0-18.8H117.8C105.7,380.5,105.7,399.4,117.8,399.4z"/>
<path d="M117.8,448.7H285c12.1,0,12.1-18.8,0-18.8H117.8C105.7,429.9,105.7,448.7,117.8,448.7z"/>
<path d="M455.8,341.4c-5.2,0-9.4,4.2-9.4,9.4c0,5.2,4.2,9.4,9.4,9.4c5,0,9.2-4,9.4-9c0.2-5.3-4-9.7-9.2-9.8
	C455.9,341.4,455.9,341.4,455.8,341.4z"/>
<path d="M198.1,160.2c-3.7,3.7-3.7,9.6,0,13.3c3.7,3.7,9.6,3.7,13.3,0c3.6-3.6,3.7-9.3,0.3-13c-3.6-3.8-9.6-4-13.5-0.4
	C198.2,160.1,198.2,160.2,198.1,160.2C196.4,162,199.9,158.5,198.1,160.2z"/>
<path d="M117.8,295H285c12.1,0,12.1-18.8,0-18.8H117.8C105.7,276.1,105.7,295,117.8,295z"/>
<path d="M117.8,244.7H285c12.1,0,12.1-18.8,0-18.8H117.8C105.7,225.8,105.7,244.7,117.8,244.7z"/>
</svg>
