<?xml version="1.0" encoding="utf-8"?>
<!-- Generator: Adobe Illustrator 24.0.1, SVG Export Plug-In . SVG Version: 6.00 Build 0)  -->
<svg version="1.1" id="Capa_1" xmlns="http://www.w3.org/2000/svg" xmlns:xlink="http://www.w3.org/1999/xlink" x="0px" y="0px"
	 viewBox="0 0 514 514" style="enable-background:new 0 0 514 514;" xml:space="preserve">
<title>iconos Tribunal</title>
<path d="M78,144.7c-3.8,1.2-6.4,4.7-6.4,8.8v73.3c0,5.1,4.1,9.2,9.2,9.2c5.1,0,9.2-4.1,9.2-9.2v-43.9l32.8,47.5
	c2.5,3.8,7.1,5.5,11.5,4.2c4.4-1.4,7.2-5.4,7.2-10.5l-0.7-71c0-5-4.1-9.1-9.2-9.1c0,0-0.1,0-0.1,0c-5.1,0-9.1,4.2-9.1,9.3l0.4,44.8
	l-34.5-49.9C86,144.9,81.8,143.5,78,144.7L78,144.7z"/>
<path d="M198.9,162.5c5.1,0,9.2-4.1,9.2-9.2c0-5.1-4.1-9.2-9.2-9.2h-30.7c-5.1,0-9.2,4.1-9.2,9.2c0,0,0,0,0,0v72.8
	c0,5.1,4.1,9.2,9.2,9.2c0,0,0,0,0,0h30.7c5.1,0,9.2-4.1,9.2-9.2c0-5.1-4.1-9.2-9.2-9.2h-21.5v-18h19.2c5.1,0,9.2-4.1,9.2-9.2
	s-4.1-9.2-9.2-9.2l0,0h-19.2v-18H198.9z"/>
<path d="M368.9,217.6c-7.1,0.1-13.9-2.8-18.8-7.9c-3.4-3.8-9.2-4-13-0.6c-3.8,3.4-4,9.2-0.6,13c7.9,8.7,20,13.9,32.4,13.9
	c15.5,0,28.5-9.9,30.9-23.5c1.8-10.2-2.8-23.6-21.3-30.5c-9-3.3-17.4-7-20-8.1c-1.4-1.2-2.1-3-1.8-4.8c0.2-1.3,1.1-4.5,5.8-5.9
	c10.3-3.1,20,4.5,20.2,4.7c3.9,3.2,9.7,2.7,12.9-1.2c3.2-3.9,2.7-9.6-1.2-12.9c-0.7-0.6-17.2-14.2-37.3-8.2
	c-10.1,3.1-17.3,11-18.7,20.9c-1.4,9.1,2.7,18.1,10.4,23.1c0.4,0.3,0.8,0.5,1.3,0.7c0.4,0.2,10.5,4.7,21.9,8.9
	c3.2,1.2,10.6,4.5,9.6,10C381,213.3,376,217.6,368.9,217.6L368.9,217.6z"/>
<path d="M284.1,150.6c-1.5-4.8-6.6-7.6-11.5-6.1c-3.2,1-5.6,3.6-6.3,6.9l-13.3,43l-8.5-42.9c-1-5-5.8-8.2-10.8-7.2
	c-5,1-8.2,5.8-7.2,10.8l0,0l14.3,72.3c0.1,0.4,0.2,0.9,0.4,1.3c1.5,4.3,5.6,7.2,10.2,7.2h0.1c4.6,0,8.7-3,10.2-7.3
	c0-0.1,0.1-0.2,0.1-0.2l13.6-43.9l13.5,43.9c0,0.1,0.1,0.2,0.1,0.4c1.5,4.3,5.6,7.2,10.2,7.2h0.1c4.6,0,8.7-3,10.2-7.3
	c0.1-0.4,0.2-0.8,0.3-1.2l14.4-72.2c1-5-2.2-9.8-7.2-10.8s-9.8,2.2-10.8,7.2c0,0,0,0,0,0l-8.5,42.8L284.1,150.6z"/>
<circle cx="245" cy="483.8" r="9.2"/>
<path d="M480,65.2h-84.3l-39.5-39.5c-1.7-1.7-4.1-2.7-6.5-2.7H37.6c-5.1,0-9.2,4.1-9.2,9.2c0,0,0,0,0,0v428.7
	c0,17.7,14.4,32.1,32.1,32.1h143.2c5.1,0,9.2-4.1,9.2-9.2c0-5.1-4.1-9.2-9.2-9.2l0,0H60.5c-7.6,0-13.8-6.2-13.8-13.8V41.3h293.7
	v75.3c0,5.1,4.1,9.2,9.2,9.2h75.3l0,335.1c0,4.8,1,9.5,3.1,13.8H286.3c-5.1,0-9.2,4.1-9.2,9.2c0,5.1,4.1,9.2,9.2,9.2c0,0,0,0,0,0
	c0,0,169.2,0,170.8,0c7.2,0,14.2-2.5,19.9-7c7.8-6,12.3-15.4,12.2-25.2V74.3C489.2,69.3,485.1,65.2,480,65.2
	C480,65.2,480,65.2,480,65.2L480,65.2z M358.8,54.3l53.1,53.1h-53.1V54.3z M465.6,471.6c-3.2,2.7-7.5,3.6-11.6,2.7l0,0
	c-6.3-1.4-10.7-7-10.7-13.4l0-344.3c0-2.4-1-4.8-2.7-6.5L414,83.5h56.8v377.3C470.9,465,468.9,469,465.6,471.6L465.6,471.6z"/>
<path d="M288.6,83.5c5.1,0,9.2-4.1,9.2-9.2c0-5.1-4.1-9.2-9.2-9.2c0,0,0,0,0,0h-73.3c-5.1,0-9.2,4.1-9.2,9.2c0,5.1,4.1,9.2,9.2,9.2
	H288.6z"/>
<path d="M98.6,83.5h73.3c5.1,0,9.2-4.1,9.2-9.2c0-5.1-4.1-9.2-9.2-9.2c0,0,0,0,0,0H98.6c-5.1,0-9.2,4.1-9.2,9.2
	C89.4,79.4,93.5,83.5,98.6,83.5z"/>
<path d="M98.6,120.2h190c5.1,0,9.2-4.1,9.2-9.2c0-5.1-4.1-9.2-9.2-9.2c0,0,0,0,0,0h-190c-5.1,0-9.2,4.1-9.2,9.2
	S93.5,120.2,98.6,120.2C98.6,120.2,98.6,120.2,98.6,120.2L98.6,120.2z"/>
<path d="M80.7,315.2c-5.1,0-9.2,4.1-9.2,9.2c0,0,0,0,0,0v116.2c0,5.1,4.1,9.2,9.2,9.2c0,0,0,0,0,0h116.2c5.1,0,9.2-4.1,9.2-9.2
	V324.4c0-5.1-4.1-9.2-9.2-9.2L80.7,315.2z M187.8,431.5H89.9v-97.9h97.9V431.5z"/>
<path d="M400.2,275.2c0-5.1-4.1-9.2-9.2-9.2c0,0,0,0,0,0H80.7c-5.1,0-9.2,4.1-9.2,9.2c0,5.1,4.1,9.2,9.2,9.2c0,0,0,0,0,0H391
	C396,284.4,400.2,280.3,400.2,275.2C400.2,275.2,400.2,275.2,400.2,275.2z"/>
<path d="M391,331.7H252c-5.1,0-9.2,4.1-9.2,9.2c0,5.1,4.1,9.2,9.2,9.2h139c5.1,0,9.2-4.1,9.2-9.2C400.1,335.8,396,331.7,391,331.7z"
	/>
<path d="M391,373.3H252c-5.1,0-9.2,4.1-9.2,9.2c0,5.1,4.1,9.2,9.2,9.2h139c5.1,0,9.2-4.1,9.2-9.2C400.1,377.5,396,373.4,391,373.3z"
	/>
<path d="M391,415H252c-5.1,0-9.2,4.1-9.2,9.2c0,5.1,4.1,9.2,9.2,9.2h139c5.1,0,9.2-4.1,9.2-9.2C400.1,419.1,396,415,391,415z"/>
</svg>
