<?xml version="1.0" encoding="utf-8"?>
<!-- Generator: Adobe Illustrator 24.0.1, SVG Export Plug-In . SVG Version: 6.00 Build 0)  -->
<svg version="1.1" id="Capa_1" xmlns="http://www.w3.org/2000/svg" xmlns:xlink="http://www.w3.org/1999/xlink" x="0px" y="0px"
	 viewBox="0 0 514 514" style="enable-background:new 0 0 514 514;" xml:space="preserve">
<title>iconos Tribunal</title>
<path d="M476.1,409.3c8-7.4,12.6-17.8,12.6-28.7v-9.3c0-21.6-17.5-39-39-39c-17,0-32,11-37.2,27.2c-6.6-20.5-28.5-31.9-49.1-25.3
	c-16.2,5.2-27.2,20.2-27.2,37.2v9.3c0,10.9,4.6,21.3,12.6,28.7c-5.4,3.7-9.9,8.5-13.3,14H327v-23.9c0-22-14.3-41.5-35.3-48.2
	c14.7-18.5,11.6-45.4-6.9-60.1c-18.5-14.7-45.4-11.6-60.1,6.9c-12.3,15.6-12.3,37.6,0,53.1c-21,6.7-35.3,26.1-35.3,48.2v23.9h-8.7
	c-3.4-5.6-7.9-10.3-13.3-14c8-7.4,12.6-17.8,12.6-28.7v-9.3c0-21.6-17.5-39-39-39c-17,0-32,11-37.2,27.2
	c-6.6-20.5-28.5-31.9-49.1-25.3c-16.2,5.2-27.2,20.2-27.2,37.2v9.3c0,10.9,4.6,21.3,12.6,28.7c-12.6,8.7-20.1,23-20.1,38.2v37.2
	c0,5.1,4.2,9.3,9.3,9.3h457.4c5.1,0,9.3-4.2,9.3-9.3v-37.2C496.2,432.3,488.7,418,476.1,409.3z M429.3,371.3
	c0-11.3,9.2-20.5,20.5-20.5s20.5,9.2,20.5,20.5l0,0v9.3c0,11.3-9.2,20.4-20.5,20.4c-11.3,0-20.4-9.2-20.4-20.4V371.3z M412.5,392.5
	c2.1,6.4,5.8,12.2,10.8,16.8c-4.1,2.9-7.8,6.4-10.8,10.4c-3-4-6.6-7.5-10.8-10.4C406.8,404.7,410.5,398.9,412.5,392.5z M354.9,380.6
	v-9.3c0-11.3,9.2-20.5,20.5-20.5s20.5,9.2,20.5,20.5v9.3c0,11.3-9.2,20.4-20.5,20.4C364.1,401,354.9,391.9,354.9,380.6z
	 M258.2,300.6c13.3,0,24.2,10.8,24.2,24.2S271.6,349,258.2,349S234,338.1,234,324.8l0,0C234.1,311.5,244.9,300.6,258.2,300.6z
	 M208,399.5c0-17.6,14.3-31.9,31.9-31.9h9v27.9c0,5.1,4.2,9.3,9.3,9.3c5.1,0,9.3-4.2,9.3-9.3v-27.9h9c17.6,0,31.9,14.3,31.9,31.9
	v23.9H208L208,399.5z M120.6,371.3c0-11.3,9.2-20.5,20.5-20.5s20.5,9.2,20.5,20.5v9.3c0,11.3-9.2,20.5-20.5,20.5
	s-20.5-9.2-20.5-20.5L120.6,371.3z M103.9,392.5c2.1,6.4,5.8,12.2,10.8,16.8c-4.1,2.9-7.8,6.4-10.8,10.4c-3-4-6.6-7.5-10.8-10.4
	C98.1,404.7,101.8,398.9,103.9,392.5z M46.2,380.6v-9.3c0-11.3,9.2-20.4,20.5-20.4c11.3,0,20.4,9.2,20.4,20.4v9.3
	c0,11.3-9.2,20.4-20.5,20.4C55.4,401,46.2,391.9,46.2,380.6z M38.8,447.5c0-15.4,12.5-27.9,27.9-27.9s27.9,12.5,27.9,27.9v27.9H38.8
	V447.5z M113.2,447.5c0-15.4,12.5-27.9,27.9-27.9s27.9,12.5,27.9,27.9v27.9h-55.8V447.5z M187.6,447.5v-5.6h141.3v33.5H187.6V447.5z
	 M347.5,447.5c0-15.4,12.5-27.9,27.9-27.9s27.9,12.5,27.9,27.9v27.9h-55.8V447.5z M477.6,475.4h-55.8v-27.9
	c0-15.4,12.5-27.9,27.9-27.9c15.4,0,27.9,12.5,27.9,27.9c0,0,0,0,0,0V475.4z"/>
<path d="M258.2,256c50.1-0.1,94.8-31.5,112-78.6c1.7-4.8-0.8-10.2-5.6-11.9c-4.8-1.7-10.2,0.8-11.9,5.6
	c-18.8,52.2-76.4,79.2-128.5,60.3S145,155,163.8,102.9s76.4-79.2,128.5-60.3c28.1,10.1,50.2,32.3,60.3,60.4
	c1.7,4.8,7.1,7.3,11.9,5.6c4.8-1.7,7.3-7.1,5.6-11.9l0,0C347.9,34.8,279.7,2.7,217.9,25s-93.9,90.5-71.6,152.3
	C163.3,224.5,208,256,258.2,256z"/>
<path d="M361.3,130.4c-3.6,3.6-3.6,9.5,0,13.1s9.5,3.6,13.1,0s3.6-9.5,0-13.1c-1.7-1.7-4.1-2.7-6.6-2.7
	C365.4,127.7,363.1,128.7,361.3,130.4z"/>
<path d="M180.3,127.8c-5.1,0-9.3,4.2-9.3,9.3s4.2,9.3,9.3,9.3h6.8c5.1,0,9.3-4.2,9.3-9.3c0-5.1-4.2-9.3-9.3-9.3L180.3,127.8z"/>
<path d="M329.4,127.6c-5.1,0-9.3,4.2-9.3,9.3c0,5.1,4.2,9.3,9.3,9.3h6.8c5.1,0,9.3-4.2,9.3-9.3c0-5.1-4.2-9.3-9.3-9.3c0,0,0,0,0,0
	L329.4,127.6z"/>
<path d="M249,208.2v6.8c0,5.1,4.2,9.3,9.3,9.3c5.1,0,9.3-4.2,9.3-9.3c0,0,0,0,0,0v-6.8c0-5.1-4.2-9.3-9.3-9.3
	C253.2,198.9,249,203,249,208.2L249,208.2L249,208.2z"/>
<path d="M297.3,137c0-5.1-4.2-9.3-9.3-9.3h-20.5V66.1c0-5.1-4.2-9.3-9.3-9.3s-9.3,4.2-9.3,9.3l0,0V137c0,5.1,4.2,9.3,9.3,9.3H288
	C293.1,146.3,297.3,142.1,297.3,137z"/>
</svg>
