<?xml version="1.0" encoding="utf-8"?>
<!-- Generator: Adobe Illustrator 24.0.1, SVG Export Plug-In . SVG Version: 6.00 Build 0)  -->
<svg version="1.1" id="Capa_1" xmlns="http://www.w3.org/2000/svg" xmlns:xlink="http://www.w3.org/1999/xlink" x="0px" y="0px"
	 viewBox="0 0 514 514" style="enable-background:new 0 0 514 514;" xml:space="preserve">
<style type="text/css">
	.st0{fill:none;stroke:#000000;stroke-width:19;stroke-miterlimit:10;}
</style>
<title>iconos Tribunal</title>
<path d="M451.1,196.3h-55.9c-1.3,0-2.4,4.1-2.4,9.2s1.1,9.2,2.4,9.2h55.9c1.3,0,2.4-4.1,2.4-9.2S452.4,196.3,451.1,196.3z"/>
<path d="M430.8,250.7h-50.6c-1.2,0-2.1,4.1-2.1,9.2c0,5.1,1,9.2,2.1,9.2h50.6c1.2,0,2.1-4.1,2.1-9.2S431.9,250.7,430.8,250.7z"/>
<path d="M409.5,148.3h-22.8c-0.5,0-1,4.1-1,9.2s0.4,9.2,1,9.2h22.8c0.5,0,1-4.1,1-9.2S410.1,148.3,409.5,148.3z"/>
<path d="M461.7,23.6H133.3c-15.3,0-27.7,12.4-27.7,27.7v31.4c0,5.1,4.1,9.2,9.2,9.2s9.2-4.1,9.2-9.2V51.3c0-5.1,4.1-9.2,9.2-9.2
	h328.5c5.1,0,9.2,4.1,9.2,9.2v417c0,5.1-4.1,9.2-9.2,9.2H133.3c-5.1,0-9.2-4.1-9.2-9.2v-29.8c0-5.1-4.1-9.2-9.2-9.2
	s-9.2,4.1-9.2,9.2l0,0v29.8c0,15.3,12.4,27.7,27.7,27.7h328.5c15.3,0,27.7-12.4,27.7-27.7v-417C489.4,36,477,23.6,461.7,23.6z"/>
<path d="M417.3,379.7H195.9c-5.1,0-9.2,4.1-9.2,9.2s4.1,9.2,9.2,9.2l0,0h221.4c5.1,0,9.2-4.1,9.2-9.2
	C426.5,383.9,422.4,379.8,417.3,379.7z"/>
<path d="M417.3,427.7c-5.1,0-9.2,4.1-9.2,9.2s4.1,9.2,9.2,9.2s9.2-4.1,9.2-9.2c0-2.4-1-4.8-2.7-6.5
	C422.1,428.7,419.8,427.7,417.3,427.7z"/>
<path d="M195.9,427.7c-5.1,0-9.2,4.1-9.2,9.2s4.1,9.2,9.2,9.2h183.7c5.1,0,9.2-4.1,9.2-9.2s-4.1-9.2-9.2-9.2H195.9z"/>
<path d="M260.6,347.8c79.2,0,143.6-64.4,143.6-143.6S339.8,60.5,260.6,60.5S116.9,125,116.9,204.2c0,44.1,20.3,85.8,55,113l-107,107
	c-6.7,6.7-17.6,6.7-24.3,0s-6.7-17.6,0-24.3l0,0l54.8-54.8c3.6-3.6,3.6-9.4,0-13s-9.4-3.6-13,0l-54.8,54.8
	c-13.9,13.9-13.9,36.5,0,50.4s36.5,13.9,50.4,0l109.5-109.5C209.6,340.9,234.8,347.8,260.6,347.8z M135.4,204.2
	c0-69.1,56-125.2,125.2-125.2s125.2,56,125.2,125.2c0,69.1-56,125.2-125.2,125.2C191.5,329.3,135.5,273.3,135.4,204.2z"/>
<path d="M124.3,316.1c3.6-3.6,3.6-9.4,0-13s-9.4-3.6-13,0s-3.6,9.4,0,13c1.7,1.7,4.1,2.7,6.5,2.7
	C120.2,318.8,122.6,317.8,124.3,316.1z"/>
<circle class="st0" cx="260.5" cy="205" r="93.5"/>
<path d="M338.6,148.7h-93.4c-2.1,0-3.9,4.1-3.9,9.2s1.7,9.2,3.9,9.2h93.4c2.1,0,3.9-4.1,3.9-9.2S340.8,148.7,338.6,148.7z"/>
<path d="M333.3,250.7H208.5c-2.9,0-5.2,4.1-5.2,9.2c0,5.1,2.3,9.2,5.2,9.2h124.8c2.9,0,5.2-4.1,5.2-9.2S336.2,250.7,333.3,250.7z"/>
<path d="M353.9,196.3H229.1c-2.9,0-5.2,4.1-5.2,9.2s2.3,9.2,5.2,9.2h124.8c2.9,0,5.2-4.1,5.2-9.2S356.8,196.3,353.9,196.3z"/>
</svg>
