<?xml version="1.0" encoding="utf-8"?>
<!-- Generator: Adobe Illustrator 24.0.1, SVG Export Plug-In . SVG Version: 6.00 Build 0)  -->
<svg version="1.1" id="Capa_1" xmlns="http://www.w3.org/2000/svg" xmlns:xlink="http://www.w3.org/1999/xlink" x="0px" y="0px"
	 viewBox="0 0 514 514" style="enable-background:new 0 0 514 514;" xml:space="preserve">
<title>iconos Tribunal</title>
<path d="M356.9,424H83c-15.4,0-27.9-12.5-28-28V223c0-5.1,4.2-9.3,9.3-9.3s9.3,4.2,9.3,9.3l0,0v173c0,5.1,4.2,9.3,9.3,9.3h273.9
	c5.1,0,9.3-4.2,9.3-9.3V49.5c0-5.1-4.2-9.3-9.3-9.3H83c-5.1,0-9.3,4.2-9.3,9.3v95c0,5.1-4.2,9.3-9.3,9.3c-5.1,0-9.3-4.2-9.3-9.3v-95
	c0-15.4,12.5-27.9,28-28H357c15.4,0,27.9,12.5,28,28v346.6C384.8,411.5,372.3,424,356.9,424z"/>
<path d="M64.3,195.6c-5.1,0-9.3-4.2-9.3-9.3s4.2-9.3,9.3-9.3s9.3,4.2,9.3,9.3c0,2.5-1,4.8-2.7,6.6C69.2,194.6,66.8,195.6,64.3,195.6
	z"/>
<path d="M101.7,461.4c-5.1,0-9.3-4.2-9.3-9.3c0-5.1,4.2-9.3,9.3-9.3c5.1,0,9.3,4.2,9.3,9.3c0,2.5-1,4.8-2.7,6.6
	C106.5,460.4,104.1,461.4,101.7,461.4z"/>
<path d="M394.2,461.4H138.9c-5.1,0-9.3-4.2-9.3-9.3s4.2-9.3,9.3-9.3h255.3c5.1,0,9.3-4.2,9.3-9.3V68.2c0-5.1,4.2-9.3,9.3-9.3
	s9.3,4.2,9.3,9.3v365.2C422.2,448.9,409.7,461.4,394.2,461.4z"/>
<path d="M431.5,498.6H139c-5.1,0-9.3-4.2-9.3-9.3s4.2-9.3,9.3-9.3h292.6c5.1,0,9.3-4.2,9.3-9.3V105.4c0-5.1,4.2-9.3,9.3-9.3
	s9.3,4.2,9.3,9.3v365.2C459.5,486.1,447,498.6,431.5,498.6z"/>
<path d="M206,198.6h-89.4c-5.1,0-9.3-4.2-9.3-9.3V99.8c0-5.1,4.2-9.3,9.3-9.3H206c5.1,0,9.3,4.2,9.3,9.3v89.4
	C215.3,194.4,211.1,198.6,206,198.6z M125.8,179.9h70.8v-70.8h-70.8V179.9z"/>
<path d="M138,288.1L138,288.1c-2.5,0-4.8-1-6.6-2.7l-18.1-18.1c-3.6-3.6-3.6-9.5,0-13.2c3.6-3.6,9.5-3.6,13.2,0l11.5,11.5l24.8-24.8
	c3.6-3.6,9.5-3.6,13.2,0c3.6,3.6,3.6,9.5,0,13.2l-31.4,31.4C142.9,287.2,140.5,288.1,138,288.1z"/>
<path d="M328.6,272.2H219.9c-5.1,0-9.3-4.2-9.3-9.3c0-5.1,4.2-9.3,9.3-9.3l0,0h108.7c5.1,0,9.3,4.2,9.3,9.3
	C337.9,268,333.8,272.2,328.6,272.2z"/>
<path d="M323.4,109.1h-65.2c-5.1,0-9.3-4.2-9.3-9.3c0-5.1,4.2-9.3,9.3-9.3h65.2c5.1,0,9.3,4.2,9.3,9.3
	C332.7,105,328.5,109.1,323.4,109.1z"/>
<path d="M323.4,153.9h-65.2c-5.1,0-9.3-4.2-9.3-9.3s4.2-9.3,9.3-9.3h65.2c5.1,0,9.3,4.2,9.3,9.3S328.5,153.9,323.4,153.9
	L323.4,153.9z"/>
<path d="M323.4,198.6h-65.2c-5.1,0-9.3-4.2-9.3-9.3s4.2-9.3,9.3-9.3h65.2c5.1,0,9.3,4.2,9.3,9.3S328.5,198.6,323.4,198.6z"/>
<path d="M138,359.3L138,359.3c-2.5,0-4.8-1-6.6-2.7l-18.1-18.1c-3.6-3.6-3.6-9.5,0-13.2c3.6-3.6,9.5-3.6,13.2,0l11.5,11.5l24.8-24.8
	c3.6-3.6,9.5-3.6,13.2,0c3.6,3.6,3.6,9.5,0,13.2l0,0l-31.4,31.4C142.9,358.3,140.5,359.3,138,359.3z"/>
<path d="M328.6,343H219.9c-5.1,0-9.3-4.2-9.3-9.3c0-5.1,4.2-9.3,9.3-9.3l0,0h108.7c5.1,0,9.3,4.2,9.3,9.3
	C337.9,338.8,333.8,343,328.6,343z"/>
</svg>
