<svg xmlns="http://www.w3.org/2000/svg" viewBox="0 0 175.94 70.54"><defs><style>.cls-1{font-size:63.24px;font-family:Montserrat-Regular, Montserrat;}.cls-2,.cls-3{fill:none;stroke:#000;stroke-miterlimit:10;}.cls-2{stroke-width:7px;}.cls-3{stroke-width:5px;}</style></defs><title>Recurso 6</title><g id="Capa_2" data-name="Capa 2"><g id="Capa_1-2" data-name="Capa 1"><text class="cls-1" transform="translate(0 53.75) scale(0.96 1)">H</text><line class="cls-2" x1="39.5" y1="2.79" x2="39.5" y2="54.18"/><line class="cls-3" x1="13.64" y1="4.41" x2="66.64" y2="4.41"/><text class="cls-1" transform="translate(39.06 53.97) scale(0.94 1)">C</text><path d="M96.29,1.39v8.4H94.35V6.35H90.53V9.79H88.59V1.39h1.94V4.71h3.82V1.39Z"/><path d="M100,9.37a4.09,4.09,0,0,1-1.64-1.55,4.21,4.21,0,0,1-.6-2.23A4.23,4.23,0,0,1,100,1.81a5,5,0,0,1,2.36-.56,4.92,4.92,0,0,1,2.35.56,4.27,4.27,0,0,1,1.65,1.56,4.2,4.2,0,0,1,.6,2.22,4.18,4.18,0,0,1-2.25,3.78,4.81,4.81,0,0,1-2.35.57A4.87,4.87,0,0,1,100,9.37Zm3.7-1.43a2.55,2.55,0,0,0,1-1,2.93,2.93,0,0,0,.34-1.4,2.89,2.89,0,0,0-.34-1.39,2.48,2.48,0,0,0-1-1,2.81,2.81,0,0,0-2.68,0,2.48,2.48,0,0,0-1,1,2.89,2.89,0,0,0-.34,1.39,2.93,2.93,0,0,0,.34,1.4,2.55,2.55,0,0,0,1,1,2.81,2.81,0,0,0,2.68,0Z"/><path d="M116.11,1.39v8.4h-1.59l-4.19-5.1v5.1h-1.92V1.39H110l4.17,5.1V1.39Z"/><path d="M119.82,9.37a4.18,4.18,0,0,1-1.65-1.55,4.29,4.29,0,0,1-.59-2.23,4.18,4.18,0,0,1,2.24-3.78,5.23,5.23,0,0,1,4.71,0,4.32,4.32,0,0,1,1.64,1.56,4.2,4.2,0,0,1,.6,2.22,4.2,4.2,0,0,1-2.24,3.78,5.15,5.15,0,0,1-4.71,0Zm3.7-1.43a2.52,2.52,0,0,0,.94-1,2.82,2.82,0,0,0,.34-1.4,2.78,2.78,0,0,0-.34-1.39,2.45,2.45,0,0,0-.94-1,2.83,2.83,0,0,0-2.69,0,2.45,2.45,0,0,0-.94,1,2.79,2.79,0,0,0-.35,1.39,2.82,2.82,0,0,0,.35,1.4,2.52,2.52,0,0,0,.94,1,2.83,2.83,0,0,0,2.69,0Z"/><path d="M133.58,9.79,132,7.45h-1.78V9.79h-2V1.39h3.64a4.66,4.66,0,0,1,1.94.38,2.79,2.79,0,0,1,1.26,1,2.9,2.9,0,0,1,.45,1.62,2.88,2.88,0,0,1-.45,1.62,2.87,2.87,0,0,1-1.28,1l1.88,2.7Zm-.49-6.43A2,2,0,0,0,131.76,3h-1.58V5.91h1.58a2,2,0,0,0,1.33-.39,1.3,1.3,0,0,0,.46-1.08A1.3,1.3,0,0,0,133.09,3.36Z"/><path d="M142.59,8h-3.9l-.75,1.8h-2l3.74-8.4h1.92l3.76,8.4h-2ZM142,6.52,140.64,3.3l-1.33,3.22Z"/><path d="M153.54,6.19A2.09,2.09,0,0,1,154,7.5a2,2,0,0,1-.86,1.7,4.36,4.36,0,0,1-2.5.59h-4.34V1.39h4.1a4.05,4.05,0,0,1,2.36.59,1.89,1.89,0,0,1,.82,1.6,2.09,2.09,0,0,1-.29,1.09,2.18,2.18,0,0,1-.83.76A2.17,2.17,0,0,1,153.54,6.19Zm-5.36-3.33v2h1.93a2,2,0,0,0,1.09-.25.85.85,0,0,0,.37-.75.83.83,0,0,0-.37-.74,2,2,0,0,0-1.09-.24Zm3.42,5.22A.87.87,0,0,0,152,7.3c0-.7-.51-1-1.54-1h-2.27V8.33h2.27A2.11,2.11,0,0,0,151.6,8.08Z"/><path d="M155.43,1.39h1.94V8.21h4.21V9.79h-6.15Z"/><path d="M169.18,8.23V9.79h-6.51V1.39H169V3H164.6V4.78h3.9V6.29h-3.9V8.23Z"/><path d="M90.33,17.38H87.64V15.79H95v1.59H92.27v6.81H90.33Z"/><path d="M101.35,24.19l-1.62-2.34H98v2.34H96v-8.4h3.64a4.66,4.66,0,0,1,1.94.38,2.85,2.85,0,0,1,1.26,1,3.14,3.14,0,0,1,0,3.24,2.87,2.87,0,0,1-1.28,1l1.88,2.7Zm-.49-6.43a2,2,0,0,0-1.33-.38H98v2.93h1.58a2,2,0,0,0,1.33-.39,1.5,1.5,0,0,0,0-2.16Z"/><path d="M104.82,15.79h2v8.4h-2Z"/><path d="M116.05,20.59a2,2,0,0,1,.41,1.31,1.93,1.93,0,0,1-.86,1.7,4.34,4.34,0,0,1-2.5.59h-4.34v-8.4h4.1a4,4,0,0,1,2.36.59A1.86,1.86,0,0,1,116,18a2.09,2.09,0,0,1-.29,1.09,2.15,2.15,0,0,1-.82.76A2.15,2.15,0,0,1,116.05,20.59Zm-5.36-3.33v2h1.93a2,2,0,0,0,1.09-.25.85.85,0,0,0,.38-.75.84.84,0,0,0-.38-.74,2,2,0,0,0-1.09-.24Zm3.43,5.22a.87.87,0,0,0,.39-.78c0-.7-.52-1.05-1.55-1.05h-2.27v2.08H113A2.15,2.15,0,0,0,114.12,22.48Z"/><path d="M118.87,23.34a3.81,3.81,0,0,1-1-2.84V15.79h1.94v4.64c0,1.5.62,2.25,1.87,2.25a1.76,1.76,0,0,0,1.39-.54,2.57,2.57,0,0,0,.48-1.71V15.79h1.92V20.5a4,4,0,0,1-6.6,2.84Z"/><path d="M135.1,15.79v8.4h-1.6l-4.19-5.1v5.1h-1.92v-8.4H129l4.18,5.1v-5.1Z"/><path d="M142.62,22.39h-3.9l-.74,1.8h-2l3.74-8.4h1.92l3.76,8.4h-2ZM142,20.92l-1.33-3.22-1.33,3.22Z"/><path d="M146.28,15.79h1.95v6.82h4.21v1.58h-6.16Z"/><path d="M88.59,30.19H92.4a5.35,5.35,0,0,1,2.42.53,3.81,3.81,0,0,1,1.63,1.47,4.48,4.48,0,0,1,0,4.41,3.94,3.94,0,0,1-1.63,1.47,5.35,5.35,0,0,1-2.42.52H88.59ZM92.31,37a2.86,2.86,0,0,0,2-.7,2.79,2.79,0,0,0,0-3.81,2.81,2.81,0,0,0-2-.7H90.53V37Z"/><path d="M105,37v1.56H98.5v-8.4h6.35v1.56h-4.42v1.83h3.9v1.51h-3.9V37Z"/><path d="M111.64,38.18A4.19,4.19,0,0,1,110,36.63a4.53,4.53,0,0,1,0-4.47,4.19,4.19,0,0,1,1.63-1.55,4.88,4.88,0,0,1,2.34-.56,5,5,0,0,1,2,.38,4,4,0,0,1,1.48,1.11l-1.24,1.15a2.69,2.69,0,0,0-2.12-1,2.78,2.78,0,0,0-1.39.34,2.41,2.41,0,0,0-1,1,2.79,2.79,0,0,0-.35,1.39,2.82,2.82,0,0,0,.35,1.4,2.48,2.48,0,0,0,1,1,2.78,2.78,0,0,0,1.39.34,2.7,2.7,0,0,0,2.12-1l1.24,1.15A3.79,3.79,0,0,1,116,38.35a4.94,4.94,0,0,1-2,.39A4.85,4.85,0,0,1,111.64,38.18Z"/><path d="M119.6,37.74a3.81,3.81,0,0,1-1-2.84V30.19h1.94v4.64c0,1.5.63,2.25,1.87,2.25a1.76,1.76,0,0,0,1.39-.54,2.51,2.51,0,0,0,.49-1.71V30.19h1.92V34.9a3.82,3.82,0,0,1-1,2.84,4.42,4.42,0,0,1-5.6,0Z"/><path d="M134.63,37v1.56h-6.5v-8.4h6.34v1.56h-4.41v1.83H134v1.51h-3.9V37Z"/><path d="M143.88,30.19v8.4h-1.6l-4.18-5.1v5.1h-1.92v-8.4h1.6l4.18,5.1v-5.1Z"/><path d="M147.61,31.78h-2.69V30.19h7.33v1.59h-2.69v6.81h-1.95Z"/><path d="M158.4,36.79h-3.9l-.74,1.8h-2l3.75-8.4h1.92l3.75,8.4h-2Zm-.61-1.47-1.33-3.22-1.33,3.22Z"/><path d="M162.9,38.47a4.76,4.76,0,0,1-1.5-.7l.66-1.47a4.32,4.32,0,0,0,1.29.64,4.77,4.77,0,0,0,1.48.24,2.33,2.33,0,0,0,1.23-.25.74.74,0,0,0,.39-.65.61.61,0,0,0-.23-.5,1.9,1.9,0,0,0-.6-.32c-.24-.08-.58-.17-1-.26a13.67,13.67,0,0,1-1.57-.46A2.47,2.47,0,0,1,162,34a1.93,1.93,0,0,1-.44-1.34,2.31,2.31,0,0,1,.4-1.33,2.6,2.6,0,0,1,1.19-.94,4.89,4.89,0,0,1,2-.35,6.31,6.31,0,0,1,1.57.19,4.84,4.84,0,0,1,1.35.55l-.6,1.48a4.72,4.72,0,0,0-2.33-.66,2.24,2.24,0,0,0-1.21.26.81.81,0,0,0-.39.7.68.68,0,0,0,.45.64,7.27,7.27,0,0,0,1.38.42,13.9,13.9,0,0,1,1.57.45,2.54,2.54,0,0,1,1,.72,1.94,1.94,0,0,1,.44,1.33,2.31,2.31,0,0,1-.41,1.32,2.75,2.75,0,0,1-1.2.94,5,5,0,0,1-2,.35A6.85,6.85,0,0,1,162.9,38.47Z"/><path d="M90.58,48a1.38,1.38,0,0,1,.86,1.34,1.44,1.44,0,0,1-.22.8,1.4,1.4,0,0,1-.64.53,2.35,2.35,0,0,1-1,.18h-.85v1.16h-1v-4.2h1.82A2.19,2.19,0,0,1,90.58,48Zm-.35,1.87a.65.65,0,0,0,.23-.53.69.69,0,0,0-.23-.55,1.07,1.07,0,0,0-.67-.19h-.79V50.1h.79A1,1,0,0,0,90.23,49.91Z"/><path d="M94.81,52.05,94,50.88h-.9v1.17h-1v-4.2H94a2.27,2.27,0,0,1,1,.19,1.43,1.43,0,0,1,.63.53,1.58,1.58,0,0,1,0,1.61,1.44,1.44,0,0,1-.64.52l.94,1.35Zm-.25-3.22a1,1,0,0,0-.67-.19H93.1v1.47h.79a1,1,0,0,0,.67-.19.68.68,0,0,0,.23-.54A.69.69,0,0,0,94.56,48.83Z"/><path d="M97.39,51.84a2.12,2.12,0,0,1-.82-.78,2.27,2.27,0,0,1,0-2.22,2.12,2.12,0,0,1,.82-.78,2.48,2.48,0,0,1,1.18-.28,2.42,2.42,0,0,1,1.18.28,2.12,2.12,0,0,1,.82.78,2.2,2.2,0,0,1,0,2.22,2.12,2.12,0,0,1-.82.78,2.42,2.42,0,0,1-1.18.28A2.48,2.48,0,0,1,97.39,51.84Zm1.86-.71a1.35,1.35,0,0,0,.47-.48,1.48,1.48,0,0,0,.17-.7,1.41,1.41,0,0,0-.17-.69,1.21,1.21,0,0,0-.47-.48,1.43,1.43,0,0,0-1.35,0,1.15,1.15,0,0,0-.47.48,1.41,1.41,0,0,0-.17.69,1.48,1.48,0,0,0,.17.7,1.27,1.27,0,0,0,.47.48,1.43,1.43,0,0,0,1.35,0Z"/><path d="M105.5,47.85l-1.81,4.2h-1l-1.82-4.2h1l1.28,3,1.3-3Z"/><path d="M105.85,47.85h1v4.2h-1Z"/><path d="M111.67,47.85v4.2h-.8l-2.09-2.55v2.55h-1v-4.2h.8l2.09,2.55V47.85Z"/><path d="M113.52,51.84a2,2,0,0,1-.82-.77,2.11,2.11,0,0,1-.3-1.12,2.13,2.13,0,0,1,.3-1.12,2,2,0,0,1,.82-.77,2.34,2.34,0,0,1,1.16-.28,2.4,2.4,0,0,1,1,.19,2,2,0,0,1,.74.55l-.62.58a1.35,1.35,0,0,0-1.06-.49,1.31,1.31,0,0,0-.69.17,1.11,1.11,0,0,0-.48.48,1.41,1.41,0,0,0-.17.69,1.48,1.48,0,0,0,.17.7,1.23,1.23,0,0,0,.48.48,1.41,1.41,0,0,0,.69.17,1.36,1.36,0,0,0,1.06-.5l.62.57a1.94,1.94,0,0,1-.74.56,2.46,2.46,0,0,1-1,.19A2.34,2.34,0,0,1,113.52,51.84Z"/><path d="M117.07,47.85h1v4.2h-1Z"/><path d="M121.8,51.15h-2l-.37.9h-1l1.87-4.2h1l1.88,4.2h-1Zm-.31-.74-.66-1.6-.67,1.6Z"/><path d="M125.33,47.85h1.91a2.71,2.71,0,0,1,1.2.26,2,2,0,0,1,.82.74,2.07,2.07,0,0,1,.29,1.1,2.14,2.14,0,0,1-.29,1.11,1.94,1.94,0,0,1-.82.73,2.71,2.71,0,0,1-1.2.26h-1.91Zm1.86,3.4a1.37,1.37,0,0,0,1-.35,1.38,1.38,0,0,0,0-1.9,1.42,1.42,0,0,0-1-.35h-.89v2.6Z"/><path d="M133.54,51.27v.78h-3.26v-4.2h3.18v.78h-2.21v.91h1.95v.76h-1.95v1Z"/><path d="M136.86,51.84a2,2,0,0,1-.82-.77,2.11,2.11,0,0,1-.3-1.12,2.13,2.13,0,0,1,.3-1.12,2,2,0,0,1,.82-.77,2.34,2.34,0,0,1,1.16-.28,2.4,2.4,0,0,1,1,.19,2,2,0,0,1,.74.55l-.62.58a1.35,1.35,0,0,0-1.06-.49,1.31,1.31,0,0,0-.69.17,1.11,1.11,0,0,0-.48.48,1.31,1.31,0,0,0-.17.69,1.37,1.37,0,0,0,.17.7,1.23,1.23,0,0,0,.48.48,1.41,1.41,0,0,0,.69.17,1.36,1.36,0,0,0,1.06-.5l.62.57a1.94,1.94,0,0,1-.74.56,2.46,2.46,0,0,1-1,.19A2.34,2.34,0,0,1,136.86,51.84Z"/><path d="M141.17,51.84a2.12,2.12,0,0,1-.82-.78,2.2,2.2,0,0,1,0-2.22,2.12,2.12,0,0,1,.82-.78,2.63,2.63,0,0,1,2.36,0,2.19,2.19,0,0,1,.82.78,2.2,2.2,0,0,1,0,2.22,2.19,2.19,0,0,1-.82.78,2.63,2.63,0,0,1-2.36,0Zm1.85-.71a1.27,1.27,0,0,0,.47-.48,1.37,1.37,0,0,0,.17-.7,1.31,1.31,0,0,0-.17-.69,1.15,1.15,0,0,0-.47-.48,1.41,1.41,0,0,0-1.34,0,1.15,1.15,0,0,0-.47.48A1.31,1.31,0,0,0,141,50a1.37,1.37,0,0,0,.17.7,1.27,1.27,0,0,0,.47.48,1.41,1.41,0,0,0,1.34,0Z"/><path d="M148.05,52.05l-.8-1.17h-.9v1.17h-1v-4.2h1.82a2.27,2.27,0,0,1,1,.19,1.43,1.43,0,0,1,.63.53,1.58,1.58,0,0,1,0,1.61,1.44,1.44,0,0,1-.64.52l.94,1.35Zm-.24-3.22a1.07,1.07,0,0,0-.67-.19h-.79v1.47h.79a1.07,1.07,0,0,0,.67-.19.68.68,0,0,0,.23-.54A.69.69,0,0,0,147.81,48.83Z"/><path d="M152.46,52.05l-.8-1.17h-.9v1.17h-1v-4.2h1.82a2.27,2.27,0,0,1,1,.19,1.43,1.43,0,0,1,.63.53,1.58,1.58,0,0,1,0,1.61,1.44,1.44,0,0,1-.64.52l.94,1.35Zm-.24-3.22a1.07,1.07,0,0,0-.67-.19h-.79v1.47h.79a1.07,1.07,0,0,0,.67-.19.68.68,0,0,0,.23-.54A.69.69,0,0,0,152.22,48.83Z"/><path d="M154.2,47.85h1v4.2h-1Z"/><path d="M159.42,51.27v.78h-3.25v-4.2h3.17v.78h-2.21v.91h2v.76h-2v1Z"/><path d="M164,47.85v4.2h-.79l-2.1-2.55v2.55h-1v-4.2H161l2.08,2.55V47.85Z"/><path d="M165.91,48.64h-1.34v-.79h3.66v.79h-1.35v3.41h-1Z"/><path d="M172,51.27v.78h-3.25v-4.2h3.17v.78h-2.21v.91h2v.76h-2v1Z"/><path d="M173.19,52a2.38,2.38,0,0,1-.75-.35l.33-.73a2.31,2.31,0,0,0,.65.31,2.34,2.34,0,0,0,.74.12,1.19,1.19,0,0,0,.61-.12.38.38,0,0,0,.2-.33.32.32,0,0,0-.12-.25.84.84,0,0,0-.3-.15c-.12,0-.28-.09-.49-.14a7.53,7.53,0,0,1-.79-.22,1.28,1.28,0,0,1-.52-.37,1,1,0,0,1-.22-.67,1.13,1.13,0,0,1,.2-.67,1.42,1.42,0,0,1,.59-.47,2.57,2.57,0,0,1,1-.17,2.88,2.88,0,0,1,.78.1,2.3,2.3,0,0,1,.68.27l-.3.74a2.36,2.36,0,0,0-1.17-.33,1.07,1.07,0,0,0-.6.13.42.42,0,0,0-.2.35.35.35,0,0,0,.23.32,3.64,3.64,0,0,0,.69.21,5,5,0,0,1,.78.23,1.2,1.2,0,0,1,.53.36,1,1,0,0,1,.22.66,1.19,1.19,0,0,1-.2.66,1.41,1.41,0,0,1-.61.47,2.39,2.39,0,0,1-1,.17A3.42,3.42,0,0,1,173.19,52Z"/></g></g></svg>