<svg xmlns="http://www.w3.org/2000/svg" viewBox="0 0 263.62 70.54"><defs><style>.cls-1{font-size:63.24px;font-family:Montserrat-Regular, Montserrat;}.cls-1,.cls-2,.cls-3,.cls-4{fill:#fff;}.cls-2,.cls-3{stroke:#fff;stroke-miterlimit:10;}.cls-2{stroke-width:7px;}.cls-3{stroke-width:5px;}</style></defs><title>logo-white</title><g id="Capa_2" data-name="Capa 2"><g id="Capa_1-2" data-name="Capa 1"><text class="cls-1" transform="translate(0 53.75) scale(0.96 1)">H</text><line class="cls-2" x1="39.5" y1="2.79" x2="39.5" y2="54.18"/><line class="cls-3" x1="13.64" y1="4.41" x2="66.64" y2="4.41"/><text class="cls-1" transform="translate(39.06 53.97) scale(0.94 1)">C</text><path class="cls-4" d="M98.32,3.21V13H96.05V9H91.6v4H89.33V3.21H91.6V7.07h4.45V3.21Z"/><path class="cls-4" d="M102.64,12.52a4.86,4.86,0,0,1-1.92-1.81,5,5,0,0,1-.69-2.6,5,5,0,0,1,.69-2.6,4.86,4.86,0,0,1,1.92-1.81A5.7,5.7,0,0,1,105.39,3a5.64,5.64,0,0,1,2.74.66,4.89,4.89,0,0,1,2.62,4.41,4.89,4.89,0,0,1-2.62,4.41,5.64,5.64,0,0,1-2.74.66A5.7,5.7,0,0,1,102.64,12.52ZM107,10.85a3,3,0,0,0,1.1-1.12,3.3,3.3,0,0,0,.4-1.62,3.3,3.3,0,0,0-.4-1.62A3,3,0,0,0,107,5.37a3.28,3.28,0,0,0-3.14,0,3,3,0,0,0-1.1,1.12,3.3,3.3,0,0,0-.4,1.62,3.3,3.3,0,0,0,.4,1.62,3,3,0,0,0,1.1,1.12,3.28,3.28,0,0,0,3.14,0Z"/><path class="cls-4" d="M121.45,3.21V13h-1.86L114.7,7.06v6h-2.24V3.21h1.88l4.87,6V3.21Z"/><path class="cls-4" d="M125.77,12.52a4.86,4.86,0,0,1-1.92-1.81,5,5,0,0,1-.69-2.6,5,5,0,0,1,.69-2.6,4.86,4.86,0,0,1,1.92-1.81,6,6,0,0,1,5.49,0,5,5,0,0,1,1.92,1.81,4.9,4.9,0,0,1,.7,2.6,4.9,4.9,0,0,1-.7,2.6,5,5,0,0,1-1.92,1.81,6,6,0,0,1-5.49,0Zm4.32-1.67a3,3,0,0,0,1.1-1.12,3.29,3.29,0,0,0,.39-1.62,3.29,3.29,0,0,0-.39-1.62,3,3,0,0,0-1.1-1.12,3.28,3.28,0,0,0-3.14,0,2.89,2.89,0,0,0-1.1,1.12,3.19,3.19,0,0,0-.4,1.62,3.19,3.19,0,0,0,.4,1.62,2.89,2.89,0,0,0,1.1,1.12,3.28,3.28,0,0,0,3.14,0Z"/><path class="cls-4" d="M141.83,13l-1.89-2.73h-2.08V13h-2.27V3.21h4.24a5.43,5.43,0,0,1,2.26.43,3.36,3.36,0,0,1,1.48,1.24,3.43,3.43,0,0,1,.52,1.89,3.2,3.2,0,0,1-2,3.09l2.2,3.15Zm-.57-7.51a2.35,2.35,0,0,0-1.55-.44h-1.85V8.47h1.85A2.41,2.41,0,0,0,141.26,8a1.57,1.57,0,0,0,.53-1.26A1.57,1.57,0,0,0,141.26,5.5Z"/><path class="cls-4" d="M152.33,10.91h-4.55l-.86,2.1h-2.33L149,3.21h2.24l4.38,9.8H153.2Zm-.71-1.72-1.56-3.75-1.55,3.75Z"/><path class="cls-4" d="M165.11,8.8a2.46,2.46,0,0,1,.48,1.54,2.28,2.28,0,0,1-1,2,5.14,5.14,0,0,1-2.92.69H156.6V3.21h4.79a4.67,4.67,0,0,1,2.75.69,2.15,2.15,0,0,1,1,1.86A2.37,2.37,0,0,1,164.76,7a2.34,2.34,0,0,1-1,.88A2.59,2.59,0,0,1,165.11,8.8Zm-6.25-3.88V7.23h2.25a2.23,2.23,0,0,0,1.27-.3,1,1,0,0,0,.44-.86,1,1,0,0,0-.44-.87,2.32,2.32,0,0,0-1.27-.28Zm4,6.09a1,1,0,0,0,.46-.91c0-.81-.6-1.22-1.81-1.22h-2.64V11.3h2.64A2.55,2.55,0,0,0,162.85,11Z"/><path class="cls-4" d="M167.31,3.21h2.27v8h4.91V13h-7.18Z"/><path class="cls-4" d="M183.36,11.19V13h-7.59V3.21h7.4V5H178V7.16h4.55V8.92H178v2.27Z"/><path class="cls-4" d="M191.15,5.06H188V3.21h8.54V5.06h-3.14v8h-2.27Z"/><path class="cls-4" d="M204,13l-1.89-2.73H200V13h-2.26V3.21H202a5.43,5.43,0,0,1,2.26.43,3.36,3.36,0,0,1,1.48,1.24,3.42,3.42,0,0,1,.51,1.89,3.34,3.34,0,0,1-.52,1.88,3.33,3.33,0,0,1-1.49,1.21l2.2,3.15Zm-.57-7.51a2.38,2.38,0,0,0-1.56-.44H200V8.47h1.85A2.44,2.44,0,0,0,203.45,8,1.57,1.57,0,0,0,204,6.77,1.57,1.57,0,0,0,203.45,5.5Z"/><path class="cls-4" d="M208.07,3.21h2.26V13h-2.26Z"/><path class="cls-4" d="M221.17,8.8a2.46,2.46,0,0,1,.48,1.54,2.28,2.28,0,0,1-1,2,5.11,5.11,0,0,1-2.91.69h-5.07V3.21h4.79a4.67,4.67,0,0,1,2.75.69,2.17,2.17,0,0,1,1,1.86A2.38,2.38,0,0,1,220.81,7a2.34,2.34,0,0,1-1,.88A2.66,2.66,0,0,1,221.17,8.8Zm-6.26-3.88V7.23h2.26a2.23,2.23,0,0,0,1.27-.3,1,1,0,0,0,.43-.86,1,1,0,0,0-.43-.87,2.32,2.32,0,0,0-1.27-.28Zm4,6.09a1,1,0,0,0,.45-.91c0-.81-.6-1.22-1.8-1.22h-2.65V11.3h2.65A2.6,2.6,0,0,0,218.91,11Z"/><path class="cls-4" d="M224.45,12a4.48,4.48,0,0,1-1.17-3.32V3.21h2.27v5.4q0,2.64,2.19,2.64a2.06,2.06,0,0,0,1.62-.64,3,3,0,0,0,.56-2V3.21h2.24V8.7A4.48,4.48,0,0,1,231,12a5.19,5.19,0,0,1-6.54,0Z"/><path class="cls-4" d="M243.39,3.21V13h-1.86l-4.89-5.95v6H234.4V3.21h1.88l4.87,6V3.21Z"/><path class="cls-4" d="M252.17,10.91h-4.55l-.87,2.1h-2.33l4.37-9.8H251l4.38,9.8H253Zm-.72-1.72L249.9,5.44l-1.56,3.75Z"/><path class="cls-4" d="M256.44,3.21h2.26v8h4.92V13h-7.18Z"/><path class="cls-4" d="M89.33,20h4.46a6.22,6.22,0,0,1,2.82.61,4.57,4.57,0,0,1,1.9,1.71,5.23,5.23,0,0,1,0,5.16,4.64,4.64,0,0,1-1.9,1.71,6.22,6.22,0,0,1-2.82.61H89.33ZM93.67,28A3.34,3.34,0,0,0,96,27.13a2.91,2.91,0,0,0,.87-2.22A2.91,2.91,0,0,0,96,22.69a3.3,3.3,0,0,0-2.35-.82H91.6V28Z"/><path class="cls-4" d="M108.48,28v1.82H100.9V20h7.4v1.82h-5.15V24h4.55v1.76h-4.55V28Z"/><path class="cls-4" d="M116.23,29.33a4.94,4.94,0,0,1-1.9-1.81,5.28,5.28,0,0,1,0-5.22,4.94,4.94,0,0,1,1.9-1.81,6.08,6.08,0,0,1,5-.2A4.63,4.63,0,0,1,123,21.58l-1.46,1.34a3.14,3.14,0,0,0-2.46-1.15,3.36,3.36,0,0,0-1.63.4,2.91,2.91,0,0,0-1.11,1.12,3.48,3.48,0,0,0,0,3.24,2.91,2.91,0,0,0,1.11,1.12,3.36,3.36,0,0,0,1.63.4,3.1,3.1,0,0,0,2.46-1.17L123,28.23a4.58,4.58,0,0,1-1.74,1.3,6.05,6.05,0,0,1-5-.2Z"/><path class="cls-4" d="M125.52,28.82a4.48,4.48,0,0,1-1.17-3.32V20h2.26v5.4q0,2.64,2.19,2.64a2,2,0,0,0,1.62-.64,3,3,0,0,0,.56-2V20h2.24V25.5a4.48,4.48,0,0,1-1.17,3.32,5.17,5.17,0,0,1-6.53,0Z"/><path class="cls-4" d="M143.05,28v1.82h-7.59V20h7.41v1.82h-5.15V24h4.55v1.76h-4.55V28Z"/><path class="cls-4" d="M153.84,20v9.8H152l-4.88-5.95v5.95h-2.24V20h1.87L151.6,26V20Z"/><path class="cls-4" d="M158.2,21.86h-3.14V20h8.54v1.85h-3.13v8H158.2Z"/><path class="cls-4" d="M170.78,27.71h-4.55l-.86,2.1H163l4.37-9.8h2.24l4.38,9.8h-2.38ZM170.07,26l-1.55-3.75L167,26Z"/><path class="cls-4" d="M176,29.66a5.18,5.18,0,0,1-1.75-.82l.77-1.7a5.53,5.53,0,0,0,1.5.74,5.86,5.86,0,0,0,1.74.28,2.81,2.81,0,0,0,1.43-.29.88.88,0,0,0,.46-.76.7.7,0,0,0-.28-.58,1.89,1.89,0,0,0-.69-.37,11.29,11.29,0,0,0-1.16-.31,17.53,17.53,0,0,1-1.83-.53,3,3,0,0,1-1.23-.86,2.3,2.3,0,0,1-.51-1.57,2.68,2.68,0,0,1,.46-1.54,3.06,3.06,0,0,1,1.39-1.1,5.74,5.74,0,0,1,2.28-.41,7.46,7.46,0,0,1,1.83.23,5.17,5.17,0,0,1,1.57.64l-.7,1.72a5.48,5.48,0,0,0-2.71-.77,2.5,2.5,0,0,0-1.41.31.93.93,0,0,0-.46.81.79.79,0,0,0,.53.75,8.55,8.55,0,0,0,1.6.48,16,16,0,0,1,1.84.54,2.92,2.92,0,0,1,1.22.84,2.25,2.25,0,0,1,.51,1.55,2.61,2.61,0,0,1-.47,1.53,3.15,3.15,0,0,1-1.4,1.1,5.79,5.79,0,0,1-2.29.41A8,8,0,0,1,176,29.66Z"/><path class="cls-4" d="M95.4,40.36a2.92,2.92,0,0,1,0,4.29,3.88,3.88,0,0,1-2.56.78H90.76V48h-1.2v-8.4h3.28A3.88,3.88,0,0,1,95.4,40.36Zm-.86,3.54a1.92,1.92,0,0,0,0-2.79,2.67,2.67,0,0,0-1.74-.49h-2v3.77h2A2.67,2.67,0,0,0,94.54,43.9Z"/><path class="cls-4" d="M103.72,48l-1.81-2.58-.53,0H99.3V48H98.1v-8.4h3.28a3.9,3.9,0,0,1,2.57.78,2.65,2.65,0,0,1,.93,2.15,2.79,2.79,0,0,1-.48,1.65,2.69,2.69,0,0,1-1.36,1L105,48Zm-.64-4.07a1.72,1.72,0,0,0,.6-1.4,1.69,1.69,0,0,0-.6-1.4,2.67,2.67,0,0,0-1.74-.49h-2V44.4h2A2.67,2.67,0,0,0,103.08,43.91Z"/><path class="cls-4" d="M108.33,47.52a4.11,4.11,0,0,1-1.6-1.55,4.18,4.18,0,0,1-.59-2.19,4.24,4.24,0,0,1,.59-2.2,4.09,4.09,0,0,1,1.6-1.54,4.94,4.94,0,0,1,4.57,0,4.09,4.09,0,0,1,1.6,1.54,4.27,4.27,0,0,1-1.6,5.94,5,5,0,0,1-4.57,0Zm4-.93a3.18,3.18,0,0,0,1.17-1.16,3.45,3.45,0,0,0,0-3.3A3.18,3.18,0,0,0,112.28,41a3.28,3.28,0,0,0-1.66-.42A3.34,3.34,0,0,0,109,41a3.06,3.06,0,0,0-1.18,1.16,3.38,3.38,0,0,0,0,3.3A3.06,3.06,0,0,0,109,46.59a3.34,3.34,0,0,0,1.67.42A3.28,3.28,0,0,0,112.28,46.59Z"/><path class="cls-4" d="M123.94,39.58,120.26,48h-1.19l-3.7-8.4h1.3l3,6.9,3-6.9Z"/><path class="cls-4" d="M125,39.58h1.2V48H125Z"/><path class="cls-4" d="M136,39.58V48h-1l-5-6.27V48h-1.2v-8.4h1l5,6.26V39.58Z"/><path class="cls-4" d="M140,47.52a4.38,4.38,0,0,1-1.59-5.94A4.09,4.09,0,0,1,140,40a5,5,0,0,1,4.08-.23,3.7,3.7,0,0,1,1.39,1l-.78.76a3.11,3.11,0,0,0-2.36-1,3.39,3.39,0,0,0-1.69.42,3.09,3.09,0,0,0-1.19,1.16,3.45,3.45,0,0,0,0,3.3,3.09,3.09,0,0,0,1.19,1.16,3.39,3.39,0,0,0,1.69.42,3.15,3.15,0,0,0,2.36-1l.78.75a3.69,3.69,0,0,1-1.4,1,4.77,4.77,0,0,1-1.8.33A4.69,4.69,0,0,1,140,47.52Z"/><path class="cls-4" d="M147.15,39.58h1.2V48h-1.2Z"/><path class="cls-4" d="M156.22,45.88h-4.46l-.93,2.1H149.6l3.8-8.4h1.19L158.4,48h-1.26Zm-.42-1L154,40.8l-1.81,4.12Z"/><path class="cls-4" d="M162.88,39.58h3.54a5,5,0,0,1,2.36.53,3.82,3.82,0,0,1,1.6,1.48,4.16,4.16,0,0,1,.58,2.19,4.21,4.21,0,0,1-.58,2.19,3.88,3.88,0,0,1-1.6,1.48,5.13,5.13,0,0,1-2.36.53h-3.54Zm3.47,7.35a3.9,3.9,0,0,0,1.79-.39,2.91,2.91,0,0,0,1.19-1.11,3.12,3.12,0,0,0,.42-1.65,3.07,3.07,0,0,0-.42-1.65A2.78,2.78,0,0,0,168.14,41a3.78,3.78,0,0,0-1.79-.4h-2.27v6.31Z"/><path class="cls-4" d="M178.89,46.93v1h-6.1v-8.4h5.93v1H174V43.2h4.21v1H174v2.71Z"/><path class="cls-4" d="M185.54,47.52A4.13,4.13,0,0,1,184,46a4.53,4.53,0,0,1,0-4.4,4,4,0,0,1,1.6-1.54,4.69,4.69,0,0,1,2.28-.56,4.8,4.8,0,0,1,1.8.33,3.78,3.78,0,0,1,1.39,1l-.78.76a3.11,3.11,0,0,0-2.36-1,3.46,3.46,0,0,0-1.7.42A3.13,3.13,0,0,0,185,42.13a3.45,3.45,0,0,0,0,3.3,3.13,3.13,0,0,0,1.18,1.16,3.46,3.46,0,0,0,1.7.42,3.15,3.15,0,0,0,2.36-1l.78.75a3.76,3.76,0,0,1-1.4,1,4.82,4.82,0,0,1-1.81.33A4.65,4.65,0,0,1,185.54,47.52Z"/><path class="cls-4" d="M194.05,47.52a4.25,4.25,0,0,1-1.6-1.55,4.17,4.17,0,0,1-.58-2.19A4.16,4.16,0,0,1,194.05,40a4.75,4.75,0,0,1,2.3-.56,4.69,4.69,0,0,1,2.28.56,4,4,0,0,1,1.59,1.54,4.46,4.46,0,0,1,0,4.4,4.13,4.13,0,0,1-1.59,1.54,4.69,4.69,0,0,1-2.28.55A4.74,4.74,0,0,1,194.05,47.52Zm4-.93a3.08,3.08,0,0,0,1.16-1.16,3.38,3.38,0,0,0,0-3.3A3.08,3.08,0,0,0,198,41a3.3,3.3,0,0,0-1.66-.42,3.38,3.38,0,0,0-1.68.42,3,3,0,0,0-1.17,1.16,3.38,3.38,0,0,0,0,3.3,3,3,0,0,0,1.17,1.16,3.38,3.38,0,0,0,1.68.42A3.3,3.3,0,0,0,198,46.59Z"/><path class="cls-4" d="M208.25,48l-1.81-2.58-.53,0h-2.08V48h-1.2v-8.4h3.28a3.89,3.89,0,0,1,2.57.78,2.65,2.65,0,0,1,.94,2.15,2.8,2.8,0,0,1-.49,1.65,2.65,2.65,0,0,1-1.36,1l2,2.82Zm-.63-4.07a1.74,1.74,0,0,0,.59-1.4,1.71,1.71,0,0,0-.59-1.4,2.71,2.71,0,0,0-1.74-.49h-2V44.4h2A2.71,2.71,0,0,0,207.62,43.91Z"/><path class="cls-4" d="M217,48l-1.81-2.58-.53,0h-2.07V48h-1.2v-8.4h3.27a3.89,3.89,0,0,1,2.57.78,2.62,2.62,0,0,1,.94,2.15,2.79,2.79,0,0,1-.48,1.65,2.72,2.72,0,0,1-1.37,1l2,2.82Zm-.63-4.07a1.72,1.72,0,0,0,.6-1.4,1.69,1.69,0,0,0-.6-1.4,2.67,2.67,0,0,0-1.74-.49h-2V44.4h2A2.67,2.67,0,0,0,216.34,43.91Z"/><path class="cls-4" d="M220.08,39.58h1.2V48h-1.2Z"/><path class="cls-4" d="M229.9,46.93v1h-6.1v-8.4h5.93v1H225V43.2h4.21v1H225v2.71Z"/><path class="cls-4" d="M239.07,39.58V48h-1l-5-6.27V48h-1.2v-8.4h1l5,6.26V39.58Z"/><path class="cls-4" d="M243.25,40.62h-2.88v-1h6.95v1h-2.88V48h-1.19Z"/><path class="cls-4" d="M254.73,46.93v1h-6.1v-8.4h5.93v1h-4.73V43.2H254v1h-4.21v2.71Z"/><path class="cls-4" d="M257.29,47.78A3.88,3.88,0,0,1,255.9,47l.45-.94a3.64,3.64,0,0,0,1.23.7,4.5,4.5,0,0,0,1.54.27,2.77,2.77,0,0,0,1.56-.35,1.1,1.1,0,0,0,.51-.94.91.91,0,0,0-.28-.7,2,2,0,0,0-.69-.42c-.28-.09-.67-.2-1.17-.32a11.22,11.22,0,0,1-1.53-.46,2.49,2.49,0,0,1-1-.7,1.86,1.86,0,0,1-.41-1.28,2.12,2.12,0,0,1,.35-1.21,2.39,2.39,0,0,1,1.07-.86,4.3,4.3,0,0,1,1.79-.33,6,6,0,0,1,1.47.19,3.87,3.87,0,0,1,1.23.56l-.39,1a4.48,4.48,0,0,0-2.31-.69,2.65,2.65,0,0,0-1.53.37,1.14,1.14,0,0,0-.51,1,.94.94,0,0,0,.29.71,2,2,0,0,0,.71.42,11.29,11.29,0,0,0,1.16.31,14.13,14.13,0,0,1,1.53.46,2.53,2.53,0,0,1,1,.7,1.85,1.85,0,0,1,.41,1.26,2.12,2.12,0,0,1-.36,1.2,2.42,2.42,0,0,1-1.09.87,4.57,4.57,0,0,1-1.8.31A5.65,5.65,0,0,1,257.29,47.78Z"/></g></g></svg>