<?xml version="1.0" encoding="utf-8"?>
<!-- Generator: Adobe Illustrator 24.0.1, SVG Export Plug-In . SVG Version: 6.00 Build 0)  -->
<svg version="1.1" id="Capa_1" xmlns="http://www.w3.org/2000/svg" xmlns:xlink="http://www.w3.org/1999/xlink" x="0px" y="0px"
	 viewBox="0 0 1185 240.5" style="enable-background:new 0 0 1185 240.5;" xml:space="preserve">
<style type="text/css">
	.st0{fill:#FFFFFF;}
	.st1{fill:#1D1D1B;}
	.st2{fill:#FDD70B;}
	.st3{fill:none;stroke:#FDD70B;stroke-width:0.22;}
	.st4{fill:#21BCEF;}
	.st5{fill:#DB2625;}
	.st6{fill:#FAC48B;}
	.st7{fill:#8C733C;}
	.st8{fill:#C99E72;}
	.st9{fill:#77160F;}
	.st10{fill:#C0A675;}
	.st11{fill:none;stroke:#1D1D1B;stroke-width:0.4;}
	.st12{fill:#E52825;}
	.st13{fill:#287935;}
	.st14{fill:#8CC047;}
</style>
<title>logo-corrientes-negro</title>
<g>
	<path class="st0" d="M7,120.7C7,55.4,50.6,2.4,104.4,2.4s97.4,52.9,97.4,118.3S158.2,239,104.4,239S7,185.6,7,120.7"/>
	<path class="st1" d="M104.4,231.4c-50.7,0-91.1-49.8-91.1-111.2S54.1,9.1,104.4,9.1s91.1,49.8,91.1,111.2S154.6,231.4,104.4,231.4
		 M104.4,7.3C52.8,7.3,11,58,11,120.7s41.8,112.9,93.4,112.9s92.9-50.7,92.9-112.9S155.5,7.3,104.4,7.3L104.4,7.3z"/>
	<path class="st2" d="M102.6,72.7c-1.3,1.9-2.3,4-3.1,6.2c0.1,1.2-0.1,2.4-0.4,3.6v0.4c0-0.9-0.4-1.8-0.4-2.7
		c-0.1-1.4,0.2-2.8,0.9-4c0.3-1.5,0.1-3-0.4-4.4l-4.4,7.6l2.2-8.4l0,0c-1.9,1.1-3.6,2.6-4.9,4.4c-0.5,1.1-1.1,2.1-1.8,3.1l-0.4,0.4
		c0-0.9,0.4-1.8,0.4-2.7c0.5-1.3,1.2-2.5,2.2-3.6c0.7-1.2,1-2.6,0.9-4L86.1,74l5.3-6.7l0,0c-2.2,0.4-4.4,0.9-6.2,2.2
		c-0.8,0.9-1.7,1.6-2.7,2.2c-0.2,0-0.4,0.2-0.4,0.4c0,0,0,0,0,0l0,0c0,0,0,0,0,0c0.4-0.4,0.9-1.3,1.8-2.2c1.1-1,2.3-1.9,3.6-2.7
		c1.2-0.7,2.2-1.8,2.7-3.1l-8.4,2.2l7.1-4.4l0,0c-2.2-0.6-4.4-0.7-6.7-0.4c-1.1,0.5-2.3,0.8-3.6,0.9h-0.4c0.4-0.4,1.3-0.9,2.2-1.8
		c1.3-0.5,2.6-0.8,4-0.9c1.4-0.4,2.8-1,4-1.8l-8.4-1.3l8.4-1.3c-1.9-1.3-4-2.3-6.2-3.1c-1.2,0.1-2.4-0.1-3.6-0.4l-0.4-0.4
		c0.9,0,1.8-0.4,2.7-0.4c1.4-0.1,2.8,0.2,4,0.9c1.5,0.3,3,0.1,4.4-0.4l-7.6-4.4l8.4,2.2l0,0c-1.1-1.9-2.6-3.6-4.4-4.9
		c-1.2-0.3-2.2-0.9-3.1-1.8h-0.9c0.8,0.4,1.8,0.5,2.7,0.4c1.3,0.5,2.5,1.2,3.6,2.2c1.2,0.8,2.6,1.3,4,1.3L87,39.8l6.7,5.3l0,0
		c-0.4-2.2-0.9-4.4-2.2-6.2c-1-0.8-1.7-1.9-2.2-3.1v-0.4c0.4,0.4,1.3,0.9,2.2,1.8c1,1,1.8,2.2,2.2,3.6c0.7,1.2,1.8,2.2,3.1,2.7
		l-2.2-8.4L99,42l0,0c0.6-2.2,0.7-4.4,0.4-6.7c-0.5-1.1-0.8-2.3-0.9-3.6v-0.4c0.5,0.8,1.1,1.6,1.8,2.2c0.5,1.3,0.8,2.6,0.9,4
		c0.3,1.4,1.1,2.7,2.2,3.6l1.3-8.4l1.3,8.4c1-1,1.8-2.2,2.2-3.6c0.1-1.4,0.4-2.7,0.9-4c0.5-0.8,1.1-1.6,1.8-2.2v0.4
		c-1.1,0.7-1.9,1.8-2.2,3.1c-0.5,2.2-0.4,4.5,0.4,6.7l0,0l4.4-7.6l-2.2,8.4c1.4-0.4,2.5-1.3,3.1-2.7c0.5-1.3,1.2-2.5,2.2-3.6
		c0.9-0.9,1.8-1.3,2.2-1.8v0.4c-0.9,0.9-1.3,1.8-2.2,2.7c-1.3,1.8-1.8,4-2.2,6.2l0,0l6.7-5.3l-5.3,7.1c1.4,0,2.8-0.5,4-1.3
		c1-1,2.2-1.8,3.6-2.2c0.9-0.3,1.8-0.5,2.7-0.4l-0.4,0.4c-0.9,0.4-2.2,1.3-3.1,1.8c-1.8,1.3-3.3,3-4.4,4.9l0,0l8.4-2.2l-7.6,4.4
		c1.4,0.4,2.9,0.5,4.4,0.4c1.3-0.5,2.6-0.8,4-0.9c0.9,0,1.8,0.4,2.7,0.4c-0.2,0-0.4,0.2-0.4,0.4c0,0,0,0,0,0
		c-1.2,0.3-2.4,0.5-3.6,0.4c-2.3,0.6-4.4,1.6-6.2,3.1l8.4,1.3l-8.4,1.3c0.9,1,2.2,1.7,3.6,1.8c1.4,0.1,2.7,0.4,4,0.9
		c0.8,0.5,1.6,1.1,2.2,1.8h-0.4c-1.3-0.4-2.2-0.4-3.6-0.9c-2.2-0.5-4.5-0.4-6.7,0.4l0,0l7.1,4.4l-8-1.8c0.5,1.3,1.4,2.4,2.7,3.1
		c1.4,0.5,2.7,1.4,3.6,2.7c0.5,0.8,1.1,1.6,1.8,2.2c-0.2,0-0.4-0.2-0.4-0.4c0,0,0,0,0,0c-0.9-0.9-1.8-1.3-2.7-2.2
		c-1.8-1.4-4-2.2-6.2-2.2l0,0l5.3,6.7l-7.6-4.9c0,1.4,0.5,2.8,1.3,4c1,1,1.8,2.2,2.2,3.6c0.1,0.9,0.2,1.8,0.4,2.7l-0.4-0.4
		c-0.4-0.9-1.3-2.2-1.8-3.1c-1.3-1.8-3-3.3-4.9-4.4l0,0l2.2,8.4l-4.4-7.6c-0.6,1.4-0.7,3-0.4,4.4c0.4,1.3,0.5,2.7,0.4,4
		c-0.4,0.8-0.5,1.8-0.4,2.7c0-0.2-0.2-0.4-0.4-0.4c0,0,0,0,0,0l0,0c0,0,0,0,0,0c0-1.3-0.4-2.7-0.4-3.6c-0.4-2.3-1.5-4.5-3.1-6.2
		L102.6,72.7z"/>
	<path class="st3" d="M102.6,72.7c-1.3,1.9-2.3,4-3.1,6.2c0.1,1.2-0.1,2.4-0.4,3.6v0.4c0-0.9-0.4-1.8-0.4-2.7
		c-0.1-1.4,0.2-2.8,0.9-4c0.3-1.5,0.1-3-0.4-4.4l-4.4,7.6l2.2-8.4l0,0c-1.9,1.1-3.6,2.6-4.9,4.4c-0.5,1.1-1.1,2.1-1.8,3.1l-0.4,0.4
		c0-0.9,0.4-1.8,0.4-2.7c0.5-1.3,1.2-2.5,2.2-3.6c0.7-1.2,1-2.6,0.9-4L86.1,74l5.3-6.7l0,0c-2.2,0.4-4.4,0.9-6.2,2.2
		c-0.8,0.9-1.7,1.6-2.7,2.2c-0.2,0-0.4,0.2-0.4,0.4c0,0,0,0,0,0l0,0c0,0,0,0,0,0c0.4-0.4,0.9-1.3,1.8-2.2c1.1-1,2.3-1.9,3.6-2.7
		c1.2-0.7,2.2-1.8,2.7-3.1l-8.4,2.2l7.1-4.4l0,0c-2.2-0.6-4.4-0.7-6.7-0.4c-1.1,0.5-2.3,0.8-3.6,0.9h-0.4c0.4-0.4,1.3-0.9,2.2-1.8
		c1.3-0.5,2.6-0.8,4-0.9c1.4-0.4,2.8-1,4-1.8l-8.4-1.3l8.4-1.3c-1.9-1.3-4-2.3-6.2-3.1c-1.2,0.1-2.4-0.1-3.6-0.4l-0.4-0.4
		c0.9,0,1.8-0.4,2.7-0.4c1.4-0.1,2.8,0.2,4,0.9c1.5,0.3,3,0.1,4.4-0.4l-7.6-4.4l8.4,2.2l0,0c-1.1-1.9-2.6-3.6-4.4-4.9
		c-1.2-0.3-2.2-0.9-3.1-1.8h-0.9c0.8,0.4,1.8,0.5,2.7,0.4c1.3,0.5,2.5,1.2,3.6,2.2c1.2,0.8,2.6,1.3,4,1.3L87,39.8l6.7,5.3l0,0
		c-0.4-2.2-0.9-4.4-2.2-6.2c-1-0.8-1.7-1.9-2.2-3.1v-0.4c0.4,0.4,1.3,0.9,2.2,1.8c1,1,1.8,2.2,2.2,3.6c0.7,1.2,1.8,2.2,3.1,2.7
		l-2.2-8.4L99,42l0,0c0.6-2.2,0.7-4.4,0.4-6.7c-0.5-1.1-0.8-2.3-0.9-3.6v-0.4c0.5,0.8,1.1,1.6,1.8,2.2c0.5,1.3,0.8,2.6,0.9,4
		c0.3,1.4,1.1,2.7,2.2,3.6l1.3-8.4l1.3,8.4c1-1,1.8-2.2,2.2-3.6c0.1-1.4,0.4-2.7,0.9-4c0.5-0.8,1.1-1.6,1.8-2.2v0.4
		c-1.1,0.7-1.9,1.8-2.2,3.1c-0.5,2.2-0.4,4.5,0.4,6.7l0,0l4.4-7.6l-2.2,8.4c1.4-0.4,2.5-1.3,3.1-2.7c0.5-1.3,1.2-2.5,2.2-3.6
		c0.9-0.9,1.8-1.3,2.2-1.8v0.4c-0.9,0.9-1.3,1.8-2.2,2.7c-1.3,1.8-1.8,4-2.2,6.2l0,0l6.7-5.3l-5.3,7.1c1.4,0,2.8-0.5,4-1.3
		c1-1,2.2-1.8,3.6-2.2c0.9-0.3,1.8-0.5,2.7-0.4l-0.4,0.4c-0.9,0.4-2.2,1.3-3.1,1.8c-1.8,1.3-3.3,3-4.4,4.9l0,0l8.4-2.2l-7.6,4.4
		c1.4,0.4,2.9,0.5,4.4,0.4c1.3-0.5,2.6-0.8,4-0.9c0.9,0,1.8,0.4,2.7,0.4c-0.2,0-0.4,0.2-0.4,0.4c0,0,0,0,0,0
		c-1.2,0.3-2.4,0.5-3.6,0.4c-2.3,0.6-4.4,1.6-6.2,3.1l8.4,1.3l-8.4,1.3c0.9,1,2.2,1.7,3.6,1.8c1.4,0.1,2.7,0.4,4,0.9
		c0.8,0.5,1.6,1.1,2.2,1.8h-0.4c-1.3-0.4-2.2-0.4-3.6-0.9c-2.2-0.5-4.5-0.4-6.7,0.4l0,0l7.1,4.4l-8-1.8c0.5,1.3,1.4,2.4,2.7,3.1
		c1.4,0.5,2.7,1.4,3.6,2.7c0.5,0.8,1.1,1.6,1.8,2.2c-0.2,0-0.4-0.2-0.4-0.4c0,0,0,0,0,0c-0.9-0.9-1.8-1.3-2.7-2.2
		c-1.8-1.4-4-2.2-6.2-2.2l0,0l5.3,6.7l-7.6-4.9c0,1.4,0.5,2.8,1.3,4c1,1,1.8,2.2,2.2,3.6c0.1,0.9,0.2,1.8,0.4,2.7l-0.4-0.4
		c-0.4-0.9-1.3-2.2-1.8-3.1c-1.3-1.8-3-3.3-4.9-4.4l0,0l2.2,8.4l-4.4-7.6c-0.6,1.4-0.7,3-0.4,4.4c0.4,1.3,0.5,2.7,0.4,4
		c-0.4,0.8-0.5,1.8-0.4,2.7c0-0.2-0.2-0.4-0.4-0.4c0,0,0,0,0,0l0,0c0,0,0,0,0,0c0-1.3-0.4-2.7-0.4-3.6c-0.4-2.3-1.5-4.5-3.1-6.2
		L102.6,72.7z"/>
	<path class="st1" d="M87,67.4c1.2-0.7,2.2-1.8,2.7-3.1l-8.4,2.2l7.1-4.4l0,0c-2.2-0.6-4.4-0.7-6.7-0.4c-1.1,0.5-2.3,0.8-3.6,0.9
		l0,0c0.9-0.3,1.7-1,2.2-1.8c1.3-0.5,2.6-0.8,4-0.9c1.4-0.4,2.8-1,4-1.8l-8.4-1.3l8.4-1.3c-1.9-1.3-4-2.2-6.2-2.7
		c-1.2,0.1-2.4-0.1-3.6-0.4l-0.4-0.4c0.9,0,1.8-0.4,2.7-0.4c1.4-0.1,2.8,0.2,4,0.9c1.5,0.3,3,0.1,4.4-0.4l-7.6-4.4l8,2.2l0,0
		c-1.1-1.9-2.6-3.6-4.4-4.9c-1.2-0.3-2.2-0.9-3.1-1.8l-0.4-0.4c0.8,0.4,1.8,0.5,2.7,0.4c1.3,0.5,2.5,1.2,3.6,2.2
		c1.2,0.8,2.6,1.3,4,1.3L87,39.8l6.7,5.3l0,0c-0.4-2.2-0.9-4.4-2.2-6.2c-1-0.8-1.7-1.9-2.2-3.1l-0.4-0.4c0.4,0.4,1.3,0.9,2.2,1.8
		c1,1,1.8,2.2,2.2,3.6c0.7,1.2,1.8,2.2,3.1,2.7l-2.2-8.4l4.4,7.6l0,0c0.6-2.2,0.7-4.4,0.4-6.7c-0.5-1.1-0.8-2.3-0.9-3.6v-0.9
		c0.3,0.9,1,1.7,1.8,2.2c0.5,1.3,0.8,2.6,0.9,4c0.3,1.4,1.1,2.7,2.2,3.6l1.3-8.4l1.3,8.4c1-1,1.8-2.2,2.2-3.6c0.1-1.4,0.4-2.7,0.9-4
		c0.5-0.8,1.1-1.6,1.8-2.2v0.9c-0.4,1.3-0.4,2.2-0.9,3.6c-0.5,2.2-0.4,4.5,0.4,6.7l0,0l4.4-7.6l-2.2,8.4c1.4-0.4,2.5-1.3,3.1-2.7
		c0.5-1.3,1.2-2.5,2.2-3.6c0.9-0.9,1.8-1.3,2.2-1.8v0.4c-0.9,0.9-1.3,1.8-2.2,2.7c-1.3,1.8-1.8,4-2.2,6.2l0,0l6.7-5.3l-5.3,7.1
		c1.4,0,2.8-0.5,4-1.3c1-1,2.2-1.8,3.6-2.2c0.9-0.3,1.8-0.5,2.7-0.4l-0.4,0.4c-0.9,0.8-2,1.4-3.1,1.8c-1.8,1.3-3.3,3-4.4,4.9l0,0
		l8.4-2.2l-7.6,4.4c1.4,0.6,3,0.7,4.4,0.4c1.3-0.5,2.6-0.8,4-0.9c0.9,0,1.8,0.4,2.7,0.4l-0.4,0.4c-1.2,0.3-2.4,0.5-3.6,0.4
		c-2.2,0.4-4.4,1.3-6.2,2.7l8.4,1.3l-8.4,1.3c1,1.1,2.5,1.7,4,1.8c1.4,0.1,2.7,0.4,4,0.9c0.8,0.5,1.6,1.1,2.2,1.8h-0.4
		c-1.3-0.4-2.2-0.4-3.6-0.9c-2.2-0.5-4.5-0.4-6.7,0.4l0,0l7.1,4.4l-9.3-2.2c0.4,1.4,1.3,2.5,2.7,3.1c1.3,0.5,2.5,1.2,3.6,2.2
		l0.4-0.4c-1-1-2.2-1.8-3.6-2.2c-0.4-0.4-1.3-0.9-1.8-1.3l8.9,2.2l2.7,0.4l0,0l-2.2-1.3l-8-4.9c1.6-0.4,3.3-0.4,4.9,0
		c1.1,0.5,2.3,0.8,3.6,0.9c0.8,0.1,1.5-0.1,2.2-0.4c0.4,0,1.3-0.4,1.8-0.4h-1.8c-1.3-0.5-2.5-1.2-3.6-2.2c-1.3-0.5-2.6-0.8-4-0.9
		c-0.9,0-1.3-0.4-2.2-0.9l9.3-1.3l2.7-0.4l-2.7-0.4l-9.3-1.3c1.4-0.9,2.9-1.5,4.4-1.8c1.2,0.1,2.4-0.1,3.6-0.4
		c0.4-0.4,1.3-0.4,1.8-0.9c0.6-0.3,1-0.8,1.3-1.3c0,0.7-0.6,1.3-1.3,1.3c-1.3,0.1-2.7-0.1-4-0.4c-1.4-0.1-2.8,0.2-4,0.9h-2.2l8-4.4
		l2.2-1.8l-2.7,0.4l-8.9,2.2c1-1.3,2.2-2.3,3.6-3.1c1.2-0.3,2.2-0.9,3.1-1.8c0.5-0.5,1-1.1,1.3-1.8l0.9-1.8c-0.5,0.5-1.1,1-1.8,1.3
		c-1.3,0.5-2.6,0.8-4,0.9c-1.3,0.5-2.5,1.2-3.6,2.2c-0.5,0.5-1.1,0.8-1.8,0.9l5.8-7.1l1.8-2.2l0,0l-2.2,1.8l-7.6,5.3
		c0.3-1.6,0.9-3.1,1.8-4.4c1-0.8,1.7-1.9,2.2-3.1c0.4-0.7,0.6-1.5,0.4-2.2v-1.8c-0.4,0.4-0.4,1.3-0.9,1.8c-0.9,0.9-2.2,1.8-3.1,2.7
		c-1,1-1.8,2.2-2.2,3.6c-0.4,0.4-0.9,1.3-1.3,1.8l2.2-8.9l0.9-3.1l-1.3,2.2l-4.9,8.4c-0.4-1.6-0.4-3.3,0-4.9
		c0.5-1.1,0.8-2.3,0.9-3.6v-2.2c0-0.4-0.4-1.3-0.4-1.8c0.1,0.6-0.1,1.3-0.4,1.8c-0.5,1.3-1.2,2.5-2.2,3.6c-0.5,1.3-0.8,2.6-0.9,4
		c0,0.7-0.3,1.4-0.9,1.8l0,0l-1.3-9.3l-0.4-2.7l0,0l-0.4,2.7l-1.3,9.3c-0.4-0.4-0.4-1.3-0.9-1.8c-0.1-1.4-0.4-2.7-0.9-4
		c-1-1-1.8-2.2-2.2-3.6c0-0.4-0.4-1.3,0-1.8c-0.4,0.5-0.5,1.2-0.4,1.8c-0.2,0.7-0.3,1.5-0.4,2.2c0.4,1.3,0.4,2.2,0.9,3.6
		c0.4,1.6,0.4,3.3,0,4.9l-4.4-8l-0.4-2.7l0.4,2.7l2.2,8.9c-0.5-0.5-1-1.1-1.3-1.8c-0.5-1.3-1.2-2.5-2.2-3.6
		c-1.2-0.5-2.3-1.2-3.1-2.2c-0.5-0.5-0.8-1.1-0.9-1.8v1.8c0,0.9,0.4,1.3,0.4,1.8c0.9,0.9,1.3,1.8,2.2,2.7c1,1.3,1.7,2.8,1.8,4.4
		l-7.1-5.8L83,34.5l0,0l1.8,3.6l5.8,7.6c-0.7,0-1.4-0.3-1.8-0.9c-1-1-2.2-1.8-3.6-2.2c-1.4-0.1-2.7-0.4-4-0.9
		c-0.5-0.5-1.1-1-1.8-1.3l0.9,1.8c0.4,0.4,0.9,1.3,1.3,1.8c0.9,0.8,2,1.4,3.1,1.8c1.3,0.9,2.5,2,3.6,3.1l-8.9-2.2L76.8,46l2.2,1.3
		l8,4.4h-2.2c-1.3-0.5-2.6-0.8-4-0.9c-1.3,0.4-2.7,0.5-4,0.4c-0.4,0-1.3-0.4-1.8-0.4l1.3,1.3c0.5,0.5,1.1,0.8,1.8,0.9
		c1.3,0,2.7,0.4,3.6,0.4c1.6,0.3,3.1,0.9,4.4,1.8l-9.3,1.3l-2.7,0.4l2.7,0.4l9.3,1.3c-0.4,0.4-1.3,0.4-2.2,0.9
		c-1.4,0.1-2.7,0.4-4,0.9c-1,1-2.2,1.8-3.6,2.2h-1.8c0.5,0.4,1.2,0.5,1.8,0.4c0.9,0,1.3,0.4,2.2,0.4c1.3-0.4,2.2-0.4,3.6-0.9
		c1.6-0.4,3.3-0.4,4.9,0l-8,4.9l-2.2,1.3l0,0l2.7-0.4l8.9-2.2c-0.4,0.4-0.9,1.3-1.8,1.3L87,67.4z"/>
	<path class="st1" d="M106.1,51.8v-2.2h5.3c1.4,0.5,2.7,1.4,3.6,2.7c0,0.4-1.3-0.9-2.7-1.3C110.3,50.9,108.2,51.2,106.1,51.8"/>
	<path class="st1" d="M111.5,53.1h-4c-0.9,0.4-1.3,1.3-1.8,1.8c0,0.4,0.4,0.4,0.9,0.4l0.4-0.4c0.4-0.4,0.9-0.4,1.3-0.9v0.4
		c0.1,1,0.8,1.7,1.8,1.8c0.9,0,1.8-0.4,1.8-1.3v-0.4c0.7,0.1,1.3,0.4,1.8,0.9c0.4,0.4,1.3,0.9,1.3,0.4
		C113.8,55,112.6,54.1,111.5,53.1"/>
	<path class="st1" d="M101.7,51.8l-0.4-1.8h-5.3c-1.4,0.5-2.7,1.4-3.6,2.7c0,0.4,1.3-0.9,2.7-1.3C97.3,51,99.5,51.2,101.7,51.8"/>
	<path class="st1" d="M96.4,53.1h3.6c0.9,0.4,1.3,1.3,1.8,1.8c0,0.4-0.4,0.4-0.9,0l0,0c-0.4-0.4-0.9-0.4-1.3-0.9v0.4
		c0,0.9-0.4,1.8-1.3,1.8s-1.8-0.4-1.8-1.3V54c-0.4,0-0.9,0.4-1.8,0.9c-0.4,0.4-1.3,0.9-1.3,0.4C94.5,54.9,95.5,54.1,96.4,53.1"/>
	<path class="st0" d="M59,120.7c0,33.3,20.5,60.5,45.4,60.5s45.4-27.1,45.4-60.5v-0.9H59V120.7"/>
	<path class="st4" d="M104.4,60.2C79.5,60.2,59,86.9,59,119.8h90.7C149.3,86.9,129.3,60.2,104.4,60.2"/>
	<path class="st5" d="M116.8,105.1c-0.1-3.1-0.4-6.2-0.9-9.3c-0.4-2.2,0.4-8.4,0.4-9.8c-0.9-5.3-4.9-8.9-10.2-9.8
		c-8-0.4-9.3,4-9.3,5.3s4,3.1,5.3,3.1c-7.1,2.7-12.2,9-13.3,16.5c-0.4,3.1,10.2,5.8,12.4,5.8S116.8,109.2,116.8,105.1"/>
	<path class="st6" d="M59.5,132.3c0,0,21.3-1.8,24.5-2.7c1.8-0.4,7.1-2.7,8.9-3.1c2.6-0.5,5.3-0.8,8-0.9c0.4,0,1.8,1.3,1.8,1.3
		l3.1-3.1h4.9c1.3,0,8,4,9.8,4.4c0,0,9.8,1.8,11.6,2.2s15.6,4,16.5,4c-1.3,5.3-2.7,10.7-4.4,16c-8.2-3.2-16.3-6.9-24-11.1
		c-0.4-0.4-0.4,2.7-3.6,2.7c-1.1,1.2-2.8,1.9-4.4,1.8c-1,1.1-2.5,1.7-4,1.8c0,0,0.4,1.8-5.3,0.4c-0.4,0-4,4-6.2,0
		c0,0-3.6,1.8-4.4-1.3c0,0-2.7,1.8-3.1-2.2c-1.5,0.4-3-0.4-3.6-1.8c-7.4,2.2-14.7,4.9-21.8,8C61.8,143.3,60.4,137.8,59.5,132.3"/>
	<path class="st7" d="M87.5,145.6c-2.2-0.9-12.9,0.9-19.6,11.6c0.9,1.7,1.9,3.4,3.1,4.9c1.7-2.4,3.2-4.9,4.4-7.6
		C79,146.5,87.5,146.1,87.5,145.6"/>
	<path class="st7" d="M83.5,171.4c-2.2-8,4.4-14.2,3.6-14.2c-4.4,3.1-7.1,8.4-7.6,14.2c1.4,1.4,3.1,2.6,4.9,3.6
		C83.8,173.8,83.5,172.6,83.5,171.4"/>
	<path class="st7" d="M77.2,169.2c0.4-1.8,0.9-4,1.3-5.8c0.4-8.4,8.9-11.6,8-12c-2.2-0.4-9.8,4-13.3,13.3
		C74.4,166.3,75.8,167.8,77.2,169.2"/>
	<path class="st7" d="M121.7,152.7c-0.4,0.4,7.6,3.6,8,12c0,1.7,0.3,3.3,0.9,4.9c1.4-1.4,2.8-2.9,4-4.4
		C131,156.7,123.5,152.3,121.7,152.7"/>
	<path class="st7" d="M91,177.2c-4.9-6.7-0.9-14.7-1.3-14.7c-2.6,4.1-3.6,9-2.7,13.8l5.3,2.7C91.8,178.4,91.4,177.8,91,177.2"/>
	<path class="st7" d="M120.8,158.9c-0.9,0,5.8,5.8,3.6,14.2c0,0.9-0.4,1.3-0.4,2.2c1.3-0.9,3.1-2.2,4.4-3.1
		C128.1,166.9,125.3,162,120.8,158.9"/>
	<path class="st7" d="M118.2,164.3c-0.9,0,3.6,7.6-1.3,14.7l0,0c1.6-0.6,3.1-1.3,4.4-2.2C121.8,172.3,120.7,167.9,118.2,164.3"/>
	<path class="st8" d="M121.7,135.4c-1.3-0.4-0.9-0.4-1.8-1.8c-0.4,1.3-1.3,1.3-1.3,1.3s-6.7-2.7-7.6-8.4c0,0-1.3,4.4-3.6-0.4
		c0,0-2.7,5.3-5.3,4.9s-3.1,0-3.1,0l1.3,0.4H99c1.4,1.7,3.5,2.7,5.8,2.7c3.6-0.4,3.6-1.3,4-1.8c2.5,1.3,4.7,2.9,6.7,4.9
		c0,0.4-0.9,0.4-1.8,0.4c-1.8-0.9-3.1-1.8-4.9-2.7l7.6,6.2l3.1-1.8v-1.8c7.3,4.6,15.1,8.4,23.1,11.6c1.6-2.1,2.8-4.5,3.6-7.1
		C137.3,141.6,129.3,138.9,121.7,135.4"/>
	<path class="st8" d="M105.7,137.2c0,0,4.4,3.6,5.8,3.6c0.9-0.1,1.5-0.8,1.5-1.7c0-0.2-0.1-0.4-0.1-0.5c-0.4-0.4,2.7,3.1,2.7,3.1
		l-2.2,1.3l-2.2-0.4L105.7,137.2z"/>
	<path class="st8" d="M103.5,140.7l4,4c0,0,0.9,1.3,2.7,0s1.3-1.8,0.9-1.8s-0.9-1.3-0.9-1.3s-1.8,1.8-2.7,1.3
		S103.5,140.3,103.5,140.7"/>
	<path class="st8" d="M61.7,140.7c0,0,23.6-4,27.1-4.9c3.2,0.1,6.4,0.9,9.3,2.2c1.6,0.8,3.2,1.6,4.9,2.2l5.3,4l-0.9,1.8h-4
		c-1.8,0-3.6,1.3-5.3,1.3c-1-0.2-1.8-0.8-2.2-1.8c-1.2,1-3,0.8-4-0.4l0,0l0-0.1c-0.4-0.4-0.4-0.4-0.4-0.9c0,0-3.1,1.3-3.1-2.2
		c0,0-3.6,0.9-3.6-1.8c0,0-19.6,6.2-21.8,8C62.6,145.6,62.1,142.9,61.7,140.7"/>
	<path class="st6" d="M100.4,141.6c0,0-1.3,1.3-2.2,1.3s-2.7-0.4-1.3-1.8s2.7-1.3,3.1-0.9S100.4,140.3,100.4,141.6"/>
	<path class="st6" d="M96.4,139.4c-0.7,0.5-1.4,1-2.2,1.3c-0.4,0-2.2-0.4-1.3-1.8c0.8-0.9,2-1.2,3.1-0.9
		C95.9,138.9,96.4,138.5,96.4,139.4"/>
	<path class="st9" d="M116.4,105.6c-0.4,1.8-6.7,2.2-14.2,1.3s-13.3-3.6-13.3-5.3s6.7-2.2,14.2-1.3S116.4,103.8,116.4,105.6"/>
	<polygon class="st7" points="105.7,101.1 102.1,100.7 102.1,125.6 105.7,123.8 	"/>
	<polygon class="st10" points="103,124.7 104.4,124.7 104.4,104.3 103,103.8 	"/>
	<polygon class="st7" points="113.3,156.3 107,156.3 107,150.1 100.8,150.1 100.8,156.3 94.6,156.3 94.6,162.5 100.8,162.5 
		100.8,179.4 107,179.4 107,162.5 113.3,162.5 	"/>
	<rect x="100.8" y="150.5" class="st10" width="6.2" height="0.4"/>
	<polygon class="st10" points="106.6,156.7 107,157.2 112.8,157.2 112.8,156.7 	"/>
	<rect x="95" y="156.7" class="st10" width="6.7" height="0.4"/>
	<rect x="101.7" y="150.9" class="st10" width="0.4" height="6.7"/>
	<polygon class="st10" points="101.7,174.1 102.1,174.1 102.1,162.5 101.7,161.6 	"/>
	<path class="st1" d="M105.7,107.8c6.2,0.4,11.1,0,11.6-1.8c1.3-8.4-0.4-10.2-0.4-10.2c0.9-2,0.9-4.2,0-6.2
		c1.3-6.3-2.6-12.4-8.9-13.8H107c-7.6-1.3-10.7,3.1-11.1,4.9c-0.4,3.6,2.7,4,4.4,4c-7.1,2.7-11.6,9.3-12.4,16.9
		c-0.4,2.2,6.2,4.9,14.2,6.2l0.4-0.9c-7.1-1.3-12.9-3.6-12.4-4.9s6.2-1.8,13.3-0.9s12.9,3.6,12.4,4.9s-4.4,1.8-9.8,1.3L105.7,107.8z
		 M89.7,99.8c1.8-7.6,7.6-13.8,15.6-15.1c0,0-7.6-0.4-8-3.1s4.4-5.3,9.3-4.4s8.4,4.9,8,9.8c-0.4,1.8-4.4,2.7-6.2,2.7
		c3.6,0,6.2,0.4,5.8,1.3c-1.6,1.9-4.2,2.8-6.7,2.2c4.4,2.7,4.9-0.9,7.1,2.2c0.9,1.3,0,1.8-4.9,0c-8-2.2-10.2-1.3-10.2-1.3
		c5,0.5,9.9,2.2,14.2,4.9c1.3,0.9,1.3,3.6,0.9,4c-3.6-1.8-7.6-2.7-11.6-3.6C98.6,98.9,94.1,99,89.7,99.8L89.7,99.8z"/>
	<polygon class="st11" points="106.1,101.1 102.1,100.3 102.1,125.6 106.1,123.8 	"/>
	<path class="st1" d="M143.9,149.2c-8.1-3.1-15.9-6.7-23.6-10.7l-1.8-1.3c-2.7-2.6-5.6-4.8-8.9-6.7c-0.9-0.9-1.6-2-2.2-3.1
		c0.9,3.1-1.8,2.7-3.1,4.4s-3.6,0-4.4-0.4s2.2-2.2,4.9-4.9c0.4-0.9,0.4-1.8,3.6-1.3s4,0.4,4.9,1.3c2.6,1.8,5.4,3.1,8.4,4
		c3.3-0.1,6.7,0.5,9.8,1.8c5.5,1.8,11.2,3.1,16.9,4C147.1,140.3,145.7,144.7,143.9,149.2 M116.8,140.7c-2.9-1.8-5.7-3.7-8.4-5.8
		l1.3,1.3c1.7,1.4,3.2,3.1,4.4,4.9c0.4,0.9-1.3,1.3-2.2,1.3c-2-1.2-3.9-2.6-5.8-4c0.9,1.3,4.4,4.4,4.4,5.3s-1.3,0.9-2.2,0.9l-4-2.7
		c1.3,1.8,1.8,2.7,2.2,3.1s-1.3,0.4-2.2,0.4h-0.4c0.3-0.4,0.5-0.8,0.4-1.3c0-0.9-0.9-1.8-3.6-1.8c0,0,0.9-3.6-4-2.7
		c-1.3-1.8-2.2-2.2-5.8-0.9c-0.9-1.4-2.6-1.7-4-0.9l0,0l0,0c-0.2,0-0.4,0.2-0.4,0.4c0,0,0,0,0,0c-0.4,0.4-1.3,0.9-1.3,1.8
		c-5.3,1.3-22.2,7.6-22.2,7.6c-1.9-4.5-3.1-9.3-3.6-14.2c8.7-0.4,17.3-1.4,25.8-3.1c1.8-0.4,6.7-2.7,8.4-3.1
		c2.4-0.4,4.7-0.5,7.1-0.4l0.9,0.4c-1.8,1.8-3.6,3.6-3.6,4s0.9,1.3,3.6,1.8c4,0.4,4.4-2.2,6.2-2.2c0.4,0.3,0.8,0.5,1.3,0.4l0.4,0.4
		l1.3,0.9c2.2,1.8,5.8,4.4,7.1,5.8S117.3,140.7,116.8,140.7L116.8,140.7z M99,147.4c-0.4,0-2.2-0.9-1.3-1.3c1.3-0.8,2.5-1.7,3.6-2.7
		c0.9,0,3.6,0.9,1.8,1.8C101.9,146.2,100.5,147,99,147.4L99,147.4z M93.7,146.1c-1.3-0.4,0-2.2,1.8-3.6s2.7-2.7,4.9-1.3
		c0.4,0.9-1.3,2.2-2.2,3.1C96.8,145.2,95.3,145.9,93.7,146.1L93.7,146.1z M90.6,144.3c-0.6-1.2-0.4-2.6,0.4-3.6
		c0.4-0.4,2.7-2.7,4.4-1.3c0.9,0.4-0.4,1.8-1.8,3.1C92.8,143.3,91.8,143.9,90.6,144.3z M87,141.6c-0.9-0.4-0.4-1.8,0.4-2.7
		s2.2-1.3,2.7-0.4c0.5,0.7,0.5,1.6,0,2.2C89.3,140.7,87.9,142.1,87,141.6L87,141.6z M148.4,133.6c-6.1-0.8-12-2.3-17.8-4.4
		c-3.1-0.8-6.2-1.4-9.3-1.8c-4-1.3-8.4-4.9-9.8-4.4s-6.2-0.9-7.1,0.4c-0.4,0.4-0.9,1.3-1.3,1.8c-0.9-0.4-1.3-0.9-2.2-0.9h-6.7
		c-1.3,0-7.6,3.6-9.3,4c-8.2,1.4-16.6,2.1-24.9,2.2c0.8,6.1,2.3,12,4.4,17.8c6.9-3.1,14.1-5.8,21.3-8c0,0.2,0.2,0.4,0.4,0.4
		c0,0,0,0,0,0c0.8,0.9,1.9,1.4,3.1,1.3c0,0.9,0,3.1,3.1,2.7c0,0.9,2.2,2.7,4.4,1.3c0.4,1.3,2.2,2.7,4.9,0.9c0.4-0.4,0.9-0.4,1.3-0.9
		l0,0c1.3,0.9,4.9,1.8,6.2-0.9c1.3,0.4,2.7-0.4,3.1-1.8l0,0l0,0c0,0,3.1,0.9,4-1.8c0,0,3.6,0.4,4-2.7c7.6,4,15.1,7.6,23.1,11.1
		c1.7-5,3.2-10,4.4-15.1L148.4,133.6L148.4,133.6z"/>
	<path class="st1" d="M87,150.9c-1.8-0.9-10.7,2.7-14.7,12.9l0.9,0.9c3.6-9.3,11.1-13.8,13.3-13.3c0.4,0.4-7.6,3.6-8,12
		c0,2-0.3,3.9-0.9,5.8l0.9,0.9c0.4-1.8,0.4-3.6,0.9-5.3C79.5,153.6,88.4,151.4,87,150.9"/>
	<path class="st1" d="M87.5,156.7c-1.8,0-7.6,4.9-8.9,13.8l0.9,0.9c0.3-5.6,3.3-10.8,8-13.8c0.9,0-5.8,5.8-3.6,14.2
		c0.4,1.3,0.4,2.2,0.9,3.6l1.3,0.9c-0.1-1.1-0.4-2.1-0.9-3.1C81.7,162.1,88.8,156.7,87.5,156.7"/>
	<path class="st1" d="M90.1,162.1c-1.3,0.4-4.9,6.2-4,14.2l1.3,0.4c-1.2-4.8-0.2-9.8,2.7-13.8c0.4,0-3.6,7.6,1.3,14.7
		c0.4,0.4,0.9,1.3,1.3,1.8l1.3,0.4l-1.3-1.8C86.1,169.2,91.5,161.6,90.1,162.1"/>
	<path class="st1" d="M129.7,164.7c-0.4-8.4-8.9-11.6-8-12c2.2-0.4,9.3,4,12.9,12.9l0.9-0.9c-4-9.8-12.9-12.9-14.2-12
		s7.6,2.7,8.4,13.8c0,1.3,0.4,3.1,0.4,4.4l0.9-0.9C130.2,168.4,129.7,166.6,129.7,164.7"/>
	<path class="st1" d="M120.4,158.5c-1.3,0,6.2,5.3,3.1,15.6l-0.4,1.8l0.9-0.9c0-0.9,0.4-1.3,0.4-2.2c2.2-8-4.4-14.2-3.6-14.2
		c4.4,2.9,7.1,7.7,7.6,12.9l0.9-0.9C127.5,162.9,121.7,158.1,120.4,158.5"/>
	<path class="st1" d="M117.7,163.4c-1.3-0.4,4,7.1-2.2,15.6l1.3-0.4l0,0c4.9-6.7,0.9-14.7,1.3-14.7c2.6,3.6,3.6,8.1,2.7,12.4
		l0.9-0.4C122.6,171.8,120.8,167,117.7,163.4"/>
	<path class="st1" d="M87.9,145.6c-1.3-1.3-13.3-1.3-20.9,10.7c0,0.3,0.2,0.6,0.4,0.9c6.2-9.8,14.7-12,17.8-11.1
		c-4.4,1.4-8.1,4.4-10.2,8.4c-1.2,2.7-2.7,5.2-4.4,7.6c0,0.4,0.4,0.4,0.4,0.9c1.8-2.1,3.1-4.5,4-7.1
		C80.4,145.6,89.3,146.9,87.9,145.6"/>
	<path class="st1" d="M106.6,150.5v6.2h6.2v4.9h-6.2v16.9h-4.9v-16.9h-6.2v-4.9h6.2v-6.2H106.6z M100.4,149.6v6.2h-6.2v7.6h6.2v16.9
		h7.6v-16.9h6.2v-7.6h-6.2v-6.2L100.4,149.6z"/>
	<path class="st1" d="M107.5,165.6c1.3,1.3,4,2.2,3.1,5.3c0.9-2.2,1.3-3.6,6.2-4.4c-1.8,4.9-2.7,3.6-2.7,8c0.1,2.5-1.3,4.8-3.6,5.8
		c-4.3,1.3-8.9,1.4-13.3,0.4c-5.3-1.8-7.1-9.3-3.6-12.4c2.2,6.2,0.4,2.2,3.1,4.4c-1.4-3.6-0.3-7.7,2.7-10.2c0,5.8,1.3,5.3,3.1,11.1
		c0-2.7,1.8-2.2,1.3-8.9c2.2,2.1,3.5,5,3.6,8C107.9,167.8,108.8,169.6,107.5,165.6"/>
	<path class="st12" d="M108.4,167c1.9,1.8,2.6,4.6,1.8,7.1c0.9-2.2,1.3-5.8,5.3-6.7c-1.3,4-2.7,3.6-2.7,7.6c-0.4,2.2-1.3,4-3.6,4.9
		c-4.1,1-8.3,1.2-12.4,0.4c-3.7-1.2-5.8-5.2-4.6-8.9c0-0.1,0.1-0.3,0.1-0.4c0-0.4,0-0.4,0.4-0.9c2.2,6.2,0.4-0.9,5.3,6.7
		c-2.2-4.2-2.2-9.2,0-13.3c0,4.9,3.1,7.1,4,13.8c0-4.4,1.8-6.2,1.8-10.7c4,4,1.8,7.1,2.2,8.9C107.5,171.4,109.3,171.4,108.4,167"/>
	<path class="st2" d="M95.5,179c-0.9-1-1.4-2.2-1.3-3.6c0,0,2.2,3.1,4.4,2.7c0.4,0-0.4-2.2,0-4.4c0.3,2.1,1.4,4,3.1,5.3
		c2.1-1.1,3.1-3.5,2.7-5.8c0.6,0.9,0.9,2,0.9,3.1v1.8c0,0,0.9,0.4,1.8-1.8c0.5-0.7,0.9-1.5,1.3-2.2c0.6,0.9,0.8,2.1,0.4,3.1
		c0,0,1.3-3.1,2.7-3.6c-0.9,1.3-0.4,4.4-2.2,6.7c-4,0.9-8.1,0.9-12,0C96.8,179,96.4,179,95.5,179"/>
	<path class="st1" d="M59.9,120.7c0-32.9,20-59.6,44.5-59.6s44.5,26.7,44.5,59.6s-20.5,59.6-44.9,59.6S59.5,153.6,59.9,120.7
		 M57.7,120.7c0,33.8,20.9,61.4,46.2,61.4s46.2-27.6,46.2-61.4s-20.9-61.4-46.2-61.4S57.7,86.9,57.7,120.7z"/>
	<path class="st13" d="M81.7,67.8c-1.3-0.4-4,0.4-5.8,1.3c1-2.3,0.8-4.9-0.4-7.1c0,0-2.7,3.1-2.2,4.9s1.3,4,0.4,4.9
		c1.3-0.4,2.7-0.5,4-0.4C79,70.5,80.8,69.6,81.7,67.8"/>
	<path class="st14" d="M75,62.5c1,1.8,1.3,3.8,0.9,5.8c-0.4,2.7-1.3-2.2-0.9-3.6V62.5"/>
	<path class="st14" d="M81.7,67.4c0,0-2.2,3.6-4.9,3.1S81.7,67.4,81.7,67.4"/>
	<path class="st1" d="M77.2,70.9c-1.3,0-2.7,0.4-4,0.4c0.9-0.9,0-3.1-0.4-4.9s2.2-4.9,2.2-4.9c1.3,2.3,1.4,5.1,0.4,7.6
		c2.2-0.9,4.9-1.8,5.8-1.3C80.8,69.6,79,70.5,77.2,70.9 M83,67.4c-1.3-0.4-2.7-0.5-4-0.4c-0.9,0.4-1.8,0.4-2.7,0.9
		c1.8-2.7-1.3-7.6-1.8-7.6c-0.9,0.9-1.6,2-2.2,3.1c-0.9,1.8-0.9,4,0,5.8c0.9,2.2-1.8,5.3-1.8,5.3c1.8-1.8,2.7-1.8,5.8-1.8
		C80.4,71.8,83,67.4,83,67.4L83,67.4z"/>
	<path class="st13" d="M75.5,72.2c-0.9-0.9-3.6,0.4-5.8,1.3c1-2.3,0.8-4.9-0.4-7.1c0,0-2.7,3.1-2.2,4.9s1.3,4,0.4,4.9
		c1.3-0.4,2.7-0.5,4-0.4C73.3,75.3,74.7,74,75.5,72.2"/>
	<path class="st14" d="M69.2,66.9c1,1.8,1.3,3.8,0.9,5.8c-0.4,2.7-1.3-2.2-0.9-3.6V66.9"/>
	<path class="st14" d="M75.9,72.2c0,0-2.2,3.6-4.9,3.1S75.9,72.2,75.9,72.2"/>
	<path class="st1" d="M71,75.8c-1.3,0-2.7,0.4-4,0.4c0.9-0.9,0-3.1-0.4-4.9s2.2-4.9,2.2-4.9c1.2,2.2,1.4,4.8,0.4,7.1
		c2.2-0.9,4.9-1.8,5.8-1.3C74.5,74.1,73,75.5,71,75.8 M77.2,71.8c-1.3-0.4-2.7-0.5-4-0.4l-2.7,1.3c1.8-3.1-1.3-8-1.8-7.6
		c-1,0.8-1.7,1.9-2.2,3.1c-0.9,1.8-0.9,4,0,5.8c0.9,2.2-1.8,5.3-1.8,5.3c1.8-1.8,2.7-1.8,5.8-2.2S77.2,71.8,77.2,71.8L77.2,71.8z"/>
	<path class="st13" d="M71.5,77.6c-1.3-0.4-3.6,0.4-5.8,1.8c0.8-2.4,0.5-5-0.9-7.1c0,0-2.7,3.1-1.8,4.9s1.8,4,0.9,4.9
		c1.1-0.5,2.3-0.8,3.6-0.9C69.2,80.3,71,79.4,71.5,77.6"/>
	<path class="st14" d="M64.8,72.7c0.9,1.8,1.4,3.8,1.3,5.8c-0.4,2.7-1.3-2.2-1.3-3.6L64.8,72.7"/>
	<path class="st14" d="M71.9,77.1c0,0-1.8,4-4.4,3.6S71.9,77.1,71.9,77.1"/>
	<path class="st1" d="M67.5,80.7c-1.2,0-2.5,0.3-3.6,0.9c0.9-0.9,0-3.1-0.9-4.9s1.8-4.9,1.8-4.9c1.3,2.1,1.8,4.7,1.3,7.1
		c1.8-0.9,4.4-2.2,5.8-1.8C71,78.9,69.4,80.2,67.5,80.7 M73.2,76.7c-1.3-0.4-2.7-0.4-4,0C68.4,77,67.7,77.5,67,78
		c1.3-3.1-2.2-7.6-2.7-7.6c-0.9,0.9-1.3,2.2-2.2,3.1c-1,1.9-0.8,4.1,0.4,5.8c1.3,2.2-1.3,5.3-1.3,5.3c1.8-1.8,2.2-1.8,5.8-2.2
		C70.6,82,73.2,76.7,73.2,76.7L73.2,76.7z"/>
	<path class="st13" d="M68.4,82.5C67,82,64.8,83.8,63,84.7c0.4-2.5-0.4-5-2.2-6.7c0,0-2.2,3.6-1.3,5.3s2.2,3.6,1.3,4.9
		c1.3-0.4,2.2-1.3,3.6-1.3C66.1,85.9,67.5,84.3,68.4,82.5"/>
	<path class="st14" d="M60.8,78.5c1.4,1.4,2.2,3.3,2.2,5.3c0,2.7-1.8-2.2-1.8-3.1C61.1,80,60.9,79.2,60.8,78.5"/>
	<path class="st14" d="M68.4,82.5c0,0-1.3,4-4,4C61.7,86.5,68.4,82.5,68.4,82.5"/>
	<path class="st1" d="M64.4,86.5c-1.2,0.4-2.4,0.8-3.6,1.3c0.4-1.3-0.4-3.1-1.3-4.9s1.3-5.3,1.3-5.3c1.9,1.8,2.6,4.6,1.8,7.1
		c1.8-1.3,4.4-2.7,5.3-2.2C67.5,84.3,66.2,85.9,64.4,86.5 M69.7,81.6c-1.3-0.1-2.7,0.1-4,0.4c-0.9,0.4-1.3,0.9-2.2,1.3
		c1.3-3.1-3.1-7.1-3.6-7.1c-0.4,1.3-1.3,2.2-1.8,3.6c-0.9,1.8-0.5,3.9,0.9,5.3c1.3,1.8-0.4,5.3-0.4,5.3c1.3-2.2,1.8-2.2,5.3-3.1
		S69.7,81.6,69.7,81.6L69.7,81.6z"/>
	<path class="st13" d="M65.2,88.3c-1.3-0.4-3.6,1.8-5.3,3.1c0-2.7-0.9-5.3-2.7-6.7c0,0-1.8,4-0.4,5.3s2.7,3.6,2.2,4.4
		c1-0.9,2.3-1.5,3.6-1.8C63.8,91.5,64.7,89.9,65.2,88.3"/>
	<path class="st14" d="M57.2,85.1c1.6,1.4,2.5,3.3,2.7,5.3c0.4,3.1-1.8-1.8-2.2-3.1C57.8,86.6,57.6,85.8,57.2,85.1"/>
	<path class="st14" d="M65.2,87.8c0,0-0.9,4.4-3.6,4.4C59,92.3,65.2,87.8,65.2,87.8"/>
	<path class="st1" d="M62.1,92.7c-1.3,0.4-2.5,1-3.6,1.8c0.4-1.3-0.9-3.1-2.2-4.4s0.4-5.3,0.4-5.3c1.9,1.7,3,4.1,3.1,6.7
		c1.8-1.8,4-3.6,5.3-3.1C64.7,90,63.6,91.6,62.1,92.7 M66.6,86.9c-1.4,0.1-2.7,0.4-4,0.9c-0.9,0.4-1.3,1.3-2.2,1.8
		c0.9-3.6-4-7.1-4.4-6.7l-1.3,4c-0.3,2,0.4,4,1.8,5.3c1.8,1.8,0.4,5.8,0.4,5.8c1.3-2.2,1.8-2.7,4.9-4S66.6,86.9,66.6,86.9L66.6,86.9
		z"/>
	<path class="st13" d="M62.6,94.5c-1.3,0-3.1,2.2-4.9,4c0-2.7-1.3-4.9-4-6.7c-4-2.7-1.3,4,0,5.8s3.1,3.1,2.7,4.4
		c0.9-0.9,2-1.6,3.1-2.2C61.3,98.6,62.5,96.7,62.6,94.5"/>
	<path class="st14" d="M54.1,92.3c1.7,1.2,2.9,2.9,3.6,4.9c0.9,2.7-2.2-1.8-2.7-2.7C55,93.6,54.6,93.1,54.1,92.3"/>
	<path class="st14" d="M62.6,94c0,0,0,4.4-3.1,4.9S62.6,94,62.6,94"/>
	<path class="st1" d="M59.9,99.4c-1.2,0.5-2.3,1.2-3.1,2.2c0.4-1.3-1.3-2.7-2.7-4.4s0-5.8,0-5.8c2.2,1.3,3.6,4,4,6.7
		c1.8-1.8,3.6-4,4.9-4C62.7,96.1,61.6,98.1,59.9,99.4 M63.9,93.1c-1.4,0-2.8,0.5-4,1.3c-0.4,0.9-1.3,1.3-1.8,2.2
		c0.4-3.6-4.9-6.7-5.3-6.2c-0.4,1.3-0.4,2.7-0.9,4c-0.1,2.1,0.9,4.1,2.7,5.3c1.8,1.8,0.9,5.3,0.9,5.3c0.9-2.7,1.3-2.7,4.4-4.4
		S63.9,93.1,63.9,93.1L63.9,93.1z"/>
	<path class="st13" d="M60.4,100.7c-1.3,0-3.1,2.7-4.4,4.4c-0.4-2.6-2.1-4.7-4.4-5.8c0,0-0.9,4.4,0.9,5.8s3.6,2.7,3.1,4
		c0.9-0.9,1.8-2.2,3.1-2.7C59.9,104.7,60.8,102.9,60.4,100.7"/>
	<path class="st14" d="M51.9,99.8c1.8,1,3.2,2.6,4,4.4c1.3,2.7-2.7-1.3-2.7-2.2C52.8,101.1,52.4,100.7,51.9,99.8"/>
	<path class="st14" d="M60.4,100.3c0,0,0.4,4.4-2.2,5.3S60.4,100.3,60.4,100.3"/>
	<path class="st1" d="M58.6,106c-1.1,0.8-2.2,1.7-3.1,2.7c0-1.3-1.8-2.7-3.1-4s-0.9-5.3-0.9-5.3c2.3,1.4,4,3.6,4.9,6.2
		c1.3-2.2,3.1-4.4,4.4-4.4C60.7,103,59.9,104.8,58.6,106 M61.7,99.4c-1.4,0.3-2.7,1.1-3.6,2.2c-1.3,1.8-1.3,2.2-1.3,2.2
		c0-3.6-5.8-5.8-6.2-5.8v4c0,2.1,1.2,4,3.1,4.9c2.2,1.3,1.8,5.3,1.8,5.3c0.4-2.7,0.9-3.1,4-5.3S61.7,99.4,61.7,99.4L61.7,99.4z"/>
	<path class="st13" d="M59,107.8c-1.3,0-2.7,2.7-4,4.9c-0.8-2.6-2.8-4.6-5.3-5.3c0,0-0.4,4.4,1.3,5.3s3.6,2.2,3.6,3.6
		c0.8-1.1,1.7-2.2,2.7-3.1C58.8,111.9,59.5,109.8,59,107.8"/>
	<path class="st14" d="M50.6,107.8c1.9,0.9,3.6,2.3,4.9,4c1.3,2.7-2.7-0.9-3.1-2.2C51.5,109.2,51,108.3,50.6,107.8"/>
	<path class="st14" d="M59,107.4c0,0,0.9,4.4-1.8,5.8S59,107.4,59,107.4"/>
	<path class="st1" d="M57.7,113.2c-1,0.9-1.9,2-2.7,3.1c0-1.3-1.8-2.7-3.6-3.6s-1.3-5.3-1.3-5.3c2.5,0.9,4.4,2.9,5.3,5.3
		c1.3-2.2,2.7-4.9,4-4.9C59.6,109.8,58.9,111.7,57.7,113.2 M59.9,106.5c-1.3,0.5-2.5,1.2-3.6,2.2l-1.3,2.7c-0.4-3.6-6.2-5.3-6.7-4.9
		c-0.1,1.3,0.1,2.7,0.4,4c0,1.8,1.3,3.1,3.6,4.4s2.2,5.3,2.2,5.3c0.4-2.7,0.9-3.1,3.1-5.8S59.9,106.5,59.9,106.5L59.9,106.5z"/>
	<path class="st13" d="M58.6,114.5c-1.3,0.4-2.7,3.1-3.6,5.3c-0.9-2.6-3.1-4.5-5.8-4.9c0,0,0,4.4,1.8,5.3s4,2.2,4,3.6
		c0.5-1.2,1.2-2.3,2.2-3.1C58.5,118.9,59,116.7,58.6,114.5"/>
	<path class="st14" d="M49.7,114.9c1.9,0.8,3.6,2,4.9,3.6c1.8,2.7-2.7-0.9-3.1-1.8S50.1,115.4,49.7,114.9"/>
	<path class="st14" d="M58.6,114c0,0,1.3,4.4-1.3,5.8S58.6,114,58.6,114"/>
	<path class="st1" d="M57.2,119.8c-0.9,0.9-1.6,2-2.2,3.1c0-1.3-2.2-2.2-4-3.6s-1.8-5.3-1.8-5.3c2.5,0.9,4.5,2.6,5.8,4.9
		c0.9-2.2,2.2-4.9,3.6-5.3C59,116.3,58.6,118.5,57.2,119.8 M59,112.7c-1.4,0.4-2.5,1.3-3.1,2.7c-0.5,0.8-0.8,1.7-0.9,2.7
		c-0.9-3.6-6.7-4.9-7.1-4.4c0,1.3,0.4,2.7,0.4,4c0.3,2.2,1.9,4,4,4.4c2.2,0.9,2.7,4.9,2.7,4.9c0-2.7,0.4-3.1,3.1-5.8
		C59.6,118.6,59.9,115.5,59,112.7L59,112.7z"/>
	<path class="st13" d="M58.1,120.7c-1.3,0.4-2.7,3.1-3.6,5.3c-1-2.6-3.1-4.6-5.8-5.3c0,0,0,4.4,1.8,5.3s4,2.2,4,3.6
		c0.5-1.2,1.2-2.3,2.2-3.1C58.1,124.9,58.6,122.7,58.1,120.7"/>
	<path class="st14" d="M49.2,121.6c1.9,0.8,3.6,2,4.9,3.6c1.8,2.7-2.7-0.9-3.1-1.8C50.7,122.6,50,121.9,49.2,121.6"/>
	<path class="st14" d="M58.1,120.3c0,0,1.3,4.4-1.3,5.8S58.1,120.3,58.1,120.3"/>
	<path class="st1" d="M57.2,126.5c-0.9,0.9-1.6,2-2.2,3.1c0-1.3-2.2-2.2-4-3.6s-1.8-5.3-1.8-5.3c2.6,0.9,4.7,2.8,5.8,5.3
		c0.9-2.2,2.2-4.9,3.6-5.3C58.6,122.7,58.2,124.7,57.2,126.5 M59,119.4c0,0-2.7,1.3-3.1,2.7l-1.3,2.7c-0.9-3.6-6.7-4.9-7.1-4.4
		c-0.1,1.3,0.1,2.7,0.4,4c0.4,2.1,1.9,3.8,4,4.4c2.2,0.9,2.7,4.9,2.7,4.9c0-2.7,0.4-3.1,3.1-5.8C59,125.2,59.5,122.3,59,119.4
		L59,119.4z"/>
	<path class="st13" d="M58.1,126.9c-1.3,0.4-2.2,3.1-3.1,5.8c-1.4-2.3-3.6-4-6.2-4.9c0,0,0.4,4.4,2.2,5.3s4,1.8,4,3.1
		c0.6-1.3,1.3-2.5,2.2-3.6C58.6,131.1,58.9,128.9,58.1,126.9"/>
	<path class="st14" d="M49.7,128.3c2,0.5,3.9,1.6,5.3,3.1c1.8,2.2-2.7-0.4-3.6-1.8C50.6,129.6,50.1,128.7,49.7,128.3"/>
	<path class="st14" d="M58.1,126.9c0,0,1.3,4.4-0.9,6.2S58.1,126.9,58.1,126.9"/>
	<path class="st1" d="M57.7,132.7c-1,1-1.8,2.2-2.2,3.6c0-1.3-2.2-2.2-4-3.1s-2.2-5.3-2.2-5.3c2.7,0.5,5.1,2.3,6.2,4.9
		c0.9-2.2,1.8-5.3,3.1-5.8C59,128.9,58.7,131,57.7,132.7 M59,125.6c0,0-2.7,1.3-3.1,3.1c-0.4,0.9-0.4,1.8-0.9,2.7
		c-0.9-3.6-7.1-4.4-7.6-4c0.1,1.4,0.4,2.7,0.9,4c0.4,1.8,1.8,3.1,4.4,4s3.1,4.9,3.1,4.9c0-2.7,0.4-3.1,2.7-6.2
		C59.8,131.4,60,128.4,59,125.6L59,125.6z"/>
	<path class="st13" d="M59.5,134c-1.3,0.4-2.2,3.6-2.7,5.8c-1.3-2.3-3.6-3.9-6.2-4.4c0,0,0.4,4.4,2.7,5.3s4,1.3,4.4,2.7
		c0.5-1.2,1.1-2.4,1.8-3.6C59.9,137.9,59.9,136,59.5,134"/>
	<path class="st14" d="M50.6,135.8c2.1,0.3,4,1.4,5.3,3.1c1.8,2.2-2.7-0.4-3.6-1.3C51.9,136.7,51,136.3,50.6,135.8"/>
	<path class="st14" d="M59,133.6c0,0,1.8,4-0.4,6.2S59,133.6,59,133.6"/>
	<path class="st1" d="M59,139.8c-0.8,1.1-1.4,2.3-1.8,3.6c-0.4-1.3-2.7-2.2-4.4-2.7s-2.7-5.3-2.7-5.3c2.6,0.5,4.9,2.1,6.2,4.4
		c0.4-2.2,1.3-5.3,2.7-5.8C59.9,135.9,59.9,138,59,139.8 M59.9,132.3c0,0-2.7,1.8-3.1,3.1c-0.4,0.8-0.5,1.8-0.4,2.7
		c-1.3-3.6-7.6-4-7.6-3.6c0.4,1.3,0.4,2.7,1.3,4c0.7,2.1,2.7,3.5,4.9,3.6c2.7,0.4,3.6,4.9,3.6,4.9c-0.4-2.7,0-3.1,2.2-6.2
		C60.9,137.9,60.6,135,59.9,132.3L59.9,132.3z"/>
	<path class="st13" d="M60.8,140.3c-1.3,0.4-1.8,3.6-2.2,6.2c-1.3-2.2-4-3.6-6.7-4c0,0,0.9,4.4,3.1,4.9s4.4,1.3,4.4,2.7
		c0.4-1.4,1-2.8,1.8-4C61.7,144.1,61.6,142.1,60.8,140.3"/>
	<path class="st14" d="M51.9,142.9c2.2,0,4.3,1,5.8,2.7c2.2,2.2-2.7,0-3.6-0.9C53.5,144,52.7,143.4,51.9,142.9"/>
	<path class="st14" d="M60.4,140.3c0,0,2.2,4,0,6.2S60.4,140.3,60.4,140.3"/>
	<path class="st1" d="M60.8,146.5c-0.8,1.2-1.4,2.6-1.8,4c-0.4-1.3-2.7-1.8-4.4-2.7s-3.1-5.3-3.1-5.3c2.8,0.1,5.3,1.6,6.7,4
		c0.4-2.2,0.9-5.3,2.2-6.2C61.6,142.1,61.8,144.5,60.8,146.5 M60.8,138.9c-1.3,0.9-2.2,2.1-2.7,3.6c-0.4,0.8-0.5,1.8-0.4,2.7
		c-1.8-3.1-8-3.6-8-3.1l1.3,4c1,1.9,2.8,3.2,4.9,3.6c2.7,0.4,3.6,4.4,3.6,4.4c-0.4-2.7,0-3.1,1.8-6.2
		C62.2,144.9,62.1,141.7,60.8,138.9L60.8,138.9z"/>
	<path class="st13" d="M62.1,146.1c-1.3,0.9-1.8,4-1.8,6.2c-1.8-2.1-4.4-3.2-7.1-3.1c0,0,1.3,4.4,3.6,4.9s4.4,0.9,4.9,2.2l1.3-4
		C63.4,150.2,63.1,148,62.1,146.1"/>
	<path class="st14" d="M53.7,149.2c2.2-0.1,4.4,0.5,6.2,1.8c2.2,2.2-2.7,0-4-0.9C55,150.1,54.6,149.6,53.7,149.2"/>
	<path class="st14" d="M62.1,145.6c0,0,2.7,4,0.4,6.2C60.4,154.1,62.1,145.6,62.1,145.6"/>
	<path class="st1" d="M63,151.8l-1.3,4c-0.4-1.3-2.7-1.8-4.9-2.2s-3.6-4.4-3.6-4.4c2.7-0.1,5.3,1,7.1,3.1c0.4-2.7,0.4-5.8,1.8-6.2
		C63.1,147.8,63.5,149.9,63,151.8 M62.1,144.3c-1,1-1.8,2.2-2.2,3.6c0,1.1-0.1,2.1-0.4,3.1c-1.8-3.1-8-2.7-8.4-2.2
		c0.4,1.4,1,2.8,1.8,4c1.2,1.8,3.2,3,5.3,3.1c2.7,0,4,4,4,4c-0.9-2.7-0.4-3.1,0.9-6.7S63.9,146.5,62.1,144.3L62.1,144.3z"/>
	<path class="st13" d="M64.8,151.8c-1.3,0.9-0.9,4-0.9,6.7c-2.1-1.8-4.8-2.6-7.6-2.2c0,0,1.8,4,4,4.4s4.4,0,5.3,1.3
		c0.1-1.4,0.4-2.7,0.9-4C66.7,155.8,66.1,153.7,64.8,151.8"/>
	<path class="st14" d="M56.4,156.3c2.2-0.5,4.4,0,6.2,1.3c2.7,1.8-3.1,0.4-4-0.4C57.8,157,57,156.7,56.4,156.3"/>
	<path class="st14" d="M64.4,151.4c0,0,3.1,3.6,1.3,6.2S64.4,151.4,64.4,151.4"/>
	<path class="st1" d="M66.1,157.6c-0.5,1.3-0.8,2.6-0.9,4c-0.4-1.3-3.1-1.3-5.3-1.3s-4-4.4-4-4.4c2.7-0.4,5.5,0.4,7.6,2.2
		c0-2.7,0-5.8,0.9-6.7C66,153,66.7,155.4,66.1,157.6 M64.8,150.1c-1,1.1-1.7,2.5-1.8,4v3.1c-2.2-3.1-8.4-1.3-8.4-1.3
		c0.5,1.3,1.2,2.5,2.2,3.6c1.3,1.8,3.6,2.7,5.8,2.2c2.7,0,4.9,3.6,4.9,3.6c-0.9-2.7-0.9-3.1,0.4-6.7
		C67.5,155.5,66.4,152.6,64.8,150.1L64.8,150.1z"/>
	<path class="st13" d="M67.5,157.6c-0.9,0.9-0.4,4,0,6.7c-2.2-1.8-5.3-1.8-8-1.3c0,0,2.7,3.6,4.9,3.6s4.4-0.4,5.3,0.9v-4.4
		C69.7,160.7,68.8,158.5,67.5,157.6"/>
	<path class="st14" d="M60.4,162.9c2-0.9,4.2-0.9,6.2,0c2.7,1.3-2.7,0.9-4,0.4C61.9,163,61.1,162.8,60.4,162.9"/>
	<path class="st14" d="M67,157.2c0,0,3.6,3.1,2.2,5.8S67,157.2,67,157.2"/>
	<path class="st1" d="M69.7,162.9v4.4c-0.9-1.3-3.1-0.9-5.3-0.9c-2.2,0-4.9-3.6-4.9-3.6c2.7-0.9,5.7-0.4,8,1.3
		c-0.4-2.7-0.9-5.8,0-6.7C69.2,158.8,70,160.9,69.7,162.9 M67.5,155.8c-0.9,1.3-1.4,2.9-1.3,4.4c0,0.9,0.4,1.8,0.4,3.1
		c-2.7-2.7-8.4,0-8.9,0c0.8,1.1,1.7,2.2,2.7,3.1c1.8,1.3,4,2.2,5.8,1.3c2.7-0.4,5.3,2.7,5.3,2.7c-1.3-2.7-1.3-3.1-0.9-6.7
		S67.5,155.8,67.5,155.8L67.5,155.8z"/>
	<path class="st13" d="M71,163.4c-0.9,1.3,0,4,0.4,6.7c-2.7-1.3-5.3-1.8-8-0.4c0,0,3.1,3.6,4.9,3.1s4.4-0.9,5.3,0
		c-0.4-1.5-0.5-3-0.4-4.4C74.1,166.1,72.8,164.3,71,163.4"/>
	<path class="st14" d="M64.4,169.6c2-0.8,4.2-1,6.2-0.4c3.1,0.9-2.7,0.9-4,0.9C65.9,169.7,65.1,169.5,64.4,169.6"/>
	<path class="st14" d="M71,162.9c0,0,4,2.7,2.7,5.8S71,162.9,71,162.9"/>
	<path class="st1" d="M74.1,168.7c-0.1,1.5,0.1,3,0.4,4.4c-0.9-0.9-3.6-0.4-5.3,0s-4.9-3.1-4.9-3.1c2.7-1.3,5.3-0.9,8,0.4
		c-0.9-2.2-1.3-5.3-0.4-6.7C73.2,165.2,74,166.9,74.1,168.7 M71,162.1c-0.7,1.4-1,2.9-0.9,4.4c0.1,0.9,0.4,1.9,0.9,2.7
		c-3.1-2.2-8.4,0.4-8.9,0.9c0.9,1.1,2,2.2,3.1,3.1c1.8,1.4,4.1,1.7,6.2,0.9c2.7-0.9,5.3,2.2,5.3,2.2c-1.8-2.2-1.8-3.1-1.3-6.7
		S71,161.6,71,162.1z"/>
	<path class="st13" d="M75.9,168.7c-0.9,1.3,0.4,4,1.3,6.7c-2.6-1.2-5.6-1-8,0.4c0,0,3.1,3.1,5.3,2.7s4.4-1.3,5.3-0.4
		c-0.4-1.4-0.5-2.9-0.4-4.4C78.9,171.6,77.6,169.9,75.9,168.7"/>
	<path class="st14" d="M69.7,175.8c1.9-1,4.1-1.3,6.2-0.9c3.1,0.9-2.7,1.3-4,1.3C71.2,175.9,70.5,175.7,69.7,175.8"/>
	<path class="st14" d="M75.5,168.7c0,0,4,2.2,3.1,5.3S75.9,168.7,75.5,168.7"/>
	<path class="st1" d="M79.5,174.1c0,1.3,0.4,2.7,0.4,4.4c-0.9-0.9-3.6,0-5.3,0.4s-5.3-3.1-5.3-3.1c2.7-1.3,5.3-1.8,8-0.4
		c-0.9-2.2-2.2-5.3-1.3-6.7C77.7,170,79,171.9,79.5,174.1 M75.5,167.4c-0.6,1.4-0.7,3-0.4,4.4l1.3,2.7c-3.1-2.2-8.4,1.3-8.4,1.8
		c1.1,1,2.3,1.9,3.6,2.7c1.9,1.3,4.4,1.3,6.2,0c2.7-0.9,5.8,1.8,5.8,1.8c-1.8-2.2-1.8-2.7-2.2-6.7S75.5,167,75.5,167.4L75.5,167.4z"
		/>
	<path class="st13" d="M81.2,173.6c-0.4,1.3,1.3,4,2.7,6.2c-2.9-0.6-5.9,0.2-8,2.2c0,0,4,2.7,5.8,1.3s4-2.2,5.3-1.3
		c-0.8-1.2-1.3-2.6-1.3-4C85.1,175.9,83.4,174.2,81.2,173.6"/>
	<path class="st14" d="M76.4,181.6c1.8-1.4,4-2.2,6.2-2.2c3.1,0-2.2,1.8-3.6,1.8C78.1,181.1,77.2,181.3,76.4,181.6"/>
	<path class="st14" d="M80.8,173.2c0,0,4.4,1.3,4.4,4.9S80.8,173.2,80.8,173.2"/>
	<path class="st1" d="M85.3,177.6c0.4,1.3,0.9,2.7,1.3,4c-1.3-0.9-3.6,0.4-5.3,1.3s-5.8-1.8-5.8-1.8c2.2-1.9,5.2-2.6,8-1.8
		c-1.3-2.2-3.1-4.9-2.7-6.2C83,173.8,84.7,175.5,85.3,177.6 M80.4,171.8c-0.3,1.5-0.1,3,0.4,4.4c0.4,1,1,1.9,1.8,2.7
		c-3.6-1.3-8.4,3.1-8,3.6c1.2,0.8,2.6,1.4,4,1.8c2.1,0.8,4.5,0.5,6.2-0.9c2.2-1.3,6.2,0.4,6.2,0.4c-2.2-1.8-2.2-2.2-3.6-5.8
		S80.4,171.8,80.4,171.8L80.4,171.8z"/>
	<path class="st13" d="M87.5,177.6c-0.4,1.3,1.8,4,3.6,5.8c-2.9,0-5.7,1.3-7.6,3.6c0,0,4.4,1.8,6.2,0.4s3.6-3.1,4.9-2.7
		c-0.9-1.1-1.6-2.3-2.2-3.6C91.4,179.3,89.6,178,87.5,177.6"/>
	<path class="st14" d="M84.4,186.5c1.3-1.8,3.6-2.7,5.8-3.6c3.1-0.4-1.8,2.2-3.1,2.7C86.1,186.1,85.3,186.1,84.4,186.5"/>
	<path class="st14" d="M87,177.6c0,0,4.9,0.9,5.3,4S87,177.6,87,177.6"/>
	<path class="st1" d="M92.8,181.2c0.5,1.3,1.2,2.5,2.2,3.6c-1.3-0.4-3.1,0.9-4.9,2.2s-6.2-0.4-6.2-0.4c1.8-2.3,4.6-3.6,7.6-3.6
		c-1.8-1.8-4-4.4-3.6-5.8C89.8,178.1,91.5,179.5,92.8,181.2 M86.1,176.3c0,1.6,0.4,3.1,1.3,4.4c0.4,0.9,1.3,1.3,2.2,2.2
		c-4-0.9-7.6,4.4-7.6,4.9c1.3,0.4,3.1,0.9,4.4,1.3c2.2,0.4,4.4-0.4,5.8-2.2c1.8-1.8,6.2-0.4,6.2-0.4c-2.7-1.3-2.7-1.8-4.4-5.3
		S86.1,176.3,86.1,176.3L86.1,176.3z"/>
	<path class="st13" d="M126.6,67.8c1.3-0.4,4,0.4,5.8,1.3c-1-2.3-0.8-4.9,0.4-7.1c0,0,2.7,3.1,2.2,4.9s-1.3,4-0.4,4.9
		c-1.3-0.4-2.7-0.5-4-0.4C129.3,70.5,127.5,69.6,126.6,67.8"/>
	<path class="st14" d="M133.3,62.5c-1,1.8-1.3,3.8-0.9,5.8c0.4,2.7,1.3-2.2,0.9-3.6V62.5"/>
	<path class="st14" d="M126.6,67.4c0,0,2.2,3.6,4.9,3.1S126.6,67.4,126.6,67.4"/>
	<path class="st1" d="M126.6,67.8c1.3-0.4,4,0.4,5.8,1.3c-1-2.3-0.8-4.9,0.4-7.1c0,0,2.7,3.1,2.2,4.9s-1.3,4-0.4,4.9
		c-1.3-0.4-2.7-0.5-4-0.4C129.3,70.5,127.5,69.6,126.6,67.8 M131.5,72.2c3.6,0.4,4,0,5.8,2.2c0,0-2.7-3.1-1.3-5.3
		c0.9-1.8,0.9-4,0-5.8c-0.6-1.1-1.4-2.2-2.2-3.1c-0.4,0-3.6,4.9-1.8,7.6c-2.1-1.1-4.5-1.3-6.7-0.4C125.3,67.4,127.9,71.8,131.5,72.2
		L131.5,72.2z"/>
	<path class="st13" d="M132.4,72.2c1.3-0.9,4,0.4,5.8,1.3c-1-2.3-0.8-4.9,0.4-7.1c0,0,2.7,3.1,2.2,4.9s-1.3,4-0.4,4.9
		c-1.3-0.4-2.7-0.5-4-0.4C134.7,75.1,133.2,73.9,132.4,72.2"/>
	<path class="st14" d="M139,66.9c-1,1.8-1.3,3.8-0.9,5.8c0.4,2.7,1.3-2.2,0.9-3.6V66.9"/>
	<path class="st14" d="M132.4,72.2c0,0,2.2,3.6,4.9,3.1S132.4,72.2,132.4,72.2"/>
	<path class="st1" d="M132.4,72.2c1.3-0.9,4,0.4,5.8,1.3c-1-2.3-0.8-4.9,0.4-7.1c0,0,2.7,3.1,2.2,4.9s-1.3,4-0.4,4.9
		c-1.3-0.4-2.7-0.5-4-0.4C134.7,75.1,133.2,73.9,132.4,72.2 M137.3,76.7c3.6,0.4,4,0,5.8,2.2c0,0-2.2-3.1-1.3-5.3
		c0.9-1.8,0.9-4,0-5.8c-0.6-1.1-1.4-2.2-2.2-3.1c-0.4,0-3.6,4.9-1.8,7.6c-0.7-0.4-1.4-0.7-2.2-0.9c-1.3-0.3-2.8-0.1-4,0.4
		C131,71.8,133.7,76.3,137.3,76.7L137.3,76.7z"/>
	<path class="st13" d="M136.8,77.6c1.3-0.4,3.6,0.4,5.8,1.8c-1-2.4-0.4-5.2,1.3-7.1c0,0,2.7,3.1,1.8,4.9s-1.8,4-0.9,4.9
		c-1.1-0.5-2.3-0.8-3.6-0.9C139,80.3,137.3,78.9,136.8,77.6"/>
	<path class="st14" d="M143.5,72.2c-0.9,1.8-1.8,3.6-1.3,5.8c0.4,2.7,1.3-2.2,1.3-3.1C143.1,74.1,143.1,73.1,143.5,72.2"/>
	<path class="st14" d="M136.4,77.1c0,0,1.8,4,4.4,3.6S136.4,77.1,136.4,77.1"/>
	<path class="st1" d="M136.8,77.6c1.3-0.4,3.6,0.4,5.8,1.8c-1-2.4-0.4-5.2,1.3-7.1c0,0,2.7,3.1,1.8,4.9s-1.8,4-0.9,4.9
		c-1.1-0.5-2.3-0.8-3.6-0.9C139,80.3,137.3,78.9,136.8,77.6 M141.3,82c3.6,0.4,4,0.4,5.8,2.2c0,0-2.2-3.1-1.3-5.3
		c1.2-1.7,1.4-3.9,0.4-5.8c-0.6-1.3-1.3-2.5-2.2-3.6c-0.4,0-4,4.4-2.2,7.6c-0.9-0.4-1.3-0.9-2.2-1.3c-1.3-0.4-2.7-0.4-4,0
		C135,76.7,137.7,81.6,141.3,82L141.3,82z"/>
	<path class="st13" d="M139.9,82.5c1.3-0.4,3.6,1.3,5.3,2.2c-0.4-2.5,0.4-5,2.2-6.7c0,0,2.2,3.6,1.3,5.3s-2.2,3.6-1.3,4.9
		c-1.3-0.4-2.2-1.3-3.6-1.3C142,86.2,140.5,84.5,139.9,82.5"/>
	<path class="st14" d="M147.5,78.5c-1.3,1.3-1.8,3.6-2.2,5.3c0,2.7,1.8-2.2,1.8-3.1C147,79.9,147.2,79.2,147.5,78.5"/>
	<path class="st14" d="M139.9,82c0,0,1.3,4,4,4S139.9,82,139.9,82"/>
	<path class="st1" d="M139.9,82.5c1.3-0.4,3.6,1.3,5.3,2.2c-0.4-2.5,0.4-5,2.2-6.7c0,0,2.2,3.6,1.3,5.3s-2.2,3.6-1.3,4.9
		c-1.3-0.4-2.2-1.3-3.6-1.3C142,86.2,140.5,84.5,139.9,82.5 M143.9,87.8c3.1,0.9,4,0.9,5.3,3.1c0,0-1.8-3.6-0.4-5.3
		c1.4-1.4,1.7-3.5,0.9-5.3c-0.4-1.3-1-2.5-1.8-3.6c-0.4,0-4.4,4-3.6,7.1c-0.7-0.6-1.4-1.2-2.2-1.8c-1.2-0.6-2.7-0.7-4-0.4
		C138.6,81.6,140.8,86.9,143.9,87.8L143.9,87.8z"/>
	<path class="st13" d="M143.1,88.3c1.3-0.4,3.6,1.8,5.3,3.1c0-2.7,0.9-5.3,3.1-6.7c0,0,1.8,4,0.4,5.3s-2.7,3.6-2.2,4.4
		c-1-0.9-2.3-1.5-3.6-1.8C144.5,91.8,143.4,90.1,143.1,88.3"/>
	<path class="st14" d="M151.1,85.1c-1.6,1.4-2.5,3.3-2.7,5.3c-0.4,3.1,2.2-1.8,2.2-3.1C150.5,86.6,150.6,85.8,151.1,85.1"/>
	<path class="st14" d="M142.6,87.8c0,0,0.9,4.4,3.6,4.4S142.6,87.8,142.6,87.8"/>
	<path class="st1" d="M143.1,88.3c1.3-0.4,3.6,1.8,5.3,3.1c0-2.7,0.9-5.3,3.1-6.7c0,0,1.8,4,0.4,5.3s-2.7,3.6-2.2,4.4
		c-1-0.9-2.3-1.5-3.6-1.8C144.5,91.8,143.4,90.1,143.1,88.3 M146.2,94c3.1,1.3,3.6,1.3,4.9,4c0,0-1.3-3.6,0-5.8
		c1.4-1.4,2.1-3.4,1.8-5.3l-1.3-4c-0.4,0-4.9,3.6-4.4,6.7c-0.5-0.8-1.3-1.4-2.2-1.8c-1.2-0.7-2.6-1-4-0.9
		C141.7,86.9,143.1,92.7,146.2,94L146.2,94z"/>
	<path class="st13" d="M145.7,94.5c1.3,0,3.1,2.2,4.9,4c0-2.7,1.8-4.9,3.6-6.7c0,0,1.3,4,0,5.8s-3.1,3.1-2.7,4.4
		c-0.9-0.9-2-1.6-3.1-2.2C146.7,98.6,145.7,96.6,145.7,94.5"/>
	<path class="st14" d="M153.7,92.3c-1.8,1.3-3.1,2.7-3.6,4.9c-0.9,2.7,2.2-1.8,2.7-2.7S153.7,93.1,153.7,92.3"/>
	<path class="st14" d="M145.3,94c0,0,0,4.4,3.1,4.9S145.3,94,145.3,94"/>
	<path class="st1" d="M145.7,94.5c1.3,0,3.1,2.2,4.9,4c0-2.7,1.8-4.9,3.6-6.7c0,0,1.3,4,0,5.8s-3.1,3.1-2.7,4.4
		c-0.9-0.9-2-1.6-3.1-2.2C146.7,98.6,145.7,96.6,145.7,94.5 M147.9,100.7c3.1,1.8,3.6,1.8,4.4,4.4c0,0-0.9-4,0.9-5.3
		c1.8-1.1,2.7-3.3,2.2-5.3c-0.1-1.4-0.4-2.7-0.9-4c-0.4,0-5.3,2.7-5.3,6.2c-0.4-0.9-1.3-1.3-1.8-2.2c-1.1-1-2.5-1.4-4-1.3
		C144.4,93.1,144.8,98.9,147.9,100.7L147.9,100.7z"/>
	<path class="st13" d="M147.5,100.7c1.3,0,3.1,2.7,4.4,4.4c0.5-2.7,2.3-5.1,4.9-6.2c0,0,0.9,4.4-0.9,5.8s-3.6,2.7-3.1,4
		c-0.9-0.9-1.8-2.2-3.1-2.7C148.4,104.6,147.6,102.7,147.5,100.7"/>
	<path class="st14" d="M156.4,99.8c-1.9,1-3.4,2.6-4.4,4.4c-1.3,2.7,2.7-1.3,3.1-2.2C155.1,101.1,155.5,100.7,156.4,99.8"/>
	<path class="st14" d="M147.5,100.3c0,0-0.4,4.4,2.2,5.3C152.8,106.9,147.5,100.3,147.5,100.3"/>
	<path class="st1" d="M147.5,100.7c1.3,0,3.1,2.7,4.4,4.4c0.5-2.7,2.3-5.1,4.9-6.2c0,0,0.9,4.4-0.9,5.8s-3.6,2.7-3.1,4
		c-0.9-0.9-1.8-2.2-3.1-2.7C148.4,104.6,147.6,102.7,147.5,100.7 M149.3,107.4c2.7,2.2,3.1,2.2,4,5.3c0,0-0.4-4,1.8-5.3
		c1.9-0.9,3.1-2.8,3.1-4.9v-4c-0.4-0.4-5.8,2.2-6.2,5.8c-0.8-2.2-2.6-3.8-4.9-4.4C147.1,99.4,146.6,105.1,149.3,107.4L149.3,107.4z"
		/>
	<path class="st13" d="M148.8,107.8c1.3,0,2.7,2.7,4,4.9c0.8-2.6,2.8-4.6,5.3-5.3c0,0,0.4,4.4-1.3,5.3s-3.6,2.2-3.6,3.6
		c-0.8-1.1-1.7-2.2-2.7-3.1C149.4,111.7,148.7,109.8,148.8,107.8"/>
	<path class="st14" d="M157.7,107.8c-1.9,0.8-3.4,2.2-4.4,4c-1.3,2.7,2.7-0.9,3.1-2.2C156.8,109.2,157.3,108.3,157.7,107.8"/>
	<path class="st14" d="M148.8,107.4c0,0-0.9,4.4,1.8,5.8S148.8,107.4,148.8,107.4"/>
	<path class="st1" d="M148.8,107.8c1.3,0,2.7,2.7,4,4.9c0.8-2.6,2.8-4.6,5.3-5.3c0,0,0.4,4.4-1.3,5.3s-3.6,2.2-3.6,3.6
		c-0.8-1.1-1.7-2.2-2.7-3.1C149.4,111.7,148.7,109.8,148.8,107.8 M149.7,114.5c2.7,2.7,3.1,2.7,3.1,5.8c0,0,0-4,2.2-5.3
		c1.8-0.9,3.6-2.2,3.6-4.4c0-1.3,0.4-2.7,0.4-4c-0.4-0.4-6.2,1.3-6.7,4.9l-1.3-2.7c-0.9-1.3-2.2-1.8-3.6-2.7
		C148.4,106.5,147.5,111.8,149.7,114.5L149.7,114.5z"/>
	<path class="st13" d="M149.7,114c1.3,0.4,2.7,3.1,3.6,5.3c0.9-2.6,3.1-4.5,5.8-4.9c0,0,0,4.4-1.8,5.3s-3.6,2.2-4,3.6
		c-0.5-1.2-1.2-2.3-2.2-3.1C149.7,118.5,149.2,116.2,149.7,114"/>
	<path class="st14" d="M158.6,114.9c-2,0.6-3.7,1.9-4.9,3.6c-1.3,2.7,2.7-0.9,3.1-1.8C157.2,115.9,157.8,115.3,158.6,114.9"/>
	<path class="st14" d="M149.7,114c0,0-1.3,4.4,1.3,5.8S149.7,114,149.7,114"/>
	<path class="st1" d="M149.7,114c1.3,0.4,2.7,3.1,3.6,5.3c0.9-2.6,3.1-4.5,5.8-4.9c0,0,0,4.4-1.8,5.3s-3.6,2.2-4,3.6
		c-0.5-1.2-1.2-2.3-2.2-3.1C149.7,118.5,149.2,116.2,149.7,114 M150.2,121.2c2.2,2.7,2.7,3.1,3.1,5.8c0,0,0.4-4,2.7-4.9
		c2.1-0.5,3.7-2.3,4-4.4c0.4-1.3,0.5-2.7,0.4-4c-0.4-0.4-6.2,0.9-7.1,4.4c-0.4-0.9-0.4-1.8-0.9-2.7c-0.7-1.2-1.8-2.2-3.1-2.7
		C148.8,112.7,147.9,118.5,150.2,121.2L150.2,121.2z"/>
	<path class="st13" d="M150.2,120.7c1.3,0.4,2.7,3.1,3.6,5.3c0.9-2.6,3.1-4.5,5.8-4.9c0,0,0,4.4-1.8,5.3s-3.6,2.2-4,3.6
		c-0.5-1.2-1.2-2.3-2.2-3.1C150.1,125.2,149.6,122.9,150.2,120.7"/>
	<path class="st14" d="M158.6,121.2c-1.9,0.8-3.6,2-4.9,3.6c-1.8,2.7,2.7-0.9,3.1-1.8C157.6,122.6,158.3,121.9,158.6,121.2"/>
	<path class="st14" d="M150.2,120.3c0,0-1.3,4.4,1.3,5.8S150.2,120.3,150.2,120.3"/>
	<path class="st1" d="M150.2,120.7c1.3,0.4,2.7,3.1,3.6,5.3c0.9-2.6,3.1-4.5,5.8-4.9c0,0,0,4.4-1.8,5.3s-4,1.8-4,3.1
		c-0.5-1.2-1.2-2.3-2.2-3.1C150,125,149.5,122.7,150.2,120.7 M150.6,127.4c2.2,2.7,2.7,3.1,3.1,5.8c0,0,0.4-4,2.7-4.9
		c2.1-0.5,3.7-2.3,4-4.4c0.4-1.3,0.5-2.7,0.4-4c-0.4-0.4-6.2,0.9-7.1,4.4l-1.3-2.7c-0.9-1.1-1.9-2-3.1-2.7
		C148.8,121.8,149.2,124.8,150.6,127.4L150.6,127.4z"/>
	<path class="st13" d="M149.7,126.9c1.3,0.4,2.2,3.1,3.1,5.8c1.4-2.3,3.6-4,6.2-4.9c0,0-0.4,4.4-2.2,5.3s-4,1.8-4,3.1
		c-0.6-1.3-1.3-2.5-2.2-3.6C149.5,131,149.1,128.9,149.7,126.9"/>
	<path class="st14" d="M158.6,128.3c-2,0.5-3.9,1.6-5.3,3.1c-1.8,2.2,2.7-0.4,3.6-1.8C157.3,129.6,158.2,128.7,158.6,128.3"/>
	<path class="st14" d="M149.7,126.5c0,0-1.3,4.4,0.9,6.2C153.3,134.5,149.7,126.5,149.7,126.5"/>
	<path class="st1" d="M149.7,126.9c1.3,0.4,2.2,3.1,3.1,5.8c1.4-2.3,3.6-4,6.2-4.9c0,0-0.4,4.4-2.2,5.3s-4,1.8-4,3.1
		c-0.6-1.3-1.3-2.5-2.2-3.6C149.5,131,149.1,128.9,149.7,126.9 M149.7,134c2.2,2.7,2.7,3.1,2.7,6.2c0,0,0.4-4,3.1-4.9
		c2.1-0.4,3.8-1.9,4.4-4c0.4-1.3,0.4-2.7,0.9-4c-0.4-0.4-6.2,0.4-7.6,4c-0.4-0.9-0.4-1.8-0.9-2.7c-0.4-1.8-3.1-2.7-3.1-2.7
		S147.5,130.9,149.7,134L149.7,134z"/>
	<path class="st13" d="M148.8,134c1.3,0.4,2.2,3.6,2.7,5.8c1.4-2.4,3.9-4.1,6.7-4.4c0,0-0.9,4.4-2.7,5.3s-4,1.3-4.4,2.7
		c-0.3-1.3-0.9-2.5-1.8-3.6C148.4,138.1,147.9,135.8,148.8,134"/>
	<path class="st14" d="M157.7,135.8c-2.1,0.3-4,1.4-5.3,3.1c-1.8,2.2,2.7-0.4,3.6-1.3C156.3,136.8,156.9,136.2,157.7,135.8"/>
	<path class="st14" d="M148.8,133.6c0,0-1.8,4,0.4,6.2S148.8,133.6,148.8,133.6"/>
	<path class="st1" d="M148.8,134c1.3,0.4,2.2,3.6,2.7,5.8c1.4-2.4,3.9-4.1,6.7-4.4c0,0-0.9,4.4-2.7,5.3s-4,1.3-4.4,2.7
		c-0.3-1.3-0.9-2.5-1.8-3.6C148.4,138.1,147.9,135.8,148.8,134 M148.4,140.7c1.8,3.1,2.2,3.6,2.2,6.2c0,0,0.9-4,3.6-4.9
		c2-0.4,3.6-1.7,4.4-3.6l1.3-4c0-0.4-6.2,0-7.6,3.6c-0.1-0.9-0.4-1.9-0.9-2.7c-0.4-1.8-3.1-3.1-3.1-3.1
		C147.1,134.9,147.1,138.1,148.4,140.7L148.4,140.7z"/>
	<path class="st13" d="M147.5,140.3c1.3,0.4,1.8,3.6,2.2,6.2c1.3-2.2,4-3.6,6.7-4c0,0-0.9,4.4-3.1,4.9s-4.4,1.3-4.4,2.7
		c-0.4-1.4-1-2.8-1.8-4C146.5,144.1,146.7,142.1,147.5,140.3"/>
	<path class="st14" d="M156.4,142.9c-2.2,0-4.3,1-5.8,2.7c-2.2,2.2,2.7-0.4,3.6-0.9C154.7,143.9,155.5,143.3,156.4,142.9"/>
	<path class="st14" d="M147.5,140.3c0,0-2.2,4,0,6.2S147.5,140.3,147.5,140.3"/>
	<path class="st1" d="M147.5,140.3c1.3,0.4,1.8,3.6,2.2,6.2c1.3-2.2,4-3.6,6.7-4c0,0-0.9,4.4-3.1,4.9s-4.4,1.3-4.4,2.7
		c-0.4-1.4-1-2.8-1.8-4C146.5,144.1,146.7,142.1,147.5,140.3 M146.6,147.4c1.8,3.1,2.2,3.6,1.8,6.7c0,0,1.3-4,3.6-4.4
		c2.2,0,4.2-1.4,4.9-3.6l1.3-4c0-0.4-6.7-0.4-8,3.1c0-0.9-0.4-1.8-0.4-2.7c-0.4-1.8-2.7-3.6-2.7-3.6
		C145.7,141.2,145.7,144.3,146.6,147.4L146.6,147.4z"/>
	<path class="st13" d="M146.2,145.6c1.3,0.9,1.3,4,1.8,6.2c1.8-2.1,4.4-3.2,7.1-3.1c0,0-1.3,4.4-3.6,4.9s-4.4,0.9-4.9,2.2
		c-0.4-1.3-0.9-2.7-1.3-4C144.8,149.6,144.8,147.4,146.2,145.6"/>
	<path class="st14" d="M154.6,149.2c-2.2,0.1-4.3,0.7-6.2,1.8c-2.2,1.8,2.7,0,4-0.9C153.2,149.9,153.9,149.6,154.6,149.2"/>
	<path class="st14" d="M146.2,145.6c0,0-2.7,4-0.4,6.2S146.2,145.6,146.2,145.6"/>
	<path class="st1" d="M146.2,145.6c1.3,0.9,1.3,4,1.8,6.2c1.8-2.1,4.4-3.2,7.1-3.1c0,0-1.3,4.4-3.6,4.9s-4.4,0.9-4.9,2.2
		c-0.4-1.3-0.9-2.7-1.3-4C144.8,149.6,144.8,147.4,146.2,145.6 M144.4,152.7c1.3,3.6,1.8,4,0.9,6.7c0,0,1.8-4,4-4
		c2.1,0.1,4.1-0.9,5.3-2.7c0.8-1.2,1.4-2.6,1.8-4c0-0.4-6.2-0.9-8.4,2.2v-3.1c-0.5-1.3-1.2-2.5-2.2-3.6
		C144.3,146.9,143.9,149.8,144.4,152.7L144.4,152.7z"/>
	<path class="st13" d="M143.5,151.8c1.3,0.9,0.9,4,0.9,6.7c2.1-1.8,4.8-2.6,7.6-2.2c0,0-1.8,4-4,4.4s-4.4,0-5.3,1.3
		c-0.1-1.4-0.4-2.7-0.9-4C141.6,155.8,142.2,153.7,143.5,151.8"/>
	<path class="st14" d="M151.5,156.3c-2.2-0.5-4.4,0-6.2,1.3c-2.7,1.8,2.7,0.4,4-0.4C150.2,156.7,150.6,156.7,151.5,156.3"/>
	<path class="st14" d="M143.9,151.4c0,0-3.1,3.6-1.3,6.2S143.9,151.4,143.9,151.4"/>
	<path class="st1" d="M143.5,151.8c1.3,0.9,0.9,4,0.9,6.7c2.1-1.8,4.8-2.6,7.6-2.2c0,0-1.8,4-4,4.4s-4.4,0-5.3,1.3
		c-0.1-1.4-0.4-2.7-0.9-4C141.6,155.8,142.2,153.7,143.5,151.8 M140.8,158.9c0.9,3.6,1.3,4,0.4,6.7c0,0,2.2-3.6,4.4-3.6
		c2.2,0.4,4.4-0.4,5.8-2.2c0.9-1.1,1.6-2.3,2.2-3.6c0-0.4-6.2-1.8-8.4,1.3v-3.1c-0.4-1.4-1-2.8-1.8-4
		C141.7,152.9,140.8,155.9,140.8,158.9L140.8,158.9z"/>
	<path class="st13" d="M140.8,157.2c0.9,0.9,0.4,4,0,6.7c2.2-1.8,5.3-1.8,8-1.3c0,0-2.7,3.6-4.9,3.6s-4.4-0.4-5.3,0.9v-4.4
		C138.7,160.5,139.5,158.6,140.8,157.2"/>
	<path class="st14" d="M147.9,162.9c-2.1-0.4-4.2-0.4-6.2,0c-2.7,1.3,2.7,0.9,4,0.4C146.4,163.2,147.2,163.1,147.9,162.9"/>
	<path class="st14" d="M140.8,157.2c0,0-3.6,3.1-2.2,5.8S140.8,157.2,140.8,157.2"/>
	<path class="st1" d="M140.8,157.2c0.9,0.9,0.4,4,0,6.7c2.2-1.8,5.3-1.8,8-1.3c0,0-2.7,3.6-4.9,3.6s-4.4-0.4-5.3,0.9v-4.4
		C138.7,160.5,139.5,158.6,140.8,157.2 M137.3,163.4c0.4,3.6,0.9,4.4-0.9,6.7c0,0,2.7-3.6,5.3-2.7c2,1,4.4,0.4,5.8-1.3
		c0.9-0.9,1.8-2.2,2.7-3.1c0-0.4-5.8-2.7-8.9,0c0.4-1,0.5-2.1,0.4-3.1c0-1.6-0.4-3.1-1.3-4.4C141.3,154.9,136.8,159.8,137.3,163.4
		L137.3,163.4z"/>
	<path class="st13" d="M136.8,163.4c0.9,1.3,0,4-0.4,6.7c2.7-1.3,5.3-1.8,8-0.4c0,0-3.1,3.6-4.9,3.1s-4.4-0.9-5.3,0v-4.4
		C134,166.3,135,164.4,136.8,163.4"/>
	<path class="st14" d="M143.9,169.6c-2-0.8-4.2-1-6.2-0.4c-3.1,0.9,2.7,0.9,4,0.9C142.4,169.7,143.2,169.5,143.9,169.6"/>
	<path class="st14" d="M137.3,162.9c0,0-3.6,2.7-2.7,5.8S137.3,162.9,137.3,162.9"/>
	<path class="st1" d="M136.8,163.4c0.9,1.3,0,4-0.4,6.7c2.7-1.3,5.3-1.8,8-0.4c0,0-3.1,3.6-4.9,3.1s-4.4-0.9-5.3,0v-4.4
		C134,166.3,135,164.4,136.8,163.4 M132.8,168.7c0,3.6,0.4,4.4-1.3,6.7c0,0,3.1-3.1,5.3-2.2c2.1,0.8,4.5,0.5,6.2-0.9
		c1.2-0.8,2.3-1.9,3.1-3.1c0-0.4-5.8-3.1-8.9-0.9c0.2-0.9,0.5-1.8,0.9-2.7c0.1-1.5-0.2-3.1-0.9-4.4
		C137.3,161.2,132.8,165.6,132.8,168.7L132.8,168.7z"/>
	<path class="st13" d="M131.9,168.7c0.9,1.3-0.4,4-1.3,6.7c2.6-1.2,5.6-1,8,0.4c0,0-3.1,3.1-5.3,2.7s-4.4-1.3-5.3-0.4
		c0.4-1.5,0.5-3,0.4-4.4C129.3,171.4,130.2,169.6,131.9,168.7"/>
	<path class="st14" d="M138.2,175.8c-1.9-1-4.1-1.3-6.2-0.9c-3.1,0.9,2.7,1.3,3.6,1.3C136.3,175.9,137.2,175.8,138.2,175.8"/>
	<path class="st14" d="M132.4,168.7c0,0-4,2.2-3.1,5.3S132.4,168.7,132.4,168.7"/>
	<path class="st1" d="M131.9,168.7c0.9,1.3-0.4,4-1.3,6.7c2.7-0.9,5.8-0.9,8,0.4c0,0-3.6,3.1-5.3,2.7s-4.4-1.3-5.3-0.4
		c0.4-1.5,0.5-3,0.4-4.4C129.3,171.4,130.2,169.6,131.9,168.7 M127.5,174.1c0,3.6,0,4.4-2.2,6.7c0,0,3.1-2.7,5.8-1.8
		c1.9,1.3,4.4,1.3,6.2,0c1.3-0.9,2.2-1.8,3.6-2.7c0-0.4-5.3-4-8.4-1.8l1.3-2.7c0.3-1.5,0.1-3-0.4-4.4
		C132.8,167,127.9,170.5,127.5,174.1L127.5,174.1z"/>
	<path class="st13" d="M127,173.6c0.4,1.3-1.3,4-2.7,6.2c2.9-0.6,5.9,0.2,8,2.2c0,0-4,2.7-5.8,1.3c-1.8-1.3-4-2.2-5.3-1.3
		c0.8-1.2,1.3-2.6,1.3-4C123.5,175.4,124.8,174.1,127,173.6"/>
	<path class="st14" d="M131.5,181.6c-1.8-1.4-4-2.2-6.2-2.2c-3.1,0,2.2,1.8,3.6,1.8C130.2,181.2,131,181.2,131.5,181.6"/>
	<path class="st14" d="M127.5,173.2c0,0-4.4,1.3-4.4,4.9S127.5,173.2,127.5,173.2"/>
	<path class="st1" d="M127,173.6c0.4,1.3-1.3,4-2.7,6.2c2.9-0.6,5.9,0.2,8,2.2c0,0-4,2.7-5.8,1.3c-1.8-1.3-4-2.2-5.3-1.3
		c0.8-1.2,1.3-2.6,1.3-4C123.5,175.4,124.8,174.1,127,173.6 M121.3,177.6c-0.9,3.6-0.9,4.4-3.6,5.8c0,0,3.6-2.2,6.2-0.9
		c1.8,1.4,4.1,1.7,6.2,0.9c1.3-0.4,2.7-1.3,4-1.8c0-0.4-4.4-4.9-8-3.6c0.4-0.9,1.3-1.8,1.8-2.7c0.6-1.4,0.7-3,0.4-4.4
		C127.9,171.4,122.2,174.1,121.3,177.6L121.3,177.6z"/>
	<path class="st13" d="M120.8,177.6c0.4,1.3-1.8,4-3.6,5.8c2.9,0,5.7,1.3,7.6,3.6c0,0-4.4,1.8-6.2,0.4s-3.6-3.1-4.9-2.2
		c0.9-1.1,1.6-2.3,2.2-3.6C116.8,179,118.6,178.1,120.8,177.6"/>
	<path class="st14" d="M123.9,186.5c-1.3-1.8-3.6-2.7-5.8-3.6c-3.1-0.4,1.8,2.2,3.1,2.7C122.2,186.1,123,186.1,123.9,186.5"/>
	<path class="st14" d="M121.3,177.6c0,0-4.9,0.9-5.3,4S121.3,177.6,121.3,177.6"/>
	<path class="st1" d="M120.8,177.6c0.4,1.3-1.8,4-3.6,5.8c2.9,0,5.7,1.3,7.6,3.6c0,0-4.4,1.8-6.2,0.4s-3.6-3.1-4.9-2.2
		c0.9-1.1,1.6-2.3,2.2-3.6C116.8,179,118.6,178.1,120.8,177.6 M114.2,180.7c-1.8,3.6-1.8,4-4.4,5.3c0,0,4-1.3,6.2,0.4
		c1.3,1.8,3.6,2.7,5.8,2.2c1.3-0.4,3.1-0.4,4.4-1.3c0-0.4-3.6-5.8-7.6-4.9l2.2-2.2c0.9-1.3,1.4-2.9,1.3-4.4
		C122.2,175.8,115.9,177.6,114.2,180.7L114.2,180.7z"/>
	<path class="st1" d="M97.3,185.6c5.5,1.8,11.2,3.1,16.9,4l0.4,2.2c0,0-18.2-4.4-20.9-5.8C92.8,185.6,92.4,184.7,97.3,185.6"/>
	<path class="st1" d="M111.5,185.2c-5.7,2.2-11.7,3.6-17.8,4.4v2.2l20.5-5.8C115,186.1,116.8,184.3,111.5,185.2"/>
	<path class="st4" d="M106.1,187.8c0,0,4,5.8,8,4.4c-0.9,2.7-3.6,4.4-4.9,4s-4.4-3.6-4.4-5.8S106.1,187.4,106.1,187.8"/>
	<path class="st0" d="M113.7,194.1c-3.1-0.9-5.8-3.1-8-5.3c0,0.4-0.4,0.9-0.4,1.3c1.8,2.4,4.1,4.3,6.7,5.8
		C112.7,195.5,113.4,194.9,113.7,194.1"/>
	<path class="st4" d="M101.7,187.8c0,0-4,5.8-8,4.4c0.9,2.7,3.6,4.4,4.9,4s4.4-3.6,4.4-5.8S102.1,187.4,101.7,187.8"/>
	<path class="st0" d="M94.6,194.5c3.1-0.9,5.8-3.1,8-5.3c0,0.4,0.4,0.9,0.4,1.3c-2,2.4-4.4,4.4-7.1,5.8
		C95.6,195.6,95.1,195,94.6,194.5"/>
	<path class="st4" d="M103.9,182.1c-2.7,0-9.8,0-6.7,4c1.8,1.9,4.1,3.1,6.7,3.6c2.4-0.6,4.5-1.8,6.2-3.6
		C113.7,182.1,107,182.1,103.9,182.1"/>
	<path class="st0" d="M103.9,183c-1.3,0-4,0.9-2.2,3.6c0.6,1.1,1.6,2,2.7,2.7l0,0c0.9-0.5,1.7-1.3,2.2-2.2
		C107.9,183.8,105.3,183,103.9,183"/>
	<path class="st4" d="M103.9,186.1L103.9,186.1c-2.2,0-4,1.3-3.1,2.2c0.4,1.3,1.8,1.8,3.1,2.2l0,0c0.9,0,1.8-0.9,3.1-2.2
		S106.1,186.1,103.9,186.1"/>
	<path class="st0" d="M103.9,187.4L103.9,187.4c-1.3,0-1.8,0.4-1.3,1.3l1.3,1.3c0.4,0,0.9-0.4,1.3-1.3
		C105.7,187.8,105.3,187.4,103.9,187.4"/>
	<path class="st0" d="M100.4,183c-1,1.4-0.8,3.3,0.4,4.4C99.5,186.5,95.5,183.8,100.4,183"/>
	<path class="st0" d="M107.5,183c1,1.4,0.8,3.3-0.4,4.4C108.4,186.5,112.4,183.8,107.5,183"/>
	<path class="st1" d="M21.2,129.2c-0.5-1.1-0.8-2.3-0.9-3.6c-0.1-1.8,0.5-3.6,1.8-4.9c2.1-1.7,4.8-2.7,7.6-2.7
		c7.1,0,9.8,3.6,9.8,7.1c0.1,1.1-0.1,2.1-0.4,3.1l-2.7-0.4c0.4-0.7,0.5-1.5,0.4-2.2c0-2.2-1.8-4.4-7.1-4.4s-6.7,2.2-6.7,4v0.9h5.3
		v-2.2H31v4.9L21.2,129.2z"/>
	<path class="st1" d="M31.5,137.2c-4,0.9-6.7,1.8-6.2,4c0.4,1.8,3.6,1.8,7.6,1.3s6.7-1.8,6.2-3.6S35,136.7,31.5,137.2 M32.8,145.2
		c-7.1,1.3-10.2-0.9-10.7-4s3.1-6.2,8.4-7.1s9.8,0.4,10.2,4.4S38.1,144.7,32.8,145.2L32.8,145.2z"/>
	<path class="st1" d="M36.3,153.2l0.4,0.9c0.6,1.4,2.1,2.2,3.6,1.8l0,0c1.1,0,1.9-0.9,1.9-2c0-0.2-0.1-0.5-0.1-0.7v-0.4
		c0-0.3-0.2-0.6-0.4-0.9L36.3,153.2z M28.3,155.8v0.9c0.2,1.5,1.6,2.5,3.1,2.3c0.2,0,0.3-0.1,0.4-0.1h0.4c1.6-0.3,2.6-1.9,2.2-3.5
		l0,0c0,0,0-0.1,0-0.1v-0.4l-0.4-0.9L28.3,155.8z M43,148.3c0.7,1.1,1.2,2.3,1.3,3.6c0.4,1.4,0.4,3,0,4.4c-1,2.2-3.6,3.2-5.8,2.2
		c-0.4-0.4-1.3-0.9-1.8-1.3l0,0c0.1,2.2-1.4,4.1-3.6,4.4c-1.3,0.4-2.7,0.4-4,0c-1.9-1-3.2-2.8-3.6-4.9c-0.4-0.9-0.4-2.2-0.9-3.1
		L43,148.3z"/>
	<polygon class="st1" points="49.2,164.3 32.3,172.3 31,169.6 48.3,161.6 	"/>
	<polygon class="st1" points="47,180.7 44.8,177.2 39.9,180.3 42.6,184.7 40.3,186.1 35.9,179.4 51.9,169.2 55.9,175.8 53.7,177.2 
		51.5,173.2 47,175.8 49.2,179.4 	"/>
	<path class="st1" d="M54.1,187.4l0.4,0.4c1,1.2,2.8,1.4,4,0.4l0.4-0.4c1.2-0.6,1.7-2,1.1-3.2c-0.1-0.1-0.1-0.2-0.2-0.3l-0.4-0.4
		l-0.9-0.9L54.1,187.4z M58.6,179.4c0.9,0.9,1.8,1.3,2.7,2.2c1.2,1.2,1.9,2.8,2.2,4.4c-0.3,3-3.1,5.2-6.1,4.9l0,0c0,0-0.1,0-0.1,0
		c-0.5,0.1-1-0.1-1.3-0.4l0,0c0.4,1.3,0,2.7-1.3,4.4c-0.9,1.3-2.2,2.7-3.1,4l-2.2-2.2c0.8-1.3,1.7-2.5,2.7-3.6
		c1.8-1.8,1.8-3.1,0.9-4l-0.4-0.4l-5.8,4.9l-1.8-2.2L58.6,179.4z"/>
	<path class="st1" d="M57.2,204.7l11.1-15.6l2.2,1.8l-2.2,8.4c-0.4,1.8-1.3,4.4-1.8,6.2l0,0c1.4-2.5,3.1-4.9,4.9-7.1l3.1-4.4
		l2.2,1.3l-11.1,15.1l-2.2-1.8l2.2-8.4c0.4-2.2,1.3-4,1.8-6.2l0,0c-1.3,1.8-2.7,4-4.9,7.1l-3.1,4.4L57.2,204.7z"/>
	<path class="st1" d="M79,207.4c-1.8,4-1.8,6.7,0,7.6s3.6-2.2,4.9-5.8s2.2-6.7,0-7.6S80.4,203.4,79,207.4 M87,210.1
		c-2.7,6.7-5.8,8.4-8.9,7.1s-3.6-5.8-1.8-11.1s5.8-8,8.9-6.7S88.8,205.6,87,210.1L87,210.1z"/>
	<path class="st1" d="M103.5,212.3h0.9c1.8,0,3.1-1.3,3.1-3.6s-0.9-3.1-2.7-3.1h-0.9L103.5,212.3z M100.4,203.4
		c1.1-0.4,2.4-0.5,3.6-0.4c1.7,0,3.4,0.4,4.9,1.3c1,1.1,1.7,2.5,1.8,4c0,1.6-0.5,3.1-1.3,4.4c-1.1,1.3-2.7,2.1-4.4,2.2h-0.9v7.6
		h-3.6L100.4,203.4z"/>
	<path class="st1" d="M118.6,210.1h0.9c1.8-0.4,2.7-2.2,1.8-3.6v-0.4c-0.2-1.5-1.6-2.5-3.1-2.3c-0.1,0-0.3,0.1-0.4,0.1
		c-0.4,0-0.4,0-0.9,0.4L118.6,210.1z M113.3,203c1.2-0.5,2.3-1,3.6-1.3c1.6-0.4,3.3-0.4,4.9,0c1.3,0.9,2.2,1.8,2.2,3.1
		c0.5,2-0.2,4.1-1.8,5.3l0,0c1.3,0,2.2,1.3,3.6,3.1c0.5,1.6,1.2,3.1,2.2,4.4l-3.1,0.9c-0.9-1.3-1.3-2.7-2.2-4
		c-0.9-2.2-1.8-2.7-3.6-2.2h-0.4l2.2,7.6l-2.7,0.4L113.3,203z"/>
	<path class="st1" d="M132.8,205.6c2.2,3.6,4,5.8,5.8,4.9s0.4-4-1.3-7.6s-4-5.8-5.8-4.9S130.6,202.1,132.8,205.6 M139.9,201.2
		c3.6,6.2,2.7,9.8,0,11.6s-6.7-0.4-9.8-5.8s-3.1-9.3,0.4-11.1C134.2,194.1,137.3,196.7,139.9,201.2z"/>
	<path class="st1" d="M153.3,203l-16-11.1l2.2-2.2l6.7,5.3c1.9,1.3,3.7,2.8,5.3,4.4l0,0c-1.3-1.8-2.7-4-4-5.8l-4.4-7.1l2.2-2.2
		l9.3,16.9L153.3,203z"/>
	
		<rect x="155.5" y="176.8" transform="matrix(0.6283 -0.7779 0.7779 0.6283 -86.4494 191.3773)" class="st1" width="3.1" height="18.7"/>
	<path class="st1" d="M169.3,183.8l-16-9.8l1.3-2.2l8.4,1.3c1.8,0.4,4.4,0.9,6.2,1.3l0,0c-2.6-1.1-5.2-2.4-7.6-4l-4.4-2.7l1.3-2.2
		l16,9.3l-1.3,2.2l-8.4-1.3c-2.2-0.4-4-0.9-6.2-1.3l0,0c2.6,1.3,5.2,2.8,7.6,4.4l4.4,2.7L169.3,183.8z"/>
	<path class="st1" d="M181.3,159.4c0.1,1.1-0.2,2.2-0.9,3.1c-1.8,4-5.8,4.9-11.1,3.1c-6.7-3.1-7.6-7.6-6.2-10.7
		c0.4-0.9,0.9-1.3,1.3-2.2l2.2,1.3c-0.4,0.4-0.9,0.9-0.9,1.3c-0.9,1.8,0,4.4,4.9,6.2s7.1,0.9,8-1.3c0.4-0.5,0.5-1.2,0.4-1.8
		L181.3,159.4z"/>
	<polygon class="st1" points="165.7,146.1 184,150.9 183.1,153.6 164.8,148.7 	"/>
	<path class="st1" d="M179.5,136.3h-8.9l4,1.3l4,1.3L179.5,136.3z M181.3,140.3l4.4,1.8l-0.4,2.7l-17.8-7.1l0.4-3.6l19.1-0.9
		l-0.4,2.7l-4.9,0.4L181.3,140.3z"/>
	<polygon class="st1" points="168.8,126 168.8,123.4 185.3,123.8 185.3,118.5 188,118.5 187.5,126.5 	"/>
</g>
<g>
	<path class="st0" d="M328.8,193.9c-4.2,2-12.4,3.5-22.3,3.5c-38.3,0-56.4-31.2-56.4-73.7c0-56.2,31.2-78.1,60.2-78.1
		c10.2,0,17.3,2.2,20.1,4L325.5,74c-4.2-2-8.8-3-13.5-2.9c-16.4,0-31.2,14.2-31.2,51.1c0,35.6,13.5,49.5,31.2,49.5
		c4.7-0.1,9.4-0.8,13.9-2.2L328.8,193.9z"/>
	<path class="st0" d="M381.9,197.9c-33.8,0-47.1-35.8-47.1-76.8c0-40.7,16.1-75.9,49.3-75.9c35.8,0,46,39.6,46,73.7
		c0,56.2-19.9,79-48,79H381.9z M383,172.7c12.4,0,17-22.1,17-52.4c0-26.3-4-49.8-17.3-49.8c-12.8,0-18.1,23.4-17.9,50.4
		c-0.4,29.6,5.1,51.8,17.9,51.8L383,172.7z"/>
	<path class="st0" d="M448.4,49.3c10.4-1.9,21-2.9,31.6-2.9c15.9,0,30.3,2.2,39.8,11.1c9.1,8.2,11.9,18.1,11.9,31
		c0,15.9-8,30.3-23,37.2v0.4c10.2,4.2,15.3,13.5,18.1,29.6c2.9,16.6,6.9,34.9,9.5,40.5h-30.3c-2-4.2-5.3-19.2-7.5-35.8
		c-2.7-18.4-7.3-23.7-16.8-23.7h-4.4v59.5h-29V49.3z M477.4,114.3h5.3c12.6,0,19.7-10.2,19.7-23.2c0-12.8-5.1-21.7-17.9-22.1
		c-2.4-0.1-4.8,0.2-7.1,0.9V114.3z"/>
	<path class="st0" d="M552.4,49.3c10.4-1.9,21-2.9,31.6-2.9c15.9,0,30.3,2.2,39.8,11.1c9.1,8.2,11.9,18.1,11.9,31
		c0,15.9-8,30.3-23,37.2v0.4c10.2,4.2,15.3,13.5,18.1,29.6c2.9,16.6,6.9,34.9,9.5,40.5h-30.3c-2-4.2-5.3-19.2-7.5-35.8
		c-2.7-18.4-7.3-23.7-16.8-23.7h-4.4v59.5h-29V49.3z M581.4,114.3h5.3c12.6,0,19.7-10.2,19.7-23.2c0-12.8-5.1-21.7-17.9-22.1
		c-2.4-0.1-4.8,0.2-7.1,0.9V114.3z"/>
	<path class="st0" d="M685.3,47.1v149.1h-29V47.1H685.3z"/>
	<path class="st0" d="M774,130.7h-33.8v40.3h38.3v25.2h-67.2V47.1H776v25.2h-35.8v34.3H774V130.7z"/>
	<path class="st0" d="M798.3,196.1V47.1h26.5l23,58.6c4.6,11.3,11.7,30.5,15.9,43.4h0.4c-0.9-15.5-2.9-41.6-2.9-69v-33h25.4v149.1
		h-26.5l-22.8-56.8c-5.9-14.6-11-29.5-15.3-44.7h-0.4c0.9,15,2,38,2,67.9v33.6L798.3,196.1z"/>
	<path class="st0" d="M928.6,73.8h-26.3V47.1h81.8v26.8h-26.5v122.3h-29V73.8z"/>
	<path class="st0" d="M1062.2,130.7h-33.8v40.3h38.3v25.2h-67.2V47.1h64.8v25.2h-35.8v34.3h33.8V130.7z"/>
	<path class="st0" d="M1083.2,166.5c6,3.3,16.4,5.8,24.6,5.8c13.5,0,20.4-7.1,20.4-16.8c0-10.8-6.6-16.1-19.2-24.3
		c-20.4-12.4-28.1-28.1-28.1-41.6c0-23.9,15.9-43.8,46.9-43.8c10,0,19.2,2.9,23.4,5.3l-4.6,25c-5.7-3.4-12.2-5.2-18.8-5.1
		c-12.4,0-18.4,7.5-18.4,15.3c0,9.1,4.4,13.7,20.4,23.4c19.9,11.9,27,27,27,42.7c0,27.2-20.1,45.1-49.1,45.1
		c-11.9,0-23.4-3.1-28.5-6L1083.2,166.5z"/>
</g>
</svg>
