<?xml version="1.0" encoding="utf-8"?>
<!-- Generator: Adobe Illustrator 24.0.1, SVG Export Plug-In . SVG Version: 6.00 Build 0)  -->
<svg version="1.1" id="Capa_1" xmlns="http://www.w3.org/2000/svg" xmlns:xlink="http://www.w3.org/1999/xlink" x="0px" y="0px"
	 viewBox="0 0 316.3 68.2" style="enable-background:new 0 0 316.3 68.2;" xml:space="preserve">
<style type="text/css">
	.st0{fill-rule:evenodd;clip-rule:evenodd;fill:#FFFFFF;}
	.st1{fill:#FFFFFF;}
</style>
<title>logoSustiVerde</title>
<g>
	<path class="st0" d="M274.3,61.8h1.6v-6.2c0-0.3,0-0.6,0.1-0.9c0.2-1,0.8-1.6,1.5-1.6c1.1,0,1.4,1.2,1.4,2.4v6.4h1.6v-6.7
		c0-2.4-1-3.4-2.4-3.4c-1,0-1.8,0.5-2.3,1.3l0,0l-0.1-1.2h-1.4c0,0.8,0.1,1.4,0.1,2.6L274.3,61.8z M270.4,47.8l-1.6,2.8h1l2.2-2.7
		L270.4,47.8z M269.6,53c1.4,0,1.7,2.3,1.7,3.8s-0.3,3.9-1.6,3.9s-1.7-2.2-1.7-3.8S268.2,53,269.6,53L269.6,53z M269.6,51.8
		c-1.7,0-3.3,1.5-3.3,5.1s1.4,5.1,3.2,5.1c1.5,0,3.3-1.3,3.3-5.1C272.8,53.5,271.4,51.8,269.6,51.8L269.6,51.8z M264.1,48.3
		c-0.5,0-0.9,0.4-0.9,1l0,0l0,0c0,0.5,0.5,0.9,1,0.9s0.9-0.5,0.9-1C265,48.7,264.5,48.3,264.1,48.3z M264.9,61.8v-9.9h-1.6v9.9
		L264.9,61.8z M262,60.4c-0.3,0.2-0.7,0.3-1.1,0.3c-1.4,0-2.3-1.4-2.3-3.7c0-1.9,0.7-3.8,2.3-3.8c0.4,0,0.8,0.1,1.1,0.3l0.3-1.3
		c-0.4-0.2-0.9-0.3-1.4-0.3c-2.5,0-3.9,2.3-3.9,5.2c0,3.3,1.4,5,3.6,5c0.6,0,1.1-0.1,1.6-0.4L262,60.4z M254,58.7
		c0,0.2,0,0.4-0.1,0.6c-0.2,1-0.8,1.5-1.4,1.5s-1.2-0.4-1.2-1.8c0-2.2,1.9-2.3,2.7-2.3V58.7z M255.5,55.3c0-2.2-0.8-3.5-2.8-3.5
		c-0.8,0-1.6,0.2-2.3,0.7l0.4,1.1c0.5-0.3,1-0.5,1.6-0.5c1.2,0,1.6,0.9,1.6,2.2v0.3c-2.2,0-4.2,1.1-4.2,3.6c0,1.7,1,2.8,2.3,2.8
		c0.8,0,1.6-0.5,2-1.2h0.1l0.1,1h1.4c-0.1-0.7-0.1-1.5-0.1-2.3L255.5,55.3z M237.9,61.9h1.6v-6.3c0-0.3,0-0.6,0.1-0.8
		c0.2-1.1,0.8-1.6,1.5-1.6c1.2,0,1.4,1.2,1.4,2.3V62h1.6v-6.5c0-0.3,0-0.6,0.1-0.9c0.2-0.9,0.8-1.5,1.4-1.5c1.2,0,1.4,1.3,1.4,2.5
		v6.2h1.6v-6.6c0-2.5-1-3.5-2.4-3.5c-0.5,0-1,0.1-1.4,0.4c-0.4,0.3-0.8,0.7-1,1.1l0,0c-0.2-0.9-1.1-1.6-2.1-1.5
		c-0.9,0-1.8,0.5-2.2,1.4l0,0l-0.1-1.2H238c0,0.8,0.1,1.4,0.1,2.6L237.9,61.9z M233.2,61.9h1.6v-5.5c0-0.3,0-0.6,0.1-0.9
		c0-1.1,0.8-1.9,1.9-2h0.3v-1.6c-0.1,0-0.2,0-0.3,0c-1,0.1-1.8,0.8-2.1,1.7l0,0l-0.1-1.6h-1.4c0,0.7,0.1,1.7,0.1,2.6L233.2,61.9z
		 M228.5,53c1.4,0,1.7,2.3,1.7,3.8s-0.3,3.9-1.6,3.9s-1.7-2.2-1.7-3.9S227.1,53,228.5,53L228.5,53z M228.5,51.8
		c-1.7,0-3.3,1.5-3.3,5.1s1.4,5.1,3.2,5.1c1.5,0,3.3-1.3,3.3-5.1C231.7,53.5,230.3,51.8,228.5,51.8L228.5,51.8z M223.3,61.9v-8.7
		h1.8V52h-1.8v-0.6c0-1.3,0.3-2.5,1.4-2.5c0.3,0,0.6,0,0.9,0.2l0.3-1.2c-0.4-0.2-0.8-0.3-1.2-0.3c-0.8,0-1.5,0.3-2,0.8
		c-0.7,0.9-1,1.9-0.9,3V52h-1.3v1.2h1.3v8.7H223.3z M213.4,61.9h1.6v-6.2c0-0.3,0-0.6,0.1-0.9c0.2-1,0.8-1.6,1.5-1.6
		c1.1,0,1.4,1.2,1.4,2.4V62h1.6v-6.7c0-2.4-1-3.4-2.4-3.4c-1,0-1.8,0.5-2.3,1.3l0,0l-0.1-1.2h-1.4c0,0.8,0.1,1.4,0.1,2.6L213.4,61.9
		z M209.8,48v13.8h1.6V48H209.8z M203,58.7c0,0.2,0,0.4-0.1,0.6c-0.2,1-0.8,1.5-1.5,1.5c-0.6,0-1.2-0.4-1.2-1.8
		c0-2.2,1.9-2.3,2.7-2.3v2H203z M204.5,55.3c0-2.2-0.8-3.5-2.8-3.5c-0.8,0-1.6,0.2-2.3,0.7l0.3,1.1c0.5-0.3,1.1-0.5,1.6-0.5
		c1.2,0,1.6,0.9,1.6,2.2v0.3c-2.2,0-4.2,1.1-4.2,3.6c0,1.7,1,2.8,2.3,2.8c0.8,0,1.6-0.5,2-1.2h0.1l0.1,1h1.4
		c-0.1-0.7-0.1-1.5-0.1-2.3L204.5,55.3z M195.7,61.9h1.6V47.7h-1.6V61.9z M186.5,55.9c0.1-1.3,0.6-2.8,1.6-2.8
		c0.8,0,1.5,0.9,1.5,2.8H186.5z M191.1,57v-0.9c0-2.2-0.8-4.3-2.8-4.3s-3.4,2-3.4,5.2c0,3,1.2,5,3.6,5c0.8,0,1.5-0.1,2.2-0.5
		l-0.3-1.1c-0.5,0.2-1.1,0.4-1.6,0.4c-1.1,0-2.3-0.6-2.3-3.7L191.1,57z M182,58.3c0,0.2,0,0.4-0.1,0.7c-0.4,1.4-1,1.7-1.5,1.7
		c-1.1,0-1.7-1.7-1.7-3.8s0.4-3.8,1.8-3.8c0.8,0,1.4,0.9,1.5,1.9v0.7V58.3z M182,47.7V53l0,0c-0.3-0.7-1-1.2-1.8-1.2
		c-1.5,0-3,1.6-3,5.1c0,3.3,1.2,5.1,2.9,5.1c0.9,0,1.7-0.6,2-1.4h0.1l0.1,1.2h1.4c0-0.6-0.1-1.7-0.1-2.4V47.7H182z M306.2,41
		c0.6,0.4,1.2,0.6,1.9,0.6c1.5,0.1,2.9-1,3-2.5c0-0.2,0-0.3,0-0.5c-0.1-1.3-0.9-2.4-2-3c-1-0.7-1.2-1-1.2-1.7s0.5-1.2,1.1-1.3h0.1
		c0.5,0,0.9,0.2,1.3,0.5l0.4-1.2c-0.5-0.3-1.1-0.5-1.8-0.5c-1.5,0-2.7,1.1-2.7,2.6l0,0c0,0.1,0,0.1,0,0.2c0,1.1,0.7,2,2,2.8
		c1,0.7,1.3,1.2,1.3,2c0,0.7-0.5,1.4-1.3,1.4c-0.1,0-0.1,0-0.2,0c-0.6,0-1.1-0.2-1.6-0.5L306.2,41z M303.4,38.3c0,0.2,0,0.4-0.1,0.6
		c-0.2,1-0.8,1.5-1.5,1.5s-1.2-0.5-1.2-1.8c0-2.1,1.9-2.3,2.7-2.3L303.4,38.3z M304.9,34.9c0-2.2-0.8-3.5-2.8-3.5
		c-0.8,0-1.6,0.2-2.3,0.6l0.4,1.1c0.5-0.3,1.1-0.5,1.6-0.5c1.2,0,1.6,0.9,1.6,2.2v0.3c-2.2,0-4.2,1.1-4.2,3.6c0,1.7,1,2.8,2.3,2.8
		c0.8,0,1.6-0.5,2-1.2h0.1l0.1,1h1.4c-0.1-0.8-0.1-1.5-0.1-2.3L304.9,34.9z M297.8,27.5l-1.6,2.8h1l2.2-2.8H297.8z M297.8,41.5v-9.9
		h-1.6v9.9H297.8z M292.8,37.9c0,0.3,0,0.6-0.1,0.9c-0.3,1.2-0.9,1.4-1.4,1.4c-1,0-1.8-1.2-1.8-3.7c0-2.2,0.6-3.7,1.8-3.7
		c0.9,0,1.3,0.8,1.4,1.5c0.1,0.2,0.1,0.5,0.1,0.7V37.9z M294.4,34.7c0-1.5,0.1-2.4,0.1-3.1h-1.4l-0.1,1.1l0,0
		c-0.3-0.8-1.1-1.2-1.9-1.2c-1.5,0-3.1,1.5-3.1,5.1c0,2.9,1.1,4.9,2.9,4.9c0.8,0,1.6-0.5,1.9-1.2l0,0v1c0,2.2-0.8,3-2,3
		c-0.6,0-1.3-0.1-1.9-0.4l-0.4,1.2c0.7,0.3,1.4,0.5,2.2,0.5c1,0.1,1.9-0.3,2.6-1s1-1.7,1-4.3L294.4,34.7z M283.7,32.7
		c1.4,0,1.7,2.3,1.7,3.9c0,1.6-0.3,3.9-1.6,3.9s-1.8-2.3-1.8-4S282.3,32.7,283.7,32.7L283.7,32.7z M283.8,31.4
		c-1.7,0-3.3,1.5-3.3,5.1s1.4,5.1,3.2,5.1c1.5,0,3.3-1.3,3.3-5.1C287,33.1,285.5,31.5,283.8,31.4L283.8,31.4z M277.3,41.5h1.6V27.3
		h-1.6V41.5z M272.6,32.7c1.4,0,1.7,2.3,1.7,3.9c0,1.6-0.3,3.9-1.6,3.9s-1.7-2.2-1.7-3.9C271,34.9,271.2,32.7,272.6,32.7L272.6,32.7
		z M272.6,31.4c-1.7,0-3.3,1.5-3.3,5.1s1.4,5.1,3.2,5.1c1.5,0,3.3-1.3,3.3-5.1C275.8,33.1,274.4,31.5,272.6,31.4L272.6,31.4z
		 M261.8,41.5h1.6v-6.2c0-0.3,0-0.6,0.1-0.9c0.2-1,0.8-1.6,1.5-1.6c1.2,0,1.4,1.2,1.4,2.4v6.3h1.6v-6.6c0-2.4-1-3.4-2.4-3.4
		c-1,0-1.8,0.5-2.3,1.4l0,0l-0.1-1.2h-1.4c0,0.8,0.1,1.4,0.1,2.6v7.2H261.8z M260.5,40c-0.3,0.2-0.7,0.3-1.1,0.3
		c-1.4,0-2.3-1.4-2.3-3.7c0-2,0.7-3.8,2.3-3.8c0.4,0,0.8,0.1,1.1,0.3l0.3-1.3c-0.4-0.2-0.9-0.3-1.4-0.3c-2.5,0-3.9,2.3-3.9,5.2
		c0,3.3,1.5,5,3.6,5c0.6,0,1.1-0.1,1.6-0.4L260.5,40z M249.9,35.5c0.1-1.4,0.6-2.9,1.6-2.9c0.8,0,1.5,0.9,1.5,2.9H249.9z
		 M254.5,36.7c0-0.2,0.1-0.5,0.1-0.9c0-2.2-0.8-4.3-2.8-4.3s-3.4,2-3.4,5.2c0,3,1.2,5,3.6,5c0.8,0,1.5-0.2,2.2-0.5l-0.3-1.2
		c-0.5,0.3-1.1,0.4-1.6,0.4c-1.1,0-2.3-0.6-2.3-3.7H254.5z M244.9,41.5h1.6V29.1h2.6v-1.4h-6.6v1.4h2.5L244.9,41.5z M233,31.6
		l2.5,9.1c0,0.1,0.1,0.2,0.1,0.4s0,0.3-0.1,0.5c-0.2,0.6-0.5,1.2-0.9,1.7s-0.9,0.9-1.4,1.2l0.6,1.3c0.7-0.4,1.3-0.9,1.8-1.5
		c1.1-1.5,1.8-3.9,2.4-6.4l1.6-6.4H238l-1.2,5.7c-0.1,0.7-0.3,1.4-0.4,2l0,0c-0.1-0.6-0.2-1.3-0.4-2l-1.3-5.7L233,31.6z M224.4,41
		c0.6,0.4,1.3,0.6,1.9,0.6c1.5,0.1,2.9-1,3-2.5c0-0.2,0-0.3,0-0.5c-0.1-1.3-0.9-2.4-2-3c-1-0.7-1.2-1-1.2-1.7s0.5-1.2,1.1-1.3h0.1
		c0.5,0,1,0.2,1.3,0.5l0.4-1.2c-0.6-0.3-1.2-0.5-1.8-0.4c-1.5,0-2.7,1.1-2.7,2.6c0,0.1,0,0.1,0,0.2c0,1.1,0.7,2,2,2.8
		c1,0.7,1.3,1.2,1.3,2c0,0.7-0.5,1.4-1.3,1.4c-0.1,0-0.1,0-0.2,0c-0.6,0-1.1-0.2-1.6-0.5L224.4,41z M221.6,38.4c0,0.2,0,0.4-0.1,0.6
		c-0.2,1-0.8,1.5-1.4,1.5s-1.2-0.5-1.2-1.8c0-2.1,1.9-2.3,2.7-2.3V38.4z M223.1,34.9c0-2.2-0.8-3.5-2.8-3.5c-0.8,0-1.6,0.2-2.3,0.6
		l0.4,1.1c0.5-0.3,1.1-0.5,1.6-0.5c1.2,0,1.6,0.9,1.6,2.2v0.3c-2.2,0-4.2,1.1-4.2,3.6c0,1.7,1,2.8,2.3,2.8c0.8,0,1.6-0.5,2-1.2h0.1
		l0.1,1h1.4c-0.1-0.8-0.1-1.5-0.1-2.3L223.1,34.9z M205.5,41.5h1.6v-6.3c0-0.3,0-0.6,0.1-0.8c0.2-1.1,0.8-1.6,1.5-1.6
		c1.2,0,1.4,1.2,1.4,2.3v6.4h1.6v-6.4c0-0.3,0-0.6,0.1-0.9c0.2-0.9,0.8-1.5,1.5-1.5c1.2,0,1.4,1.3,1.4,2.5v6.3h1.5V35
		c0-2.5-1-3.5-2.4-3.5c-0.5,0-1,0.1-1.4,0.4c-0.4,0.3-0.8,0.7-1,1.1h-0.1c-0.2-0.9-1.1-1.5-2-1.5s-1.8,0.5-2.2,1.3l0,0l-0.1-1.2
		h-1.4c0,0.8,0.1,1.4,0.1,2.6L205.5,41.5z M199.5,35.5c0.1-1.4,0.6-2.9,1.6-2.9c0.8,0,1.5,0.9,1.5,2.9H199.5z M204.1,36.7v-0.9
		c0-2.2-0.8-4.3-2.8-4.3s-3.3,2-3.3,5.1c0,3,1.2,5,3.6,5c0.8,0,1.5-0.2,2.2-0.5l-0.3-1.2c-0.5,0.3-1.1,0.4-1.6,0.4
		c-1.1,0-2.3-0.6-2.3-3.7L204.1,36.7z M194,29.9v1.7h-1.2v1.2h1.2v5.7c-0.1,0.9,0.1,1.8,0.6,2.5c0.4,0.4,1,0.6,1.6,0.6
		c0.4,0,0.8,0,1.2-0.2l-0.1-1.2c-0.2,0-0.4,0.1-0.6,0.1c-0.6,0-1-0.3-1-1.6v-5.9h1.9v-1.2h-1.9v-2.3L194,29.9z M187.4,41
		c0.6,0.4,1.2,0.6,1.9,0.6c1.5,0.1,2.9-1,3-2.5c0-0.2,0-0.3,0-0.5c-0.1-1.3-0.8-2.4-2-3c-1-0.7-1.2-1-1.2-1.7s0.5-1.2,1.1-1.3h0.1
		c0.5,0,0.9,0.2,1.3,0.5l0.4-1.2c-0.5-0.3-1.1-0.5-1.8-0.5c-1.5,0-2.7,1.1-2.7,2.6c0,0.1,0,0.1,0,0.2c0,1.1,0.7,2,2,2.8
		c1,0.7,1.3,1.2,1.3,2c0,0.7-0.5,1.4-1.3,1.4c-0.1,0-0.1,0-0.2,0c-0.6,0-1.1-0.2-1.6-0.5L187.4,41z M185.4,28c-0.5,0-0.9,0.5-0.9,1
		s0.5,0.9,1,0.9s0.9-0.5,0.9-1C186.3,28.4,185.9,28,185.4,28z M186.2,41.5v-10h-1.6v10H186.2z M177,41c0.7,0.4,1.5,0.6,2.3,0.6
		c2,0.1,3.8-1.5,3.9-3.5c0-0.1,0-0.3,0-0.4c0-1.7-1-3.2-2.4-4c-1.3-0.9-2-1.5-2-2.8c-0.1-1.1,0.8-1.9,1.8-2c0.1,0,0.1,0,0.2,0
		c0.6,0,1.2,0.2,1.6,0.5l0.4-1.4c-1.8-1-4-0.4-5.1,1.3c-0.3,0.5-0.5,1.2-0.5,1.8c0,1.8,1.5,3.1,2.6,3.8c1.1,0.6,1.8,1.7,1.8,2.9
		c0.1,1.2-0.8,2.2-2,2.3c-0.1,0-0.2,0-0.3,0c-0.7,0-1.4-0.2-2-0.6L177,41z M270.1,15.2c0.1-1.3,0.6-2.8,1.6-2.8
		c0.8,0,1.5,0.9,1.5,2.8H270.1z M274.7,16.4v-0.9c0-2.2-0.8-4.3-2.8-4.3s-3.4,2-3.4,5.2c0,3,1.2,5,3.6,5c0.8,0,1.5-0.2,2.2-0.5
		l-0.3-1.1c-0.5,0.2-1.1,0.4-1.6,0.4c-1.1,0-2.3-0.6-2.3-3.7L274.7,16.4z M265.5,17.7c0,0.2,0,0.4-0.1,0.7c-0.4,1.4-1,1.7-1.5,1.7
		c-1.1,0-1.7-1.7-1.7-3.8s0.5-3.8,1.8-3.8c0.8,0,1.4,0.9,1.5,1.9v0.7V17.7z M265.5,7v5.3l0,0c-0.3-0.7-1-1.2-1.8-1.2
		c-1.5,0-3,1.6-3,5.2c0,3.3,1.2,5.1,2.9,5.1c0.9,0,1.7-0.6,2.1-1.4h0.1l0.1,1.2h1.4c0-0.6-0.1-1.7-0.1-2.4V7H265.5z M254.4,18
		c0,0.2,0,0.4-0.1,0.6c-0.2,1-0.8,1.5-1.4,1.5s-1.2-0.4-1.2-1.8c0-2.1,1.9-2.3,2.7-2.3V18z M256,14.6c0-2.2-0.8-3.5-2.8-3.5
		c-0.8,0-1.6,0.2-2.3,0.7l0.3,1.1c0.5-0.3,1.1-0.5,1.6-0.5c1.2,0,1.6,0.9,1.6,2.2v0.3c-2.2,0-4.2,1.1-4.2,3.6c0,1.7,1,2.8,2.3,2.8
		c0.8,0,1.6-0.5,2-1.2h0.1l0.1,1h1.4c-0.1-0.7-0.1-1.5-0.1-2.3V14.6z M248.9,7.2l-1.6,2.8h1l2.2-2.8C250.5,7.2,248.9,7.2,248.9,7.2z
		 M248.9,21.2v-9.9h-1.6v9.9H248.9z M242.5,21.2h1.6v-5.5c0-0.3,0-0.6,0.1-0.9c0.1-1,0.9-1.9,1.9-2h0.3v-1.7c-0.1,0-0.2,0-0.3,0
		c-1,0.1-1.8,0.8-2.1,1.7l0,0l-0.1-1.6h-1.4c0,0.7,0.1,1.7,0.1,2.6L242.5,21.2z M239.1,18.1c0,0.2,0,0.4-0.1,0.6
		c-0.2,1-0.8,1.5-1.4,1.5s-1.2-0.4-1.2-1.8c0-2.1,1.9-2.3,2.7-2.3V18.1z M240.6,14.6c0-2.2-0.8-3.5-2.8-3.5c-0.8,0-1.6,0.2-2.3,0.7
		l0.4,1.1c0.5-0.3,1-0.5,1.6-0.5c1.2,0,1.6,0.9,1.6,2.2v0.3c-2.2,0-4.2,1.1-4.2,3.6c0,1.7,1,2.8,2.3,2.8c0.8,0,1.6-0.5,2-1.2l0,0
		l0.1,1h1.4c-0.1-0.7-0.1-1.5-0.1-2.3V14.6z M230.9,9.6v1.6h-1.2v1.2h1.2v5.8c-0.1,0.9,0.1,1.8,0.6,2.5c0.4,0.4,1,0.6,1.6,0.6
		c0.4,0,0.8,0,1.2-0.2l-0.1-1.2c-0.2,0.1-0.4,0.1-0.6,0.1c-0.6,0-1-0.4-1-1.6v-6h1.9v-1.1h-1.9V8.9L230.9,9.6z M224.5,15.3
		c0.1-1.3,0.6-2.8,1.6-2.8c0.8,0,1.5,0.9,1.5,2.8H224.5z M229.1,16.4v-0.9c0-2.2-0.8-4.3-2.8-4.3s-3.3,1.9-3.3,5.1c0,3,1.2,5,3.6,5
		c0.8,0,1.5-0.2,2.2-0.5l-0.3-1.1c-0.5,0.3-1.1,0.4-1.6,0.4c-1.1,0-2.3-0.6-2.3-3.7H229.1z M218.9,21.2h1.6v-5.5
		c0-0.3,0-0.6,0.1-0.9c0.1-1,0.9-1.9,1.9-2h0.3v-1.7c-0.1,0-0.2,0-0.3,0c-1,0.1-1.8,0.8-2.1,1.7l0,0l-0.1-1.6h-1.4
		c0,0.7,0.1,1.7,0.1,2.6L218.9,21.2z M217.7,19.8c-0.3,0.2-0.7,0.3-1.1,0.3c-1.4,0-2.3-1.4-2.3-3.7c0-1.9,0.7-3.8,2.3-3.8
		c0.4,0,0.8,0.1,1.1,0.3l0.3-1.3c-0.4-0.2-0.9-0.3-1.4-0.3c-2.5,0-3.9,2.3-3.9,5.2c0,3.3,1.4,5,3.6,5c0.6,0,1.1-0.1,1.6-0.4
		L217.7,19.8z M207.1,15.3c0.1-1.3,0.6-2.8,1.6-2.8c0.8,0,1.5,0.9,1.5,2.8H207.1z M211.7,16.4v-0.9c0-2.2-0.8-4.3-2.8-4.3
		s-3.4,2-3.4,5.2c0,3,1.2,5,3.6,5c0.8,0,1.5-0.2,2.2-0.5l-0.3-1.1c-0.5,0.3-1.1,0.4-1.6,0.4c-1.1,0-2.3-0.6-2.3-3.7L211.7,16.4z
		 M199.7,20.8c0.6,0.4,1.3,0.6,1.9,0.6c1.5,0.1,2.9-1,3-2.5c0-0.1,0-0.3,0-0.4c-0.1-1.3-0.9-2.4-2.1-3c-1-0.7-1.2-1-1.2-1.7
		s0.5-1.2,1.2-1.3h0.1c0.5,0,0.9,0.1,1.3,0.4l0.4-1.2c-0.5-0.3-1.1-0.5-1.8-0.5c-1.5,0-2.7,1.1-2.7,2.6l0,0c0,0.1,0,0.1,0,0.2
		c0,1.1,0.7,2,2,2.8c1,0.7,1.3,1.2,1.3,1.9c0.1,0.7-0.5,1.4-1.3,1.4c-0.1,0-0.1,0-0.2,0c-0.6,0-1.1-0.2-1.6-0.5L199.7,20.8z
		 M194.1,14.9v-0.7c0.1-0.9,0.7-1.8,1.5-1.8c1.3,0,1.8,1.7,1.8,3.7s-0.4,3.8-1.7,3.8c-0.4,0-1.1-0.3-1.5-1.7c0-0.2-0.1-0.4-0.1-0.6
		V14.9z M192.5,18.8c0,0.7-0.1,1.8-0.1,2.4h1.3l0.1-1.3h0.1c0.3,0.9,1.1,1.5,2,1.5c1.5,0,3-1.6,3-5.2c0-3.3-1.1-5-2.7-5
		c-0.9,0-1.8,0.5-2.1,1.3l0,0V7h-1.6V18.8z M190.6,11.3H189v6.5c0,0.3,0,0.6-0.1,0.9c-0.1,0.7-0.7,1.3-1.4,1.3
		c-1.1,0-1.3-1.1-1.3-2.7v-6h-1.6v6.2c0,2.5,0.7,3.8,2.4,3.8c0.9,0,1.7-0.5,2.1-1.2l0,0l0.1,1h1.4c0-0.7-0.1-1.6-0.1-2.7L190.6,11.3
		z M177,20.7c0.7,0.4,1.5,0.6,2.3,0.6c2,0.1,3.8-1.5,3.9-3.5c0-0.1,0-0.3,0-0.4c0-1.7-1-3.2-2.4-4c-1.3-0.9-2-1.5-2-2.8
		c-0.1-1.1,0.8-1.9,1.8-2c0.1,0,0.1,0,0.2,0c0.6,0,1.2,0.2,1.6,0.5l0.4-1.4c-1.7-1-4-0.5-5,1.3c-0.3,0.6-0.5,1.2-0.5,1.8
		c0,1.8,1.5,3.1,2.6,3.8c1.1,0.6,1.8,1.7,1.8,2.9c0.1,1.2-0.8,2.2-2,2.3c-0.1,0-0.2,0-0.3,0c-0.7,0-1.4-0.2-2-0.6L177,20.7z"/>
	<path class="st1" d="M10.6,49.3c3,1.4,6.2,2.1,9.5,2.1c4.7,0,6.8-2.1,6.8-4.9c0-3.4-2.3-5-7.1-7.8C11,33.4,9.6,27.4,9.6,23.4
		c0-9.1,5.8-16.9,18.5-16.9c3.1,0,6.2,0.7,9,2l-1.8,10.8c-2.2-1.3-4.6-1.9-7.2-1.9c-4.2,0-6.3,2.2-6.3,4.7c0,2.4,1.1,3.9,7.3,7.4
		c7.6,4.2,10.1,10,10.1,15.6c0,10.3-7.7,17.2-19.3,17.2c-4.6,0-8.9-1-10.9-2.1L10.6,49.3z"/>
	<path class="st1" d="M76.7,49.1c0,4.2,0.2,8.7,0.3,12.8H66.2l-0.7-4.2h-0.2c-2.2,3.1-5.7,5-9.5,4.9c-7.9,0-11.1-5.7-11.1-16.8v-24
		h12.6v22.5c0,4.8,1.1,7.7,3.4,7.7c1.1,0,2.1-0.6,2.5-1.6c0.5-1,0.8-2.2,0.7-3.3V21.8h12.6v27.3H76.7z"/>
	<path class="st1" d="M83.9,49.3c3,1.4,6.2,2.1,9.5,2.1c4.7,0,6.8-2.1,6.8-4.9c0-3.4-2.3-5-7.1-7.8c-8.9-5.3-10.3-11.3-10.3-15.4
		c0-9,5.9-16.8,18.6-16.8c3.1,0,6.2,0.7,9,2l-1.8,10.8c-2.2-1.3-4.7-1.9-7.2-1.9c-4.2,0-6.3,2.2-6.3,4.7c0,2.4,1.1,3.9,7.3,7.4
		c7.6,4.2,10.1,10,10.1,15.6c0,10.3-7.7,17.2-19.3,17.2c-4.7,0-9.1-1.1-11.1-2.1L83.9,49.3z"/>
	<path class="st1" d="M124.1,18.7h-9.5V7h31.7v11.7h-9.6v43.1h-12.6C124.1,61.8,124.1,18.7,124.1,18.7z"/>
	<path class="st1" d="M164.4,7v54.8h-12.6V7H164.4z"/>
</g>
</svg>
